<svg xmlns="http://www.w3.org/2000/svg" viewBox="0 0 966.22 817.94"><title>Asset 3</title><g id="Layer_2" data-name="Layer 2"><g id="OBJECTS"><path d="M139.86,524.67a11.17,11.17,0,0,0-.7-2.24l2.2,1.47c1.84-.15,3.37-.24,4.88-.41s3.32.5,4.85-.53c.13-.09.47.19.72.24a4.63,4.63,0,0,0,1.52.17,19.8,19.8,0,0,0,2.39-.7c-.84-1.36-2.8-.79-3.53-1.87l-5.14.83c-1.25-.13-1.38-1.87-2.19-3.35L143.63,520a5.29,5.29,0,0,0-2,.54c-.63.45-1.13.93-2.1.71v-3.74c1.84-.62,2.59-2.19,3.39-3.89-.8-.25-.93.34-1.19.59s-.2.61-.27.86h-1.27c-.28-.57-.54-1.12-.83-1.69l.08.08.46-.39-.18-.18a3.13,3.13,0,0,0-.36.49c-.35.22-.74.42-1.37.75l-1.08-1.92-.44.33v-2c-.36.05-.72,0-.85.15a14,14,0,0,0-.94,1.38l-1.88-.55-.31,1.77h-2a2.39,2.39,0,0,1-.14-.71,2.89,2.89,0,0,1,1.46-2.2,14.11,14.11,0,0,0,2.46-3v-1.87l2.38-2.16-1.12-2.18.9-1.54L134,500.83s-.23-.14-.26-.26c-.34-1.4.49-2.62.66-4,1.91.15,1.26-1.84,2-2.52l-.61-2-1.33-.23c-.57-1.12.44-1.81.69-2.79l3.08,1.39a2.81,2.81,0,0,0,.9-3h3.1l1.25,1.38,3.23-3.23a3.13,3.13,0,0,0-1.89-2.82l-.59,1.22-2.71-.53c-1.46.93-1,1.82-.51,2.76a15.88,15.88,0,0,0-1.88,1.22c-1-.21-.79-1.63-1.8-2.26-1.43.24-3.12-.5-4.68.61L130,484c-.23-1.52-.45-3.11-.73-4.69a9.92,9.92,0,0,0-.57-1.73,6,6,0,0,1-.52-1.19c-.19-1.42-.29-2.85-.45-4.54l2-1.74c-.21-1.58-1.22-2-2.41-2.57l2-1.33-.51-1.77c1.76-1,2.69-2.64,2.69-5.11l-1.65-1.44,1.36-1.51,2.93,1.06,1.89-4.33h1.83l1.11-2.42,1.8.7-.39-3.42h1.8a7.36,7.36,0,0,1,.56.6c0,.31,0,.65.07,1h2.77l-.1-.94c-.94,0-1.84,0-2.74,0a7.36,7.36,0,0,0-.56-.6v-1l2.71-.16.14-.93h-2.47l-3.4,2.43-1-1.61-5.83.75c-1.05-.87-1.26-2.64-3-2.76V442l1.38-1.13,1.66.38,1.12,1.76.49-1.36,1.28.49,3.47-2.17c-.46-1-1-2,.43-2.69l2.57,2.12c-.27-.74-.33-.92-.4-1.1s-.21-.48-.33-.76l2.24-1.12c-.68-1.53-.47-3.47-2.36-4.61l2.2-1.63-1.36-.49v-1.86l1.11-1.11-1.36-1,.77-1.56-.69-1.26,1.88-1.88-.85-1.82c-.9.59-1.79.93-2.57-.47l1.27-.58c1.32.51,1.3.45,2.79-.14,1.78-.7,3.4-2,5.48-1.71,1.65-1.24,3.85-1,5.56-2.22a11,11,0,0,1,5.47-1.69c.58,0,1.13-.89,1.75-.11,0-1.13,1.37-1,1.74-1.76a5.08,5.08,0,0,0,.23-1.32c1.06-.56,1.23-.75,1.56-2-.84.37-1.51.68-2.2,1-1.36.57-2.52,1.71-4.2,1.46-.26,0-.59.34-.89.53l-.75-2.4-1.67.81L154.25,406l-1.89,1.43-1.62-.69V403.7l-2,1.89c-1.76-.78-1.76-.78-2.74,1.1h-1.33c-.5-1.32.53-2.13.91-3.23h-3.11l-.94.94c-3-.09-5.36,2-8.6,2.21l-.8-.42-.8-1.67c-.7-.26-2.12.44-2.6-1.06l2.23-3.81-4.49-3-3.37.67.68-3-1.36-1.57,1.76-1.37v-4.79l-1.51.64V383l.82.62.48-1.2c.11.34.11.14,0,.09-1.15-.63-2.31-1.23-3.59-1.9v-2.4l-2-1.28-2.93,1.9c-.3-1.82-1.57-3.22-.43-5,.12-.19.18-.66.08-.73-.68-.48-.56-1.17-.47-1.78.24-1.58.57-3.14.87-4.71,0-.08.13-.13.19-.2-.88-1.2-2.15-2.17-2.23-3.84A.86.86,0,0,0,113,362c-1.93-.57-2-2.51-2.93-3.78.44-.82,1.88-.62,1.73-1.85-.09-.7.92-1.37,0-2.09a.55.55,0,0,1,0-.54c.7-.8.13-1.55.05-2.37-.13-1.32-1-2.57-.15-4.08.48-.82-.07-2-1.15-2.61A14.44,14.44,0,0,1,108.6,343h-2.45l-.77-2.4.33-.2-1.92-1.61,2.67-2,1.2-5.18L104,330.49v-2l1.26-.44-1.12-1.54-1.1.52-1.56-1c1-1.25,1.75-.16,2.69,0a9.91,9.91,0,0,1,5.12-3c1.48-.4,2.8-1.28,4.37-1.72s2.75-2,4.19-3.14l5.19-.85v-1.31a17.2,17.2,0,0,1-2.51-.84,13.93,13.93,0,0,1-2-1.51,23.06,23.06,0,0,0,.59-2.45c.12-.88-.21-1.85.58-2.59,0,0,0-.18,0-.27-.27-1.13-1.1-2.37-.49-3.39.7-1.19.3-2.33.58-3.71l2.8-2.1-.63-2.43c0,.49,0,.34,0,.31,1-.67.86-2,1.56-2.72a25.46,25.46,0,0,1,3.12-2.48c1-1.82-.34-3.11-.12-4.78.42,0,1-.17,1.27,0a28.43,28.43,0,0,1,2.4,2c0-1.39,2.06-1.28,2.27-3-.06-.15-.37-.54-.33-.89a19.84,19.84,0,0,0,.49-2.59,11.85,11.85,0,0,0-.72-2.66l2-1.88L133,277l-.73.65-2.14-1.06,2.57-1c-.05-2-.25-4-2.62-5-.47-.2-.71-1-1.09-1.54-.79-.24-1.55.35-2.45.3a8.26,8.26,0,0,0-2.71.92c-.54-.61-1.54-1.23-1.68-2-.2-1.14-1.47-.68-1.63-1.6a2,2,0,0,1,.78-2.77l1,2.34,2.23-.4,1.8.56c.28-1.25.94-2.42.64-3.27-.53-1.54-.35-3.05-.51-4.57-.51-.39-.53.32-.83.34s-.75,0-1.11,0l-1.41-1.41v-1.77c-.23-.07-.53-.26-.72-.19-.72.3-1.41.69-2.26,1.12l-1-1.58-2.21.66.71.77-.82,1.25a6.5,6.5,0,0,1-2-.22c-.86-.38-.83-.85-.06-2.47L112,255l-.75,1.11h-1.61l-.24-.89-4.05-.81-1.22,1.22c-.28-.3-.69-.56-.82-.92-.68-1.85-.66-1.86-2.21-2.69v-3.1h1.47l1.46,2.17h3l1-1.19,3.05.59.24-1.59h1.33l.81,2.19h3.15l1-1.16,4.73.76.92.92h2v-1.45l-1-.38V246.3a6.09,6.09,0,0,1-2.78-3.31l2.63-1.32a2,2,0,0,0,.47.39c.14.07.36,0,.66,0v-1.62l2-1.73,1.37,1.27.15-1.62,2.21-.91c1.6,1.19,2.49,2.53,2.22,4.55h-2l-1.5-1.5-1.5.71c.21,1.19-.35,2-1.65,2.5l3.11.14,1,1c1.19.44,2.63-.59,3.84,1.14l1.16-2.21.6.32c-.24-.93-.52-1.85-.71-2.78s-.25-1.74-.42-2.92l1.12-2.28c2.33-.24,2.33-.24,3.34.24l2-.62.78-1.29,3.73-.88.32,1.12h1.54l-1.07-2.05V230.3l2.4-1-2-.31.51-1.89,5.13-.87v2.15L151.28,230l.15.29,1.56-.61,1.74,1.65c1.43-.89,2.87-.37,4.15-.53l.93,2.4,2.38-2.31-1.81-2-1,.72-.74-.74,1.2-1.71c-1.17-.79-1.41.29-2.13.75l-2.07-1.63-1-.11c0-.34,0-.66.05-1l3.2.62.2-1.8h2.95c-.28-.56-.35-.93-.58-1.1a19.9,19.9,0,0,0-1.89-1.09c-.59.18-1.66-.52-2.49.46a10.17,10.17,0,0,0-3.69-.54,5.27,5.27,0,0,1-1.46-.53,6,6,0,0,0-1.52-.39,7.34,7.34,0,0,0-1.36.28s-.13-.3-.23-.49l.08.08.46-.39-.18-.18a3,3,0,0,0-.36.49l-3.54-2.05.79-1.93c1.14.22,2.21-.37,3,.58.92-.72,1.77-1.49,1.46-3.06l2.23,1.1V217c-1,.12-1.12,1.15-2,2.12l2.14-.69c.63.37.78,1.57,1.94,1.48l.55-1.11,1.76,1.38,4.15-.8c-.28-.48-.48-1.22-.76-1.25-1.75-.18-2.57-1.69-3.86-2.51H158V214l-1.61-.29a5.71,5.71,0,0,0,.51-1c1,0,1.88,0,2.84,0l-.67-1.23,1.26-.62-.54-.6.52-.59-.87-.87c-.71,1.33-2.21,2.1-2.54,3.95-.73-.3-1.5-1.07-2.33-.11l-4.39-2.14,1.6-3.1c-2.23-.56-4.6-1.67-6.46,1l-1.9-.62a5.5,5.5,0,0,0-1.86.52c-.5.34-.63,1.08-1.41,1.29a8.39,8.39,0,0,0-1.83,1l-2.88-2.25.48-1.67h-3.68l-2.36-1.49c.36-1.27-1.37-.45-1.32-1.5a3.22,3.22,0,0,1-3.26,2.33c-1.4,0-2.81,0-4.16,0l-2.68,1.82-.71-1.24-2,.3-.39-.36c-1.33.32-2.4,1.7-4,1.06a5.06,5.06,0,0,0-2.92-2.94V202.1H110v1.53l2.55.14,1.92,1.44.25-3.21,1.89-.7.51,1.43,2.18-.68,1.46-2.91-1.28.51c-1.25-.17-2.55,0-3.48-.56-1.18-.68-2-.3-3,.09a1.57,1.57,0,0,1-2-.46l-1.68,1-1.45-.67v-2.63c-1.4,0-1.75,1.2-2.39,1.57l-2-.56-.28,1.77h-1.46V196.6c1.7-.19,1.86-2.13,2.83-2.88l6,.75,1-1,3.1,1.81c1.57.28,3.92-.67,5.72,1l3.36-2.57-1.91-.9c-.72.77-.68,2-2.14,1.83v-3.23c-1.88-.42-3.26.54-4.88,1.05-.79-1.32-1.67-2.65-3.53-2.93v-1.23l-1.86-1-1.6,1.33c-1.48-.77-1.58-2.27-2.1-3.91L104,187l-1.08-.77-1.08,1.62h-1.74c-.73-1.21.22-2.16.57-3.24l1.3-.14.87-2,1.41-.71c1.84,2.56,4.09,1.57,6.29.3l1.52,1.28.74-.63,1.14.72,2.12-1.11.79.9a9.05,9.05,0,0,1,2.07-.37c.87.06,2,.78,2.52.44.88-.6,1.79-.23,2.58-.6a3.76,3.76,0,0,0,.81-2.5c.07-.06.14-.17.21-.18.37,0,.75,0,1.11,0l.89,1.55L130,182c.84-.27.24-1.48.5-2.46H133l1.18,1.12,3.66-1.76,1.87,1c1.25-1,2.51-.51,3.73.06l1.64-.82V176c.46.1.8.07.94.23a13.47,13.47,0,0,1,1,1.44H149l2,1.33.28-.3-.48-.68.49-.58-1.27-1.27,1.77.21,1.53-1.14.33,1.19,4.31.69,1.7-1.71,1.57.87.33-1.23H153.9c-1.33-1.65-1.33-1.65-2.74-2.35l-2.45,1.68c-1.39,0-2.8-.06-4.2,0a2.89,2.89,0,0,0-3,2.25l-2.21-.11.82-.9h-4.43l-1,.95c-1.52-.86-1.62-3.13-3.71-3.53.48-2.56-2.7-3.4-2.82-5.89h2.2l.18,1.62,2.08-.33,1.52,1.2c.26-1.37.36-2.64,1.88-2.75-1.25-1.33.44-2,.47-3.23-.64-1.13-.64-1.13.88-2.41l1.72,2.34.91-.55,2,1.35,1-2.82,1.32-.56a2.9,2.9,0,0,0,1.6.75l-1.3-1.57-2.5.5-1.9-.67c-.6-1.38-3.16-1.27-3.25-3.54,1.08-.34,2.13-1.55,3.7-1.29l1.52,1.84c1.31-.43,2.47-1.29,3.63-.16,0,0,.21,0,.27,0,.92.68,1.41-1.13,2.52-.35.64.46,1.71.3,3,.47-.32-.7-.47-1.07-.65-1.41-.29-.53-.61-1-1-1.65l2.89-2.07c2.64-.08,2.64-.08,4.79,2a5.59,5.59,0,0,0-4.17,2.62l2.41-.61,3.62,1.41-.85-2.41,1.13-.4-.54-.86.68-1.36-2.32-1.57h-3.75a1,1,0,0,1,.64-1.59c1.08-.19,2.33-.34,2.7,1.26l2.18-.7a2.58,2.58,0,0,0,2.79.2,2.36,2.36,0,0,1,2.84.37l.79-.59,1,.88-.65-1.8.63-1.26h-2.22l-.48,1c-1.09,0-1.31-.81-1.61-1.68h-2.42l-.4-1.06c-1.94-.38-4,.35-5.87-.53-.58,1,.4.9,1.16,1.32l-1.44.5s-.53-.14-1.09-.26c-.78-.17-1.56.18-2.4-.39-.46-.32-1.47.14-2.37.27a2.64,2.64,0,0,1-1.36-2.63l-2.46,1.39-1.2-3.16-1.42,1.56-2.15-.51v1.57l2-.48.16,1.81-2.3,2.3c-1.3.31-1.8-1.8-3.21-1.21-.62-1.28.31-1.8.94-2.47v-1.59l3.4-3.73h3.12l1-2.81h1.47V139l-1.27.75c1.41.66,1.61-.64,2.52-.91,1.15.7,2,2.22,3.66,2.3s3,0,4.56,0l.34,1c1.06-.65,2.24-.34,3.53-.43.8-.91,2-1.57,2.16-3.18.06-.57,1-1.06,1.75-1.8l-4.16-1.33a3.78,3.78,0,0,0,.3,1.26,17.61,17.61,0,0,0,1.58,1.61l-2,.09-3,2.31c-.55-.23-1-.44-1.51-.64s-1-.36-1.35-.5c0-2.38,2.65-2.5,3.4-4.58a8.71,8.71,0,0,0-2.16,1.16,1.94,1.94,0,0,1-2,.49,9.46,9.46,0,0,1-2-1.08c0-1.59,1.47-1.81,2.28-2.7,1.74-.75,3.43.72,5.37.38l-.72-1.6h-1.78l-1-1.44c-.87-1.19-2.52-.4-3.6-1.37-.19-.17-.87.06-1.25.25a2.1,2.1,0,0,1-2.52-.2l-2,1.07c-.22-.1-.45-.12-.53-.24-.47-.65-.91-1.32-1.44-2.1l-1.9.42-1-.65-.51,1.54.49.88-2.45-.59v-1.9c.65-1.15,2.76-1.53,2.81-3.54l5.58,1.24,1.6-1.39,2.7,1.82.45-.94-.38-2.88c-2,.84-4,1.45-5.72-.65l-3.84,1.82.71-1.44L138,122l-1.28-1.57.56-1.24h-1.67l-.32,1H132.8l-.28,1.7h-1.45V118.7a2.76,2.76,0,0,0,2.83-2.38c1.93-.07,3.74.65,5.77,1.15l1.6-2.34.48,1.54c1-.75,1.18-1,1-1.41a15.88,15.88,0,0,0-.73-1.67l-3.51.63L137,116.37l-.48-1.83-.63.31c.43-.74.71-1.93,1.32-2.14,1.75-.58,1.79-2.33,3.11-3.39l-2.39-.73-1.58.82c-1.32-.86-3.25,0-4.45-1.49l-2.13,1.13c-1.29-1.7-2.74.18-4.05-.06l-1.5-2-3.24.5c-.43.37-.26,1.74-1.87,1.46,0-.65.05-1.37,0-2.08a15.11,15.11,0,0,0-.45-1.91l1.87.73,1.69-2.38a29,29,0,0,0,2.89.61,24.77,24.77,0,0,0,2.75,0c.83-.7,1-2,2.46-2.08l.52.73,4.53.64.23-1.5,1.07-.06c.13,0,.28.06.28.09.18,1.52,1.52,1.55,2.54,1.94.49.19,1.21.41,1.57.19,1.39-.85,2.87-.38,4.35-.55l.38,1.08h2.28l2.41-1.64c2.55.56,4.1-1.22,5.72-3,1.44,1.51,3.5,0,5,1.28l.74-.84-3.32-1V98c1.64-1.06,3.12.62,4.91.24L165.27,96l1.44,2.78h1.58l-.85-2.28,3.75.74,1.2-2,.43,1.23h2.74l1.32-1.72L178,97.21a6.55,6.55,0,0,0,.83-1.32c.3-.93-.65-1.23-1.08-1.92l1-.89L181,94.63l.39,2.5-.94.61c.52,1.07,2.11.42,3.15-1.13,1.24-.16,2.58.31,3.73-.63l-.08.08.39.46.18-.18a3.24,3.24,0,0,0-.49-.36c.15-.83.32-1.69.49-2.54-.6.28-1.12-.14-1.68-.23a13.72,13.72,0,0,0-2,0l-2-2.8h-2.39l-1-2a3,3,0,0,1,1-.23c.59.12,1.2.57,1.74.49a16.51,16.51,0,0,0,2.82-.93,2.86,2.86,0,0,1,1.94,2.54c0,.43.58,1.2.88,1.2,1.58,0,2.66,1.63,4.34,1.23.21-.05.55.43.86.69,0,.79.4,1.63-.4,2.29l.83,1.55.36-1,3,1.5,2.64-1.92-.56-2c.77,0,1.67-.4,2.29.39L204,93l2.37,3.48a4,4,0,0,1,1.18.32,6.85,6.85,0,0,1,1.22,1.07l1.85-2.42h1.79l.92,1.54a11.64,11.64,0,0,0,2-.53c.78-.36.91-1.11.72-2h-1.84a7.91,7.91,0,0,0-.85-2,4.76,4.76,0,0,0-1.46-.88l-4.89.85-.75-2.07c-.35-1-1.38-.3-1.93-.78.32-1,1.37-.67,2-1.07.86-.57,1.35-.23,2.19,0a18.7,18.7,0,0,0,4.55.1l1.27-1.21,2.07.75,1.25-1.71h1l2.22-2.17.53,2.06h1.33l1-1,4.13,3.75.24-1.45,3.36-.94c-1,1.78-.79,3.22.33,4.31a10.83,10.83,0,0,0,3.9,2.11c1.26-1.2,2.33-2.81,4.51-2.77.07.26.16.5.2.76s.05.53.08.87l2.9-1L247,94.87v-1.2l1.59-1.4c1.16-.82,1.56.69,2.52,1l3.43-1.4,1.87,1.86,2.47-2.54,2.19,2.09,1.72-1.24c.9-.28,2.31.48,3.38-.57l3.57.92c.34.09.75.29,1,.19,3.07-1.2,6.25-.23,9.36-.52a4.37,4.37,0,0,1,1.24.35c1.1-.55,2.4-1.58,4.06-.42.44.31,1.28,0,1.73,0l3.56-2.56.56,1.34c.15,0,.65.22.82.07,1.06-1,2.69-.94,3.67-2.09a3.55,3.55,0,0,1,3-1.27l1.26,1.89-.72,1.31,1.73.26a2.87,2.87,0,0,1-.21,3.92c.81-.12,1.26-.06,1.4-.24.68-.84,1.27-1.75,1.87-2.61l2.16,1.12a10.24,10.24,0,0,1,1.48-.56,7.1,7.1,0,0,1,1.39,0l-.82-1.73-2,.44-1.25-2.19c1.12-1.29,2,.45,3.39,0l.48-.84.91-.15c.77-.15,1.37.36,2,.49s1.19-.57,2-.54c1.54.07,3,.18,3.68,2.3l1.14-2.26.89-.52c1.34,1.76,1.34,1.76,3.5,2.78a4.23,4.23,0,0,1,1.41-.53c.4,0,.69.71,1.27,0,.16-.18,1.28.61,1.59.4a2.23,2.23,0,0,1,1.75-.48,13,13,0,0,1,2.13.88c.29-.11.17-.32.09-.31a4.73,4.73,0,0,0-.79.24c.34.1.68.19.7.07-.7-.61-.7-.89-.7-1.25a12.1,12.1,0,0,0,2.83-.57c1.09-.5,1.75.68,2.8.41a12.69,12.69,0,0,1,3.09-.05L340.64,88l2,.71L343.74,87h1.71L347,85.63l1.12,1.71,1.53-1.53c.76.31,1.46.41,1.51.64.33,1.65,2.29,1.87,2.86,3.46l1.85-2.36c1.35-.66,1.82,2,3.34,1l.35-1h1.22l.63,1.32a8.42,8.42,0,0,1,1.66-.75,4.78,4.78,0,0,0,1.9-.44l-2.27-.28c1-2,1.09-2.06,3.48-2.7l1.71,1.72-.87,2.9,1.44-.72.77.58.82-.62,3.49,2.87c.74-.44,1.38-.76,2-1.16s1-.79,1.46-1.17c-.92-1.17-1.75-1.38-2.71-.47-.18-.91-1.32-1.6-.51-2.84,1.16.49,2.34,1,3.67.1.5-.34,1.42-.06,2.18-.06l1.76,3.89h3.51c-.21-.68-.22-1.38-.58-1.74a4.61,4.61,0,0,0-1.68-.65c.43-1.41.94-1.94,1.61-1.46a17.4,17.4,0,0,0,3.37,1.61c-.87,1.13-.15,3.11-2.16,2.92-.56,2,1.13,2.09,2.06,2.76a8.89,8.89,0,0,1,5-.56c1.8.17,3.7-.53,5.61.77L399.19,91l1.28-.21V88.64l-2.17-.79L399,87c.78,0,1.84.2,2.37-.21.93-.72,1.33.65,2.18.2s1.92.38,2.62-.42,1.28.78,2.08-.12c.38-.42,1.61-.07,2.68-.07l1.3-2,.37.44,2.32-.76.36,1.07h1.93l1.07-1.07,1.75,2.19.64-.58L422.45,87a2.06,2.06,0,0,0,.64-.34c.52-.58,1.06-1.06,1.93-.82l1,1.6h2.32l2.87-1.31.53,1.27c.68.6,1.32-.15,2.35-.56l1,1.84.37-.36.12,2,3.06,1.2.4-1.09h1.49v1.37l-1,.4.72,1.32-1.63.2-1.15-1.15H435.6A2.76,2.76,0,0,1,432.73,91c-.51-1.34-1.67-1.32-2.71-2l-.18,1.07,1,.35c.87,1.12-1.1,2-.18,3.29.5.69-1.15,2,.69,2.63.86-.12,1.91-.19,2.93-.43s2-.66,3.31-1.13l.46,1a24.81,24.81,0,0,0,3.11.4,7.64,7.64,0,0,0,2.69-.59l-2.3-.38a5.59,5.59,0,0,1,.86-1.34,16.91,16.91,0,0,1,2.09-1.26h2.66c.24,1.07,1.54,2,0,3.23h5.12l.18-2a8.28,8.28,0,0,1,3.43.35c.91.15,2-.55,3-.89l1.89,2.08c-.48,1.87,1.5,1.56,2.47,2.11l2.25-1.17.11.22L467.23,95l-2.07-1-1.7,2.12-2-1V94l1-.33c.47-.92.09-1.58-1-2.26L455.9,92l-.15-1.93-2.4-.93c1.91-1.44,3.89-.9,5.77-1,1.39,1.3,2.7.16,3.93-.27a2.57,2.57,0,0,1,2.69.21c.47-.6,1.33-1,1.42-2l3.07-.87.38,1.09c1.13.6,1.69-.25,2.34-.93.49.3,1.21.49,1.42.92a2.2,2.2,0,0,0,1.46,1.37c.48.14.76.92,1.12,1.4l1.8-2c2,.2,2.18.53,1.29,2.57l2.38,3h1.46l2.7,2.42.49-1c1.63-.43,2.93-.68,4.17-1.12a13.45,13.45,0,0,0,2.27-1.41h2.22l.18.88,2.07-.5.21-1.41c.7-.5,1.45-1,2.15-1.55a1.26,1.26,0,0,1,1.93.21,1.21,1.21,0,0,1,.09,1.73c-.64.87-1.29,1.73-1.94,2.62l1.91.95.38-1.06,2.41-.82,1.29,1.67c-.09,0,.09.07.25.05,1.43-.18,2.94.47,4.3-.52.23-.17.83.16,1.26.27.25.07.63.31.72.23.52-.48,1.37-.88,1.7-.49.7.81,1.07,0,1.56-.07,1.19-.15,2,.54,3,1l1.21-1.59c.36.13.64.15.67.25.63,2,2.16,2.13,4,2.06V94a31,31,0,0,1,3.46-1.34c1.38-.36,2.82-.49,4.09-.7l1.84,1.65.4-2-2.43-.25.72-1.94,2.53-1.2,2,1.19-.9,4.2,1.15-1c1.05,0,1.26.83,1.53,1.58l2.45-.87,1.55.89,2.08-1.88c-1.75-.45-1.75-.45-2.91-2.36,1.3-.34,2.59,0,3.79-.2a24.28,24.28,0,0,0,3.28-1.12,28.57,28.57,0,0,0,2.46,3.73c.79,1.15,2.67,1.3,2.48,3.14l1.67-2.28h2.26l-.62,3.21h1.76L559,94.57l1.07-1,1.73,1.34c1.31-1,2.84-.71,4.25-.56s2.81-.76,4.31-.65l-.08.08.39.46.18-.18a3.35,3.35,0,0,0-.49-.36c0-.44,0-.91,0-1.44l-2-1.5c2.19-.79,4-1.48,6.12-.62a9.57,9.57,0,0,0,2.9.25l1.14-1.14h2.28l1.58-1.89.21.31,2.2-.8.42,1.29,3-1.1c.51.64,1,1.83,1.74,2,1.09.32,1.09,1.3,1.83,2.16l1.41-2.52H595v3.82l4.54,2.12.1,1.81,2.15-1.11V93.53a4.6,4.6,0,0,1,4.39-1.42l1.47-1.89c.66.81,1.69.89,1.82,2a8.6,8.6,0,0,1,5.88-1.76c.73.09,1.51.65,2.31.46,1-.23,1.83.56,3,.11s2.41-.09,3.63-.09h6.64l1.16-1.16a3.6,3.6,0,0,0,.26.69c.19.3.46.83.66.82,1.55-.15,2.93,1.6,4.6.37.38-.27,1.07-.14,1.62-.14,2.63,0,5.26,0,8,0l1.46-1.32,1,.91c-.23,1.26-1.45.75-2.07,1.16v1.66a8.27,8.27,0,0,1,1.24-.62,8.61,8.61,0,0,1,1.31-.18l.63-1.52a7.1,7.1,0,0,1,1.2,1.74c.11.41-.22.93-.4,1.55a8.8,8.8,0,0,1,1.63,0,5.49,5.49,0,0,1,1.27.64l.95-1.66c2.68,1.27,5.24-.7,7.91-.16l-.08.08.39.46.18-.18a3.35,3.35,0,0,0-.49-.36c-.23-.36-.43-.74-.7-1.27a7,7,0,0,1,1-.93,5.64,5.64,0,0,1,1.1-.47l2.24.8L664.47,94c1.87-.22,3.51-1.3,5.44-.74L671,91.64a8.86,8.86,0,0,0,1.44-.48,9.4,9.4,0,0,0,1.37-1l.38,1.14c.75-.12,1.67-.55,2.19-.26s1.58.12,1.75,1.31c.1.71,1,.95,2.72,1.42l3-1.91c1.67,1.8,3.39-.07,5.19.25l1.26,1.19,1.1-.65c.25.37.5.74.77,1.13l-.08-.09-.46.39.18.18a3.2,3.2,0,0,0,.36-.49c.58,0,1.19.1,2.18.21.57-.86,1.92-1.24,3.1-1.92a11.26,11.26,0,0,1,4.3-1.82,4.37,4.37,0,0,1,.93,1.4c.39,1.61,1.68,2.34,2.92,3.31,1.23-.38,1.67-2.32,3.58-1.73l-.66-1.85,2.74.72,2.45-1.26c.44-.15,1.48.46,2.43-.38a1.86,1.86,0,0,1,2.06.26,12.46,12.46,0,0,0,2.52,1.23c1.18-1.16,2.44-2.57,4.33-2.76l1.16,1.94.89-1.32h1.95c.45,1.24,1.91,1.5,2.54,2.56a2.6,2.6,0,0,1,.15.84L733.6,91c1.63-.51,3.2.48,5.09,1.12l.78-1.8.85,1.73c1.22,0,1.48-1.29,2.18-1.62l3.35.63,1.38-1.65,3.26-.84.66,1.31,2.14-1.1,4.7,2.31,1.72-1.39,2.54.54c1.29-.52,2.19-2.36,4.12-2.15.09.26.14.43.2.59s.15.31.2.42c1.17.51,1.67-.44,2.47-1.14a10.25,10.25,0,0,0,1.51,2.24,11.09,11.09,0,0,0,2.58,1.23l1.53-1.62h1.19v3l1.5,1.5h1.2l.34-1h1.74l-.75,1.55A2.82,2.82,0,0,0,782.17,97l1.65-1,.76.76-1.43,1.9.61,1.24.65-.59.38,1.07,3.73-.7c1-.53,2-2,3.69-2.07l1.06,1.83,2.11-2.1,1.52,2,1.71.08.22,1.5L801,98.76l.11-.89a10.64,10.64,0,0,1,4.09-.81c1.49.08,3,0,4.65,0l.87-1.09,2.73.19,4.17-3.26.48,1.84c1.27.71,1.73-.67,2.77-1.18l1.76,2.34,1.39.15.3,2,1.94-3.35,1.79.73v3.19l2.45,1.81c2.22.31,4.5-.47,6.61.78v2.13l2.22.8c.09,1.53-1.32,1.89-2.12,2.71-.06,2,.21,2.6,2.16,4.65l3.24.89c.57,1.45-1.5,2.83.21,4.23l-2.84,2.13.58,2.46-1.21.26a7.82,7.82,0,0,1,0,1.52,4.75,4.75,0,0,1-.56,1.16l.83,1.7.61-.53,2.55,3.28v1.75l2.11.91,1.24,1.85v1.46l1.16,1.22v3.92l.81.81,1.45,5.07-.77-.35-2.1,2.12-1.06-.68-2.4,1.37c.26,1.41.49,2.79.79,4.16a3.08,3.08,0,0,0,.57.89l.45-.3-.47-1.33,2.45-.82,1,1.75.33-.35V154l-1.48.17-.22.92,1.41.17a1.18,1.18,0,0,1,.36.27c.29.44.46,1.19.84,1.3,1.95.59,1.81,2.2,2.11,3.84l1,1v3.38l-.75.75-2.35-.91-1.23.57a1.18,1.18,0,0,0-.17.42c0,.75,0,1.5,0,2.25-.07,1.7-.91,2.61-3,3.06l.75,5.31,1.77,1.38-.74.74,3.33,2.73c-1.41,1.3.39,2.68,0,4.31a3.74,3.74,0,0,0-3.24.82,23.32,23.32,0,0,0-2.27,3v1.42l2.19,1.9c.41,1.33-.7,1.72-1.67,2.17-.14,1.67,2.08,1.08,2.29,2.68l-.69.78L845,196.84c-2.88,1.22-5.62.31-8.23.75-1.13.19-2,.62-3.25,0-.6-.3-1.66.31-2.47.5a8.36,8.36,0,0,1-.46,2.18,1.57,1.57,0,0,0,0,1.76,1.88,1.88,0,0,1-.41,2.67l-1.71-.55-1.83,2.24,1.57.34L827,209.2l-1.55-2-.85,1.71c.75,1.39,3.11,1.26,2.86,3.51a11,11,0,0,0-1.4.93,9.58,9.58,0,0,0-1,1.29l2.76.89-.89,2.11-.88-2.06c-.92,0-1.59-.21-2,0-1.47.93-3.06.52-4.58.48s-3.12.51-4.62-.4c-.34-.2-1,0-1.5.21-1.17.43-2.54,0-3.62.8-.78-1.06-1.93-.29-3-.68-.5-.46-.95-1.28-2.16-1l-1.55,1.87a17,17,0,0,1-1.67-2.41c-.34-.74-1.84-.24-1.46-1.76,1.79.16,3.36,1.72,5,.82l1.39-.6-.85-1.11c1-.55.14-2.31,1.66-2.52v.93l2.35.94-.92-1.87h-1.43c-.66-2.49-.7-2.54-4.17-4.42l-3.11,1.64c.11.25.15.39.21.51s.14.26.27.5H799c-.61,1.24-1.16,2.14-2.69,2.46-1,.21-1.79,1.52-2.74,2.39v3.12c-1.34.12-1.63-1.17-2.63-1.61l-.76.93c.3,1.69,2,1.11,2.94,1.82s1.86,1.32,2.77,2c-.16,1.07-1.49,2.07.31,3l3.45.54.72-1c.78.18,1.67-.39,2.39.38a.77.77,0,0,0,.73.13c1.25-1.08,2.68-.22,3.6-.46l2,1.64.56-.56.6,1.29c1-.58,1.51-1.91,2.87-1.86s2.44,0,3.83,0l2.93-2.16,1.56,1.56c1.64-1.41,3.83-.92,5.66-1.75l1,2.14a4.08,4.08,0,0,0,1.4.74,6.65,6.65,0,0,0,2-.45c.33.2,1.34.51,1.39.93.16,1.34,1.36.25,1.71.91.2.39.6.77.6,1.15,0,2.09,1.48,3.05,2.92,4.05a8.6,8.6,0,0,0,1.22.62c.55-.51,1-1.25,1.66-1.48,1.39-.48,2.87-1.32,4.26,0,2.95-1.32,2.95-1.32,4.07-3.1l1.51,1.92c1.83.43,3.33-.54,4.8-2l2.42,3.11h1.27v3.3h-1.42l-.28-1.72-2.29.64-1-.68-1.6,1.81c-.25,0-.95-.08-1.63-.18-.33,0-.8-.4-.94-.29-1,.83-1.89.39-3,0a3.64,3.64,0,0,0-2.74.66,2.6,2.6,0,0,1-2.62.29c-1.61-1.12-2.69-.19-3.93.51a3.29,3.29,0,0,1-.76.21l-1,2.15h-1.91L833,233h-1.54v-2.26c-.65,0-1.19-.07-1.5.14-.49.33-.84.74-1.39.14-.06-.07-.12-.17-.2-.19-1-.35-5.45.59-7.12,1.07l-2.55-1.26-1-1.61h-3.09c0-.12,0-.24,0-.37l2.33-.22a5.38,5.38,0,0,0,.36-1.57,7.85,7.85,0,0,0-.56-1.77l.08.08.46-.39-.18-.18a3,3,0,0,0-.36.49c-.72.26-1.47.49-2.57.84l2.36,1.74c-1.58.33-2.78.6-4,.8-.17,0-.4-.35-.63-.57l-3.17,1.17c-.69-.48-.54-2.05-2.51-1.44l2.19.77-1.94,1c-.69-.12-1.6-.57-2-.29-1.67,1.23-2.81-.13-4.09-.64l-2.73,1.37,2,3.61,2.54.53c.35-.52,1.55-.05,2.12-1h.85l.79-1.41,1.32,1.83,3.78-.56c-.43,1-.87,1.72-.13,2.61.49.58.54,1.44,1.61,1.52.56,0,1.08.56,1.71.91l.47-.93-1.31-1.51-.58.5-1.23-1,.85-2.57c1.58-.08,1.23,2.09,2.36,2.2,1.53.15,1.08,1.85,2.35,2.34,1.69-1.43,3.89-1.1,6-1.17a23.08,23.08,0,0,0,2.92-.47l.35,1a4.55,4.55,0,0,0,3.77-1.08l2-.63.45,1.37,4.71-.58.23,1.3,2.74,1.35a10,10,0,0,0,0,1.59c0,.24.35.45,1.24,1,.29-.11.18-.32.09-.31a4.55,4.55,0,0,0-.79.24c.34.1.68.19.7.07a3.06,3.06,0,0,1-.72-1.92c0-.24-.35-.45-.54-.67v-.82c1.24-1,2.7-.88,4.14-.88,2.28,0,2.26,0,4.45-2.06.27-.25.85-.17,1.34-.25l.39,1.11h3l2.32-1.57,2.05,2.73.76-.58,1,2.29c1.36,0,1.91-1.15,2.56-2.06,3.15-1,4.26,1.58,5.63,3l4.34.63v2.82l-2.14,1.44,1.29,1.5-1.06,1.24c-.29-.13-.61-.18-.75-.36-.66-.85-1.27-1.74-1.85-2.55h-3.86l-1.5-1.58-.5.5-2.3-1.09-.35-1.78a9.92,9.92,0,0,0-1,0l.08-.08-.39-.46-.18.18a3.22,3.22,0,0,0,.49.36c.28.62,1.08,1.41.51,1.92-.84.75.32,1.06,0,1.82l-1.67,1.68,1.9,1.68-3.81,3.81a8.77,8.77,0,0,1,1.76,1,5.11,5.11,0,0,1,1,1.54,2.9,2.9,0,0,0,3.18,1.76c.28,0,.56,0,.85,0l1.55,2.65-2,1.63c2,2.88-1.32,3.55-1.52,5.41l2.93,3.76c2.2.1,2.2.1,3.37,1.11-1.43,1.43-.24,3.4-1.13,5.14s.49,3.53.5,5.35c-.87.47-1.77.73-1.77,2.08,0,1.56.09,5,.64,6.34a2.66,2.66,0,0,0,.68.79l3.73-.54v3.87l-1.06,1.06v2.92c-.73.5-1.42.91-2.05,1.41s-1.4,1.21-2.34,2l2.15,1.65c.3,1.28-.8,1.78-1.64,2.55-1.38-.86-1-2.38-1.43-3.77l-1.37,1c-.32,1.44.43,2.89-.57,4.07l1,1.67c.83.66,1.76,0,2.47.69a10.75,10.75,0,0,0,2,1.36c.33,1.94-.33,3.45-.69,5a39.81,39.81,0,0,0-.51,5l-1,.66v1.79c-.7,1.49-2.22,1.59-3.33,2.12,0,1-.39,1.87.43,2.51-.91.63-2,1-2.22,2.19l-3.81,2.07v3.86l-2,.12-1.77-2.05-3.2,3.2-3-.61-.65,1.31c-1.32-1.25-3.36-1.26-4.27-2.82l-1.75.49-1.31-1.25c-1.8.22-3.61-.23-5.44.5-.8.32-2-.41-3.18-.69l-.89-.89h-2.25l-1.21,1.13a24.78,24.78,0,0,0-1.6-2.2,19,19,0,0,0-2-1.67h-1.49l-.33,1a7.06,7.06,0,0,1-4.82-1.06,5.89,5.89,0,0,0-2.95,2.16,24.05,24.05,0,0,1-2.3,2.79l.93,1.89,1.72-3.15c.54,0,1.14-1.72,2.19-.34,1-1.36,1.67.31,2.5.26V334h-2.49a6.35,6.35,0,0,0-.81,3.77c1.11.75,1.67,2.17,3.14,2.59.29.08.49.71.59,1.12a2,2,0,0,0,1.23,1.33l-.57,2.81a6.18,6.18,0,0,1,1.89.7c.67.58,1.12-.79,1.84,0,.32.34,1.24.07,1.88.15s1.39.57,1.63.35c.82-.72,1.17.6,1.92.25a4.09,4.09,0,0,1,1.74,0l2.3,1.21,1.56-1.4,1.15,1c-.33.3-.62.8-.94.81-.9,0-1.63.19-2,1.4l1.76,1.36c0,.14.14.78-.1,1-1,.86-2.11,1.6-3.2,2.4a29.86,29.86,0,0,0,2.58,4.06c.62.73,1.8,1,3.06,1.61.6,1-1.1,1.46-1.35,2.81a4.52,4.52,0,0,1,2.75-.43c1.14,1,1,2,.13,3.21h-2.6l-.43-1.26-2.51,1.65c.49,1.25-.92,1.67-1.16,2.63a16.79,16.79,0,0,1-.82,2.13l-.81.18v1.39l2.51,3.38-.35,3.15c1.11,1.62,2.59.66,3.89,1.07a5.37,5.37,0,0,1-1.22,5c-.37.39-.34,1.17-.58,2.08l-1.85,2.35-.53-1.33-.32,1.87-1.54.24v1.37l1,.39a1.62,1.62,0,0,1-.91,2.1l-3.73-.89,1.3-1.81c-1.43-.6-2.28.75-3.63,1L819,389.87l-1.54.72v2l1.58,1-2.26,1.62a6.93,6.93,0,0,0,1.68.28c1.45-.25,2.89-.57,4.4-.88v2.49c1.14.47,2.28.9,3.38,1.41s1.09,2,2.3,2.25l-2.73,4.92a6.93,6.93,0,0,1-1,4c-.63,1.25-1.34,2.45-2.08,3.79h-2.93l.35,2.62a4.78,4.78,0,0,0-2.76,2.11c-.2.37-.83.5-1.65.95a5.72,5.72,0,0,1,1.35.65,3,3,0,0,1,.43,1c1.65.4,2.63-.78,3.95-2.09l.67,1.45c2.24.09,2.24.09,5.56-1.5l1.34.75c-.15,1.78,1.52,2.38,2.89,3.26v2a7.15,7.15,0,0,1-.74.13c-1.1.09-1.29-.77-1.61-1.63h-2.32L826.09,422l-1,2.76c-1.45.33-2.8-1.54-4.18.15l-2.58-1.32.68,2.54-.47.7,1.64,5.6-2.09,2.08.26.23-2.76,1,3,1.18.71,3.58.88.88v3.86c.08.11.13.25.17.25,1-.05,1.23.85,1.31,1.38.36,2.31,1.2,4.59.66,7.24-.52-.12-1.07-.29-1.64-.38s-1.39-.15-2.4-.26l1.35,1.53c.1,1.33-1.15,2.33-.2,3.73l1.31-1.26a8.11,8.11,0,0,0,2,0,6.45,6.45,0,0,0,2.13-1c.67-.44,1.18.47,1.33.31.84-.88,1.61.75,2.37,0s2-.23,2.93-.42,1.89.39,2.58-.57a11.75,11.75,0,0,0,4.29-.53c.36-.1.83.17,1.46.32l2-1.68c1.14,1.89-.49,2.23-1.62,3l2.74,2.07c-.7,1.35-2,2.06-2.91,3.36a8.11,8.11,0,0,0,1.89,1.46c.69.3,1,1.41,1.47,2.1h2.92l1.54,1.32,2.33-2c.61,1.75.61,1.75-1.15,2.65v1.4h2.09c0,.52.09,1,.16,1.64L848.71,473c.57,2.37,2.68,3.24,3.86,4.94l3.11-.8c0,.69.21,1.38,0,1.72-1.12,1.52-.22,2.64.6,3.87l-.91.32,2.55,5v2.26l1.46,1.61c1.23-1.34,1.86.12,2.79.37,1.2.32,2,.7,2.28,2l.94-2.75,1.38-.59c1,.32.79,1.3.79,2.27,1.34,1.79,3,3.09,5.46,2.62.24,1.44,1.48,1.41,2.34,1.9-.55,1.08-1,2.15.26,3.06l1.82-.57c1.39,2.18,3.25,4,3.71,6.68a5.48,5.48,0,0,0,1.44,3c.86.77.6,1.84,1.26,2.65s-.31,1.5-.93,2.05c.65,1.12,1.36,2.19,1.91,3.35a2.07,2.07,0,0,1-.15,2.31c-.2.26.07.89.14,1.4l-.85.34v1.12c1.72,1.87,1.72,1.87,3.21,2.19,1.45,1.25,1,3.73,3,4.58,0,2.37,0,2.37-.62,3.66l.88,1.79H891l.87,3.58a5.61,5.61,0,0,1-3.09.43l-1.68,1.46c1.75,2.06,0,4.07.21,6.32l3.3,1.55c0,.6.38,1.45-.56,2.19l1.18.85v1.49l-1.8.34c.23.38.35.8.62.94a10.25,10.25,0,0,0,1.7.53v2.47L893,559a17.08,17.08,0,0,0-2.92,2.15,18.05,18.05,0,0,0-1.87,3.16c2.24.71,2.24.71,3,4-.85.43-2.13.69-1.62,2.4l2,.21.94,1.48a7.09,7.09,0,0,1-2.35,0,2.53,2.53,0,0,0-2.74.13,3.44,3.44,0,0,1-3.38.44c-.37,1.21-.44,2.09.49,2.92,1.15,1,1,2.43.91,3.91l-1.6,1c-.22,1.12.26,2.42-.55,3.62-.22.33.27,1.13.52,2l-3.49,2.79,1.14.85v2.61l.86.27c1,2.75.86,2,3.68,2.88.08,1.39-.18,3,1.38,4.29l-3.29,1.33-2.55,4.52c.15.92,1,.93,2,1.13.7.15,1.27.91,2,1.46.11,1.5-2,1-2.32,2.5l1,1.15,1.09-.6c.45,0,.7.77.51,2.33l-2-1.34a15.11,15.11,0,0,0-3.49,1.21c-1.34.87-2.7.32-4,.51-1.16.17-2.31,1.35-3.38.12a10.28,10.28,0,0,0-2.39,1.13,12.38,12.38,0,0,0-1.72,2.33l-3.35-1.38L862.7,620l-2.36-.71-.31,2c-1.26-1.1-3.15-.23-4.1-2-.68.17-1.36.37-2,.51a1.51,1.51,0,0,1-.95-.06,3.94,3.94,0,0,0-3.21-.21,19.49,19.49,0,0,1-6.62,1c-.08,0-.15-.08-.45-.25l1.37-1c.81-.67-.32-2.28,1.69-2.63l.68.43,2.66-.6-1.71-1.71c-1.4-1.28-3.15,1.11-4.88-.33l-4,2,2.35,1.73.57-.57.94,3.55c-2.27-.37-3-2.15-4.79-3.47h-1.38l.45,2.77h-4.43l-.28,1,2.26.24.93,1.53a6.74,6.74,0,0,1-1.33.06,11.83,11.83,0,0,0-2.31-.5,7.16,7.16,0,0,0-2.06.74,7.34,7.34,0,0,1,.33,1.15,9.79,9.79,0,0,1,0,1.4l-1.41.07-2.44-2.8c-.06,1-.09,1.41-.12,1.91-.93.44-2.07.8-1.61,2.25l-1.43.73-1.57-.59-2,2-.21-1c-.85-.65-1.49-.16-2,.46l1.35,2.65,2.08.18-.86,1.75a4.09,4.09,0,0,0,3.34,1.52v2.29l1.31,1.53c-.11.28-.13.51-.25.59-1,.61-2,1.18-3,1.83l-.81,4.4,3,2.59-1.7,1.14v2.11l1.91-.75.95,1.13-.86,1.18-1.5-1.26c-1.13,1.24-3.3.92-4.08,2.79-1.87-.16-2.11,1.67-3.35,2.83l.65,4.17c-.86-.22-1.62.24-2.4-.44s-1.63.39-2.44.45l-1.41,2.74c-.88-.09-1.78.35-2.66-.67l-.22,2.43-5.82-1.72L799,665.62l-.59-.52-.78.78,3.23,1.87-2.26,1.75.68,1.81,1.22-.73,1.27,1.4c-.42.21-.66.44-.84.4-.68-.14-1.35-.36-2.07-.57-2.91,1.29-6.24,2-8,5.78v3.89a11.25,11.25,0,0,1-1.82-.44,13.27,13.27,0,0,1-1.71-1.09l-3,3.72L782,683l-.29,1.83c-2.16.16-3.6-1.28-5.22-2.15l-1.7.91-1.63-.84c-1.15.32-2.3.68-3.48,1a23.13,23.13,0,0,1-3.15.55c-1,.09-2.07,0-3.1,0s-2.26.05-3.38,0c-.88-.05-1.73.69-2.66.05-.18-.12-.65.17-1,.28l-2.69,1a5.35,5.35,0,0,0-3.5,2.68v1.44c-.93.26-1.85.58-2.79.76a35.45,35.45,0,0,1-4,.56c-1.31.09-2.64-.08-3.94.05a11.19,11.19,0,0,0-2.76.8,4,4,0,0,1-3.09.33c-.3-.12-.8.25-1.19.4l-2.55-1-1.75,1.57L725,691.33l-.3,1.87c-1.2.43-1.44-1.22-2.61-1.16-.68,0-1.42-1-2.08-1.47l-1.56.83c-1.7-.38-3.35-1.23-5.15-.92s-3.41.86-5.39,1.37l.61,2.81c-1.84.3-1.86.28-2.88-1.59L703,691.82l-.94,1.43h-1.72l-1.46,1.31-1-.71a7.92,7.92,0,0,0-6,4l-1-1.87-5.35,3-2.71-3.1-.33.44a4.64,4.64,0,0,0-3.56-.76l.34-2.17c-.61-.43-.87,0-.94,1h-2.17V697l-.94.86-2.66-2.66-.46,1.34c-.56.41-1.53-.21-1.93.76a13.69,13.69,0,0,1-1,1.73l-1.8-.7-.28.41,1.45.75-1,1.06-.74-.35-.84,2.93L663.88,702v-2.61c-1.24.26-2.44-.38-3.53.5a.77.77,0,0,1-.73,0c-1.08-.92-2.33-.37-3.49-.43a7.8,7.8,0,0,0-3.47.43c-.74.3-1.92,1-2.49.59-1.47-1-3.57.09-4.6-1.75-1.18.34-1.95,2.37-3.3.76l-1.47,1.94-1.24-1.91c-1.54.75-3.52.37-4.57,2.2-1.71-1.2-3-2.76-4.69-3.91-1.11,1.39-2.13-1-3.24,0-2.13,2.72-4.88,2.63-7.79,1.54-.62.67-.62,1.94-1.84,1.76a17,17,0,0,1-2.31-.68l-.39,1.12c-1.36.86-1.87-.74-2.83-1.05s-1.51-1.17-2.59-2.07c.86,2.33,1.44,4.18,1,4.94-.83,1.41-.31,2.88-.56,4.29l-.8.8h-1.87l-.15,1.4-1.94,1c-.3-.56-.77-1.06-.8-1.59-.08-1.45,1.21-1.29,2.1-1.54.84-1.5-1.26-2.84-.15-4.41.86-1.22-.33-2.94.81-4.32-.38-.21-.84-.46-1.3-.7s-1,.92-1.85.06c-.35-.38-1.44-.06-2.21-.06l-.91,1.86,1.7,1v2c-1.12,1.12-1.64,1.13-3.23,0a1.07,1.07,0,0,1-.07-.25c0-.47,0-.94,0-1.57l1.36-1.06-1.32-.45-.07-1.27-1.63-.93,1.8-.74-1.21-.45c0-.35-.05-.86-.08-1.31a10.56,10.56,0,0,1,6.22-.19l1.51-1.52-1.53-.8-1.31.73-1.37-2-3.85.72-.53-.49c-1.93-.14-1.84,2.49-3.8,2.38l1,1h2.26l.89.9-.84,1.92H593.5l-1.3,2.9c-2-.45-4,.59-5.9-.62-.14-.09-.48.14-.74.21-.42.12-.91.41-1.26.3a8.1,8.1,0,0,0-5.81.56c-.16.07-.46.11-.53,0-1-1.12-2.32-.27-3.28-.56l-1.84-1-2.06,1.08-3.63-3.37c-.17,1.58-.59,2.65-1.94,3.38l-2.53-.67-1.54-2.94-2,.55-.84-.64-2,2.42-1.45-1.84-3.12.84c-.17,1.12-.1,2.6-2.28,2.07-1.09-.3-.92-1.87-1.79-2.72a20.67,20.67,0,0,1-2-2.76c-1.54-.24-3.34.43-5.1-.82l-.23,1.64a5.85,5.85,0,0,1,1.1.5c1.62,1.17,1.62,1.18,3.2-.22l1.08,1.27-1.55.8c-1.2-.68-2.57-.24-4.17-.44l-1.85-2.42,1.33-1.48-2.1-1.8-2.19,1.24a4.5,4.5,0,0,0-3.44,1l-2.29-1.54-1.61.87-2.52-.53-.4-1-1.17,1.35,4.71,2.3,1.49-1.26,3.1,1.94v1.17c-.22.07-.51.27-.7.19-.65-.26-1.26-.61-2.23-1.09h-1.27l-1.15,1.07-2.89-1.45c-.37.5-.47,1.67-1.64,1.46a6.69,6.69,0,0,1-1.72-.95c.88-1,2.64-1.08,1.83-2.92l-1.27-.07c-1.09,2-3.35,2.06-5.2,2.84-.82-.73-1.53,0-2.37.22V700h-2.15l-.93-1.47-2.28,1.15-1.51,2.07-2.26-1.2L504,701.73l-2.45-.8-2-2c-1.58.92-.52,2.54-1,3.82-1.88.52-2.24-1.24-3.24-2.41-.66,1.59-2.71,1.71-2.94,3.5-1.25.46-2-.43-3.1-.93l-1,1.63-3.85-1.85-1.1,1.46-2.49-1.23-1.18,1.8-3.9-2.93c-.54,0-1.39-.38-2,.37a9.17,9.17,0,0,0-1.82-1c-.31-.09-.76.45-1.15.45s-.78-.41-1.19-.47c-.87-.14-1.68.41-2.65,0a9.27,9.27,0,0,0-2.95-.06l-1.13-1.43c-1,1.49-3,.14-3.82,2.12l-4.51-.59-2.39,1.39-1.82-1.22-3.78.4-.92-1.38L444,702l-2.57-.84-1.73,1.71c-1.78.09-2.72-1-3.67-2,.05-1.63,1.67-1.13,2.66-2a18.92,18.92,0,0,1-2.29-1,4.76,4.76,0,0,0-2-1l.43.73c-.44,1.26-1.67.63-2.81,1l.59,2.25-1.43,2.1a7.56,7.56,0,0,1-3.7-2,3.05,3.05,0,0,0-2.44-.87c-2.06.11-4.13,0-6.28,0l-1.66,3.88-1.66.11-1.73-2.16a3.08,3.08,0,0,1-2.17,1.59l-1.05,1.71-2.13-.76-1.48,1.31a2,2,0,0,1-.67-.31c-.59-.63-1.17-1.21-2-.85l-.86-1.57a3.15,3.15,0,0,0-3,.52,2.91,2.91,0,0,0-3.05-1.79c-1.06.17-2.24-.46-3.18.48-.87-.9-2.08-.22-3.11-.63,0-.27,0-.53,0-.89h1.58c0-.71.09-1.33.14-2.15-.54-.32-1.61-.65-1.64-1-.09-1.33-1.18-.56-1.6-1a26.06,26.06,0,0,1-1.72-2,4.65,4.65,0,0,0-1.76,4.9l-5.2-4.05-1.17,1c.23.58.46,1.06.6,1.56.07.24,0,.53-.35,1l-.44-1.25-.32.31c0-.38,0-.75,0-1.13a2.16,2.16,0,0,0-2.28,0c-.74.5-1.41,1.1-2.17,1.57a8.26,8.26,0,0,1-1.59.56c-.59,1.08-.91,2.56-2.33,3.21l-3.07-.69-.93.93.54.59-.79.79c-1.41.24-2.94-.38-4.28.58-.2.14-.73,0-1-.18-1.42-.83-2.8-.09-4.2-.4l-.19.67-.67-1.3a28,28,0,0,1-4.3.63,27.23,27.23,0,0,1-4.19-.7l-.8-.82-3.16,1.91a2.73,2.73,0,0,0-1.39-3,6.6,6.6,0,0,1-2.29-1.91c1.25-1.11,1.81-.09,2.62.39s1.82.27,2.24,1.25c.5-.22,1-.41,1.41-.63s.77-.41,1.22-.64v-1.36h-2.85l.71.85c-1.46.37-1.74-1.07-2.81-1.51h-2.58l-1.18-1.11-.83.81.54.59-.81.81c-1.24-1.17-2.76-1.23-4.39-1.09a3.58,3.58,0,0,0-2.62,2.69l.74,2.54-3.6-.76v-2.16l-.39,0-.28,1.5c-1.76.06-2.27,1.84-3.6,2.93l-2.06-2.06-.66,2H319.5l-.34-1-1.29-.09-1.62-1.63h-2.33L313,700.6h-8.17l-1.27-1.89-.9,1.28h-3.16l.37-.51-1.33-1.32-1,1.47c-1.28-.63-2.07-1.4-2-2.87H293a4,4,0,0,1-3.14,1.06c-.66,0-1.76.57-1.9.37-.77-1.14-1,1.14-1.58-.08l-1.06,2.33-1.57.79c-1.39-.9-2.94-1.91-5.12-.17l.82-3.3c1,.09,2.34,1.51,3.16-.3-1.5-.75-3.33.43-4.67-.68l-1.54,1.5c-1.24-.78-2.5-.38-3.74-.51l.57,2.47-1.9,1.51-3.26-2.31c.44-1.61,1.87-.8,3.3-1.48-1.89.12-1.61-1.62-2.21-1.74-1.94.18-3.63-.11-4.74.56-1.57.95-2.76-1.28-4.11-.09l-2.87,2.2-1-1.52-4.17.65-.66,1L250,698c-.55-.64-.38-2.39-2.1-2.61l-.78-2.59,1.66-.26v-.8c-.18-.08-.45-.24-.49-.2-.85,1-2-.11-3,.51a8.25,8.25,0,0,1-2.54.56l-1.13-1.41a17.63,17.63,0,0,1-3.82-.92,4.31,4.31,0,0,0-3.64-.14,4.31,4.31,0,0,1-3.89-.3c-1.4.56-2.92.91-3.87,2.6L225,690.6c-.61.16-1.11.27-1.6.42s-1.31.58-1.39.47c-.55-.78-.88,0-1.3.07a14.4,14.4,0,0,1-1.61,0c-.8-2.45-2.05-3.13-4.33-4.55l-1.44,1.29-1.76-.64c-1.38,1.25-2.95.24-4.48-.33a4.58,4.58,0,0,0-2.62-.31c-.37.05-.79-.3-.94-.36-1.36.15-2.51.36-3.66.38-3.2,0-3.2,0-5.52,2.23l-.89-1.53a8.22,8.22,0,0,0-5.36.93c-1.17-.79-1.55-2.73-3.51-2.8v-2.68l1.5-.08.17,1.57a1.89,1.89,0,0,0,.74.12c.58-.15,1.15-.39,1.73-.6l.64,1.34c1.24-.7,1.15-2.13,2.12-3.14-1.44-.85-2.68-1.39-4.29-.63a7.86,7.86,0,0,1-2.44.3l-1.08-2.38-1.33.52-.68-1c-1.49,0-2.71,0-3.93,0a14,14,0,0,1-2.31-.49c-1-.12-2.07.33-3.21,0-.57-.16-1.4.58-2.37,1-1.73.19-4.18-.64-5.36,2.19h-1.26l-.44-1.21-5.48,2-2.6-2.6-1.09.75-.42-3.49.57-.47c1.24-.07,1.21,1,1.6,1.61,1.12.41,2.45-.5,3.47.65l.91-2.65-2.47-.3-1-1a2.65,2.65,0,0,0-.91.14,7.39,7.39,0,0,1-4.1,1c-2.43-.29-4.55.24-6.1,2.5l-1.82-1.52-5,1.9-4-4v-1l1.55-.1.22,1h2.15l2.22,1.62v-2.94a5.22,5.22,0,0,1,1-.8c1-.38,1.9,1.26,2.77.38,1.12-1.13,1.82.28,2.73.17a4.89,4.89,0,0,1,.57,0l.8-.81c0-.62.07-1.25.11-1.95h1.45l.38,1h4l1.05-1.67c2,.2,3.93-.27,6,.38l2.25-1.16-3-2.61-.89.8a11,11,0,0,0,0-1.84,7.73,7.73,0,0,0-.75-1.53l1.32-1,1.62,1.87h1.91c.63.38.3,1.89,1.62.89-.45-1.6-2.1-2.21-3.61-3.55-.6.1-1.79-.35-3.06.41a3.41,3.41,0,0,1-2.72-.06c-.62-.28-1.15-.57-1.75-.32-1,.4-1.87.93-3.08,1.54-1.12-.23-2.47-1.45-4-1a21.68,21.68,0,0,0-4.05,2.2l-1.34-1.15-5,2.24a8.31,8.31,0,0,0-4.11-2.86v-2.66h1.39l1.15,1.8,1.28-.81,2.21,1.15.19-2.59a2.83,2.83,0,0,1,.62-.6,1.57,1.57,0,0,1,1.75.23,1.74,1.74,0,0,0,1.47-.14,1.4,1.4,0,0,1,1.75.05c.88.69,1.52.17,2.12-.49a3.43,3.43,0,0,0-.8-2.82l-.38,1.66c-2.52-1-4.39,1.41-6.21-.49l-1.14,1.2c-.51-.26-1.38-.44-1.46-.8-.27-1.17-1-1.38-2-1.4-1.51,0-2.38-1.18-3.44-2.23h-1.76l-.58-1.5-.28,2.4-1.53.79a12.32,12.32,0,0,0-2.62,0c-.83.17-1.55.95-2.37,1s-.71,1.94-2.46.86l-.55-.79c-1.77.84-3.87.46-4.93,2.74-1.28-2.22-3.3-3.14-4.64-4.75v-1.32l1.53-.1,1.53,1.9,1.33-.68.54,1h2l-.68-1.57.75-1.73c.28,0,.71-.13,1,0a17.24,17.24,0,0,1,1.8,1.29l.67-1.35c.42.06,1,0,1.27.21a2.14,2.14,0,0,0,2.74-.15,11.45,11.45,0,0,1,2.66-1c.34-.11.89-.26,1.05-.09,1.34,1.32,2.57.07,3.69-.28a14.84,14.84,0,0,1,2-.29l2,1.39v-1.86l2.14-.13.48,1.26,2.1-.64,1.18.58,1.51-2.9,2.24,1.15c1.19-.55,1.19-.55,3.69,0a4.17,4.17,0,0,1,2.7-1.29,4.36,4.36,0,0,1,3,0c1.45.6,2.78-.33,3.82-1.47a8.08,8.08,0,0,1,1.35.58,7.93,7.93,0,0,1,1.08,1c1.36-.95,3-.53,4.64-.64l.18-2.25c1.47.14,1.93,1.19,2.41,2.23,2,.36,3.62-.62,5.37-1.28v-2.5l3.08-.84c.76,1.75,2.34,2.07,3.29,2.82l2.66-.66,2.36.06,2.68.24v-1.17h-2.52c-.94,0-2.08.32-2.76-.11-.92-.58-1.43.55-2.31,0a4.19,4.19,0,0,1-1.47-2.25c-.38-1.66-3.92-2.34-5.8-1.73-1,.31-1.33,1.42-2.59,1.36-.83,0-1.71.75-2.31,1-1.87,0-1.4-1.42-1.92-2.35l-1.17.57-.61-.54-2.1,2.85-1.14-1.72a12.43,12.43,0,0,0-1.81.65c-.62.34-1.16.83-1.75,1.22s-1.06.63-1.59.95c-1.17-1-2.63-.25-4-.55l-.86-1.9-3.48-1.46-1.3,1.2c-.85-.08-1.51-1.1-2.71-.24-.75.54-2.2,0-3.26.25a11.82,11.82,0,0,0-2.61,1.34l-.37,1.09-1.77-1.32-5.5,1.67c-1-1.12-2-2.59-3.73-3.06v-1.2c-.16-.09-.34-.28-.47-.25-1.09.28-2.18.59-3.41.93-1-.82-1.53-2.51-3.11-3.25-.44-.21-.48-1.24-.79-2.11l.73-.7a1.5,1.5,0,0,1,1.46,1.71h2.15l1.46,1.91,1-3.69,6.56,1.17.12-1.42c-2-.45-2-.45-2.27-2.12l3-2.39c-1.11-1.43-2.1-2.82-3.24-4.08a3.05,3.05,0,0,0-1.7-.61,15.17,15.17,0,0,0-2.18,0c.69-1.45,1.3-2.71,0-4.05l1.91-1.92c-1.63-2.42-1.87-2.59-4.3-3.07l-2.55-2.74c.29-.84,1.39-2-.4-2.88h-1.74l-2.37-4.75v-2.83l-2.12-5.71,3.12-2-.54-1.88,2.32-1.56-.85-1.74-1.76,1.31c-1.26.08-1.06-1.27-1.84-2l2.51-2.08-1.79-.64a1.73,1.73,0,0,0-2.3-1.42l-1-4-.74-.74v-3.65l1.51-.18.81-6.15,2.76-3.21c-.26-1.25-.53-2.64-.86-4-.24-1-1.25-1.35-1.86-1.73l-.72-5,1.43-.14c.08-.16.21-.31.22-.47.06-1.62-.31-3.32,1-4.67a3.86,3.86,0,0,1,0-3.47c.92-1.58.79-1.65.12-3.45.38-.19.76-.39,1.15-.58s.64-.27.93-.39l2.09-6.84,1.75.87.88-1.3-1.29-1.72,1.82-1.23v-1.19c.75-.49,1.46-1.32,2.23-1.37,1.14-.08,1.55-.91,2.35-1.52v-3.53c1.92-.45,2.4.93,3.07,2.22.23-1.12,1-1.56,1.88-2.06s.85-1.73,2.21-1.76l1.64.93,1.12-1.76a4.78,4.78,0,0,1,1.47.59c.47.39.88.73,1.4.65a12.13,12.13,0,0,0,1.47,1.43l.41-1.4C141,524.71,140.49,524.71,139.86,524.67ZM495.8,101.14l.11-.11-.39-.46-.18.18a.9.9,0,0,0,.56.27l-.11.11.39.46.18-.18A.9.9,0,0,0,495.8,101.14Zm-351.36,141,.11-.11-.39-.46-.18.18a.89.89,0,0,0,.56.28l-.11.11.39.46.18-.18A.9.9,0,0,0,144.44,242.14Zm-2.15-75-.11-.11-.46.39.18.18a.89.89,0,0,0,.27-.56l.11.11.46-.39-.18-.18A.9.9,0,0,0,142.29,167.12ZM378,694.9l-.11.11.39.46.18-.18a.89.89,0,0,0-.56-.27l.11-.11-.39-.46-.18.18A.9.9,0,0,0,378,694.9ZM159.1,198.15l.11-.11-.39-.46-.18.18a.89.89,0,0,0,.56.27l-.11.11.39.46.18-.18A.9.9,0,0,0,159.1,198.15ZM172.63,656l.11.11.46-.39-.18-.18a.88.88,0,0,0-.28.56l-.11-.11-.46.39.18.18A.9.9,0,0,0,172.63,656Zm677.91-40.61.11.11.46-.39-.18-.18a.89.89,0,0,0-.27.56l-.11-.11-.46.39.18.18A.89.89,0,0,0,850.54,615.39ZM121.42,601.28l-.11.11.39.46.18-.18a.9.9,0,0,0-.56-.27l.11-.11-.39-.46-.18.18A.9.9,0,0,0,121.42,601.28Zm737.13,10.15-.11.11.39.46.18-.18a1.66,1.66,0,0,0-.51-.33c0-.84-.7-.48-1.18-.5l.11-.11-.39-.46-.18.18a1.62,1.62,0,0,0,.51.33C857.42,611.77,858.07,611.41,858.55,611.43ZM156.84,233.11,157,233l-.39-.46-.18.18a7.81,7.81,0,0,0,1.88,1c-.38-.43-.5-.64-.58-.63a4.56,4.56,0,0,0-.79.24C157.24,233.41,157.58,233.51,156.84,233.11Zm24.87-87.48c-.43.09-1.08-.28-1.13.56a3,3,0,0,0-2.74-.4c-1.51.58-2.3.19-3.21-1.26-.76.19-1.51.36-2.25.58-.12,0-.17.28-.35.6l1.08,1.27a3.87,3.87,0,0,0-.36,1l-.11-.11-.46.39.18.18a1.58,1.58,0,0,0,.33-.51c.94.26,1.65-.46,2.51-.57,1.73-.21,3.47-.43,5.2-.67.08,0,.13-.29.19-.45.43-.08,1.08.28,1.07-.61l.11.11.46-.39-.18-.18A1.62,1.62,0,0,0,181.71,145.64ZM819,327.8c.43-.08,1.08.28,1.13-.56a5.27,5.27,0,0,0,2.18.82,6.81,6.81,0,0,1,1.57.43,10.17,10.17,0,0,1,1.48,1.2c.42-1.63.37-1.59,0-2.06-1.09-1.28-2,.52-3,.17-1.05-1.44-1.23-1.48-2.26-.56-.43.09-1.08-.28-1.07.62l-.11-.11-.46.39.18.18A1.58,1.58,0,0,0,819,327.8Zm-18-49.72c.52-.65.52-.65,0-1.59,0,.63,0,1.15,0,1.72l-.11-.11-.46.39.18.18A2.53,2.53,0,0,0,801,278.09ZM167,116.37l.11-.11-.39-.46-.18.18a2.51,2.51,0,0,0,.6.4c.65.52.65.52,1.59,0Zm14.66,280.87.11-.11-.39-.46-.18.18a1.63,1.63,0,0,0,.45.31l.25,2,.91-1.88A5.11,5.11,0,0,0,181.66,397.23ZM128.42,259.84l.3-.28-.08-1.11-1.08.07a1.79,1.79,0,0,0,1.41,1l-.33,0,.23,1.76.92-.24A2,2,0,0,0,128.42,259.84Zm696.8-9.16c0,.08,0,.17,0,.25h2.2c0-.08,0-.17,0-.25a2.42,2.42,0,0,0-2.2.87l0-.52-1.66.22,0,.38A1.67,1.67,0,0,0,825.22,250.69Zm-696.79-2.31,1.08.54.95-.29-.16-.25a13.89,13.89,0,0,0-3.21.44l2-1H127C127,248.2,127.05,248.44,128.43,248.38ZM835.65,186.1l1.82.73c-.33-.75-.65-1.55-1.53-.17,0-.09,0-.17,0-.25h-2.21c0,.08,0,.17,0,.25A2.27,2.27,0,0,0,835.65,186.1ZM145.59,508.81l1.58.73-1.45-2.15a15.29,15.29,0,0,0-.09,1.89l0-.49-1.1.22,0,.36A1.15,1.15,0,0,0,145.59,508.81ZM217.8,95.46l.28-.3-1.33-.86c0,.38,0,.68-.07,1.08a6.39,6.39,0,0,1,1.08.13l.29,1.37,1.74-1.37C218.84,95.51,218.32,95.51,217.8,95.46ZM830.93,300l1.24-2.56-1.24-.07c0,.83,0,1.54,0,2.29l-.11-.11-.46.39.18.18C830.66,300,830.79,299.81,830.93,300ZM173,102.05l2,.57-.23-1.88a3.89,3.89,0,0,0-1.44,1.52l-.11-.11-.46.39.18.18A.5.5,0,0,0,173,102.05Zm634.69,326.2.11-.11-.39-.46-.18.18a.9.9,0,0,0,.62.27l-.57,1.77,1.53-.07V428.3A3.72,3.72,0,0,0,807.69,428.25ZM682.48,694.46l.11-.11-.39-.46-.18.18c.15.13.31.26.31.4.75.74,1.26,1.61,2.47.79l-.11-.79ZM142.18,268.08l.11-.11-.39-.46-.18.18c.15.13.31.26,1,0l-2.07,1.54,2.2,1.05A3.19,3.19,0,0,0,142.18,268.08Zm710.11-11.92-.28.3,1.33.86.07-1.08c-.45,0-.78-.06-1.12-.06-.47-1.73-.47-1.73-2.22-1.37C850.79,255.3,851.11,256.44,852.29,256.16ZM150.64,115.8l.11-.11-.39-.46-.18.18c.15.13.31.26.56.13l-.33.48,1.35.52-.28.37,2.55-.14c0-.12,0-.24,0-.37A14.55,14.55,0,0,0,150.64,115.8ZM164,154.57c.41.44.52.65.6.64a4.63,4.63,0,0,0,.79-.24c-.34-.1-.68-.19,0,.27,1.13.66,2.35.78,2.68.41l-.66-2.05C167,154.54,166.2,154.88,164,154.57ZM819,306.52l.87-.69c.55.85,1.14.61,1.58.17l1.85.43-1.13-1.08h-3c-.06,0-.12.12-.19.19a2.13,2.13,0,0,0,.09.77l-2.8.24,2.58,1.05A6.67,6.67,0,0,0,819,306.52Zm-568.5,387.2,1.51.58c.18-.18.45-.44.71-.72,0-.05,0-.17,0-.26-1-1.26-1.67-1.51-2.26-.88a12.52,12.52,0,0,0,.12,1.75l-1.3-1.2c.09.76.12,1.06.17,1.48A1.21,1.21,0,0,0,250.52,693.72ZM567.35,99.13l.93,1.95h1.18l.89-.89-.22-2a3.75,3.75,0,0,0-2.64,2.18l.06-.42a4.61,4.61,0,0,1-1.19,0A9.32,9.32,0,0,1,565,99.3l.52.73-1.45.17.24.18A3.25,3.25,0,0,0,567.35,99.13ZM163.49,214.48l1.2-.11.28-1.73h2.59v-.84l-2.73-.81a20.46,20.46,0,0,0-1.1,3.49l-.11-.11-.46.39.18.18C163.46,214.8,163.59,214.65,163.49,214.48ZM816.25,295l-.11.11.39.46.18-.18c-.15-.13-.31-.26-.1-.32-1.48-1.06-2.86-1.61-4.14-.94-.83.43-2.69-.11-2.38,2,.76,0,1.51.36,2.26-.27C813.47,294.91,814.86,295.08,816.25,295ZM444,695.47l-.11.11.39.46.18-.18c-.15-.13-.31-.26-2.56.23,2-.27,2-.27,1.88-2.07l-2.89-1.44-1,2.24,1.71.25C441.7,695.45,441.81,695.77,444,695.47ZM139.39,505.67a8.94,8.94,0,0,0-2.52.44,15.29,15.29,0,0,0-2.58,2.18c1.33,0,2.05.05,2.76,0s1.63-.57,2.2-.32c.87.38,1.19-.39,1.79-.45-.28-.89-1.06-1.38-1.64-2.47,0,.16,0,.32,0,.49l1.1-.22-.05-.36A1.15,1.15,0,0,0,139.39,505.67ZM170.2,220.74h2l-.55,1.45,4.95-.62v-.67l-2.32-.79-1.36.57c-.89-1.35.76-.91.78-1.54l-2.16-1,.53-.61-1.18-1.28.82-1.72H170l-.86,2.55,1.06.22.81,2.43a2,2,0,0,0-.51.95l-.11-.11-.46.39.18.18C170.23,221,170.36,220.85,170.2,220.74ZM141,620.85l-1.69,2.32a6.06,6.06,0,0,0-1.05-.07c-.5,0-1,.18-1.45.26l-.54-1.31-2.1,1.11,2.3,3.24,2.44-1.12,2.11.35c.08-.67.13-1.11.17-1.54l.84-.3c.9-1.43-.72-1.77-1-2.75l.11.11.46-.39-.18-.18C141.31,620.72,141.18,620.87,141,620.85ZM826.35,294.53c.56.75,1.13,1.5,1.69,2.13l-1.24.52a2.84,2.84,0,0,0-.94.41,4,4,0,0,0-.57.92l-2.12-1.08-1.26,1.26v1.85l1.85.82,1.84-1.84,2.66,1.29.84-.84v-1.92l-1-.35v-.91h1.45a4.38,4.38,0,0,0,1.38-3.61l2.14-1.71v-2.06c-1.46,1.74-2.77,1.17-4.11.62-.21-.09-.51.05-.81.09v1.15l2.67,2.22h-4.42a5.76,5.76,0,0,0,.06,1.08l-.11-.11-.46.39.18.18A1.62,1.62,0,0,0,826.35,294.53ZM780.67,672.69c0-.13,0-.26,0-.38h-2.1l-.78-1.79,1.3-.74c-2.37-3-2.58-3-6.24-1.1v1.43h2.42l.93.93-1.77,1.31c.59,2,2.62.6,3.34,1.82a11.39,11.39,0,0,0,2.85-1.81l.11.11.46-.39-.18-.18A1.28,1.28,0,0,0,780.67,672.69ZM165.4,159c-1.21.87-2.59.5-3.73.87s-2.2,0-3.3.43a18.82,18.82,0,0,1-3.54.75,7.87,7.87,0,0,0,.4,1.71,9,9,0,0,0,1.2,1.51l-2.36.89a4.3,4.3,0,0,0,3.93.64l.83-1.25a4.6,4.6,0,0,1-3.19-3l4.53-.87,1,1.48,2.76-.68,1.4,1.21,1.82-.72c1.72,1.45,3.3,0,5.09-.15l-.89-.89c-1.46,1-3.09.22-4.56.54-.54-.78-1.68-1.11-1.46-2.63l0,.38,2.34-.21-.28-1.09A12.7,12.7,0,0,0,165.4,159Zm646.23,92.21.11-.11-.39-.46-.18.18a2.75,2.75,0,0,0,.85.5l-.48-.31-2.4,2.41h-1.78l-.93,1.3,1,.82a2.77,2.77,0,0,1,3-.24c1.1.59,2.17.2,3.23.37,1.14-1.32,2.3-.21,3.45,0l1.05-2.31h1.82c.39-.78,1.56-1,1.27-2.06l-4.15.84L814,250.54A10,10,0,0,1,811.63,251.16ZM168.12,106.35a7.35,7.35,0,0,0-3.89,3.45c-.85,0-1.62-.3-2.11,0a1.74,1.74,0,0,1-2,0,14.2,14.2,0,0,0-8.22-1.88,3.34,3.34,0,0,0-.51.12l-.91.92h-2.09l-.75-1c-1.32,1.1-2.81.22-4.1.64l-1,1-2.16.24.25.75,4.58.75,1.35-1.78,2.58,2.42,1.1-1c2.08-.77,3.37,1.67,5.27.85,1-.41.62-2.25,2.16-2.13l.87,2a22.16,22.16,0,0,1,4-.59c2.54.11,5.06.45,7.73.7l.57-.62c-.55-1.75-2.55-2.27-3.32-3.79ZM819.72,289.88l2,.64.31,2.69c.68-.58,1.38-.87,1.43-1.26a2.5,2.5,0,0,1,1.5-1.88,8.57,8.57,0,0,0,3.51-3.62c0-.07-.11-.25-.24-.55l-1.61,1.17-1.4-.73v-1.57l2.16-2.16-1.46-2.69c-.19,1.81-.19,1.81-1.33,2.81a1.5,1.5,0,0,1-.92-2.17c.17-.4.51-1,.37-1.22-.6-1.06.16-1.9.19-2.77,1-.21,1.65-.54,1.49-1.88-1.52,1.42-3.34,1.16-5.06,1.35l.81,1.16c-.51.37-.95.65-1.34,1s-1,.7-1.06,1.07c-.06,1.49-1.11,1.88-2.15,2.5-.69.41-1.94.38-1.86,1.69a3.17,3.17,0,0,0,3.12,1.6l-.88,1.53,2.94,1.52c-.16.54-.33,1.12-.61,2l-.11-.11-.46.39.18.18A4.86,4.86,0,0,0,819.72,289.88ZM147.2,465c-1.34-.56-2.9-.34-3.83-1.25l-1.91.73,1.51-2.09-1.23-.57c-.11-.52-.2-1-.3-1.39,0,0-.16,0-.37-.11l-2.26,2.74.78,1.73,2.28.22-2.2,2.68c-1.54-.32-2,1.12-2.91,1.79a13.33,13.33,0,0,0-1.53,1,2.54,2.54,0,0,0-.27,3.69c-.55,1.44-1.73,2.55-1,4.23l3.6,1.53c.57-1.52,3.5-1.27,3.05-3.6l4.08-2.15c1.92-1.07,2.56-3,3.16-5C146.77,468,147.57,466.54,147.2,465ZM809,401.52a5.84,5.84,0,0,0,1,4.44c.75,1.36,1.42,2.75,2.12,4.12l4.42-.67,4.73-5a9.11,9.11,0,0,0-2-3.86,14,14,0,0,1-8,.56l-1,1.1ZM633.28,697.72l.5-2,1.71,1.57-.28,2.1,1.8-1.43-.74-1.28,1.69-1.85,1.57.62c.77-.19,1.69-.64,1.9-.43.91,1,1.64.07,2.4-.07,1-.18,2-.49,3.1-.75-.86-1.79-2.7-.37-4.08-1.33l2.42-1-.84-.84c-.9.25-1.91-.31-2.87.53-.42.37-1.46.16-2.19,0a4.82,4.82,0,0,0-4.26.91c-.88.78-1.82,1.48-2.7,2.18v3.09ZM407,97.13c.43-1.59,2.37-1.33,3-2.38v-2.1l-1.23.67L407.63,91a6.74,6.74,0,0,1-.95.47c-.12,0-.3-.14-.46-.21l.54-.84h-2.5l-4.91,3.33-1,.08V96c.82,0,1.73-.27,2.24.07s1.28.06,1.93.38a8.29,8.29,0,0,0,2,.64A13.72,13.72,0,0,0,407,97.13ZM856.72,320.51l1.58-2.57-.37-.28,2.95-2.94-.81-1.57a11.7,11.7,0,0,0-2.18,0c-.75.16-1.92.35-2.1.83-.55,1.44-1.75,1.2-2.5,1.43l-1.56,2.1c.18.46.39.93.56,1.42s.28.92.41,1.34a14.39,14.39,0,0,1-1.39.73,7.76,7.76,0,0,1-1.24.28C852.56,322.58,854.29,320.15,856.72,320.51Zm-2.34-83.25-1.28,3.47-2.64-1.51-1.56,1.34-1.68-1.47a5.34,5.34,0,0,1-4.39,1.28V243l2.57.77.31-1.7a5.06,5.06,0,0,1,3.28.54,23.83,23.83,0,0,0,2.91,0l2-.38.82.84h2.95L855,241.2l.44-3.07ZM765.49,676.32a23.54,23.54,0,0,1,2.72,1.43,2.5,2.5,0,0,1,.86,2.61c1-.21,1.93-.37,2.85-.66.32-.1.78-.52.76-.76-.12-1.36,1.11-2.2,1.25-3.39l-.55-.61c.19-.23.37-.44.52-.66,0-.06,0-.18,0-.28-.88-.89-1.62-1.38-2.24-1-1.21.76-2.48.4-3.36.51ZM467.58,96.2l.81.89h-2.28c-.28.84-.53,1.5-.7,2.17-.05.21.13.47.31,1.06l.94-1.43,2.51,1.29,1-2.37H473l-2.26,1.67c2.21-.25,3.81-.6,5-2.44-.28-.45-.57-1.38-.92-1.4-1.64-.09-2.47-1.75-4.13-1.89l-1.43,2.14Zm144.07.37,1.4-1.28v-2h-1.4l-.57,1.39-1.93-1.75-3.78.64c-.72.73-1.58,1.59-2.42,2.48a6.05,6.05,0,0,0-.57.87c.29.17.37.25.44.25a19.48,19.48,0,0,0,3.44-.44C607.89,96.21,609.78,96.57,611.65,96.57Zm-407.33,584-.16-.79c-1.76,0-1.76,0-3.58,1-.86,0-2.12.38-2.65-.08-1.18-1-2-.16-2.94.13a2.37,2.37,0,0,0-1.83,2.15,21.33,21.33,0,0,1,4,.51c.9.32,2.16-.38,3.32-.63v-1.46h2l.27,1.8c1.06-1.46,2-.29,3-.08l1-1.39Zm618-480.18c-2.41-.5-3.74,2.1-5.94,1.56l-.82-.87c.09-.83,1.44-1.6-.21-2-.9,1.82-2.43,3.51-.55,5.65h5.23a8.06,8.06,0,0,1,.89-1.56,7.31,7.31,0,0,1,1.4-1ZM852.1,300.78l-1.43.75a2.22,2.22,0,0,1,.18,2.67c-.41.79-1.3,1.57-.52,2.81.42-.21.86-.59,1.31-.6,1.45,0,2-.83,2.38-2.13a4.39,4.39,0,0,1,2.7-2.65v-2C853.35,301.44,853.35,301.44,852.1,300.78Zm-683.71-83c-.65,1.73-1.88-.11-3,.52-.78.46-2.18-.15-3.36-.29v1.46l1.51.17v1.88l-2,1.31h3.61l1-2.74c1.54,0,1.24,1.43,1.63,2.28l1.49-3.65ZM177,109.9l.79-1.59c-.52-.83-1.12-1.34-2.21-.86-.47.21-1.27.54-1.47.34-1.08-1-2.33-.22-3.08-.1l-1.26.38c2-.3,2.72,1.3,4,1.76l-.6.77c2-.14,3.77,1.32,5.74.35l-.11-.73Zm328.61-15c-.1,1.84-.1,1.84,1.41,2.21a4.51,4.51,0,0,1,.63.25c0,.54.05,1,.07,1.39l1.51.11,1.54,2.31,2.71-.47.72,1.1,2.33-1.33-2.11-1.18h-3.71l-.86-2.49L508.24,96l-1.53.72-.26-1.8ZM820.82,357.78c.1,2.46,2.71,5.46,4.2,4.91l.87-1.85c-1-.77-2-1.68-2-3.06ZM522.74,99a11.73,11.73,0,0,1-1.55.39c-.65.07-1.58-.23-1.9.1-.57.59-.85.12-1.27,0-.35.7-1.52.87-1.17,2.23l1.29-.5c2,.09,3.59,2.21,5.37.13ZM874.92,513.37c-.2-1.54-1.4-1.95-1.81-2.54-.91.12-1.74.49-2.06.23-1.59-1.29-2.74.26-4.22.21l.33.88c1.14.32,2.29-.35,3.29.45C871.76,513.66,873.28,513.3,874.92,513.37ZM340.64,95.27l-1.37-1.67-3.24.56-1.7-.55L333.25,95h-2.59v.81c.8-.12,1.68-.53,2.26-.27.73.33,1.47-.15,2.07.37l.36-1,.6.55.89-.61,1.78,1.38ZM807.63,288c.13-2.11,2.3-3.25,1.62-5.43-1.73.33-1.91,2-2.87,2.86-.88.19-2.07-.36-2.56,1.22Zm-.12-80.25a4.61,4.61,0,0,1,1.39-.64c.83-.08,1.7,0,2.17-.84s-.5-1.46-.53-2.25c0-.11-.25-.22-.53-.45a5.26,5.26,0,0,0-3.46,2.34Zm-42.82,252,1.37-1.47,2.76-.86.79,1.33c1.12-1.58,1.12-1.58.07-2.93l-1.28,1.22H765l-.41,1.3a2.68,2.68,0,0,0-3.28-.52ZM838.64,185.1l.35,1.78,2.59-3c.06-.6.25-1.73-1.19-2.15-1.25,1-2.46,2-3.65,2.92-.08.07-.07.25-.13.49ZM779,665.92c.09,1.62.09,1.62,1.1,2.47a3.62,3.62,0,0,0,2.75-2.49l-.69-1.33h-1.81ZM164,675.7c-1.28.24-2.52-.12-4.14.38,2.3.65,4.33-.32,5.94.75,1.06-.37,2.07-.65,3-1.06.64-.28,1.39-.65.93-1.46l-4.86.49Zm-12-20.4c-1,.38-1.31,1.56-2.44,1.33-1.36-.27-1.2.64-1,1.49l3.67.65,1.31-1.31ZM762.38,447.22l2.59,1.35,1.81-1.29c-2.64-1.62-5.08-1-7.73-.11l1.59.28,1,1.32ZM691,690.25c1.86.23,1.86.23,3.15,1.32,0-1.42,1.33-1.5,2.08-2.18,1,.67,1.68-.33,2.54-.37a16.56,16.56,0,0,0-7.77.5ZM152.38,159.79a38.27,38.27,0,0,0-5.45.08l1.65.8-.63,1.14.81.77,3.62-1.44ZM168.46,140l3-.78v-1.47c-.43,0-.9-.15-1.12,0a1.94,1.94,0,0,1-2.67,0c-.17-.14-.55-.05-.83,0s-.22.21-.32.31l.73.89-.88.46.28,1.23,1.19-1.19Zm200.15,555.6c-1.17,1.23-1.17,1.23-1.29,2.53l1.61.77,2.34-2.24C370.84,695.47,369.88,695.41,368.61,695.59Zm13.79-604c-1.08.48-2-1.47-3.08-.17-1.19-1.33-2,.19-2.93.32v1.38c1.36-.1,1.36-.1,2.21-.86C380,92.65,381.28,93.2,382.4,91.6ZM151.34,123.9l1.81,1.22,1.92-.48c.06-.9,1.29-1.6.46-2.66l-3.07.75Zm14.13-22.35h3.14l-.73-2.33a9.45,9.45,0,0,1-2.09.56c-.69,0-1.35-.85-2.24,0l.93,1.26.73-.53ZM810.11,643.18a5,5,0,0,0,2.15-3.78l-1.8,2.08c-2-1-2.26-1-3.35.76ZM225.38,97.24l.41-.53c-.68-1.59-2.34-1.83-3.72-2.36a1.38,1.38,0,0,0-1.92.89c1.26.06,2,2.46,3.52.87ZM846.65,326l2.49.11c.85-.63,1.22-1.32.69-2.16a4.26,4.26,0,0,0-1-.83l-2.18.94ZM529.79,688.82c-.21,1.6,1,2.39,1.9,3.35l2.12-.12C533.1,690,531.52,689.41,529.79,688.82Zm-396-419.21.57-.19,1.69,2.32a9.74,9.74,0,0,1,0-1.75,10.1,10.1,0,0,1,.71-1.6c-1.8.56-3.51-.61-4.75,1.22ZM451.62,97.32c1.15.69,2.59-.2,2.87,1.08l-.34,1.35,2.75-1.81-1.49-1.49ZM131.3,542.62l1.64-1.64-1.44-1.44-1.64,1.08v1.25ZM531.9,101.15l-4.56-1.38-1,1C528.56,101.85,528.56,101.85,531.9,101.15ZM694.55,683.78l-2.44,1.59c1.4,0,2.44-.32,3,.07.87.66,1.4-.19,2.1-.13s1.27-.55,1.12-1.48A4,4,0,0,1,694.55,683.78ZM810.93,428.25c1.16.83,2.18,1.39,3.44,1a1.48,1.48,0,0,0-.73-2.1,2.13,2.13,0,0,0-1.61,0C811.6,427.28,811.32,427.82,810.93,428.25ZM413.78,96l-.56.52c-1.65-.79-1.65-.79-2.67,1.15a13.53,13.53,0,0,1,2,0,15.18,15.18,0,0,1,1.95.59A1.71,1.71,0,0,0,413.78,96ZM152.84,629.1l1.78-1.48-2-1.39-2.07,2.09ZM690.5,685.37l-2.19,2.12.88.84,2.27-1.36v-1.56Zm-566-375.32,2.15-2.09-1-1.69-2.22,2.38Zm43.13,361.83,1.61-.84-1.2-1.63,1.93-1.1-1.85-.68-1.64.52,1.14,1.14ZM833.36,251.28c1.07-.71,2.09-1.1,3.22-.22.33.26,1,0,2,0l-1.19-1.72-4.32.85Zm-608.15,423-.07-.64H221l.88,1.43A3.75,3.75,0,0,0,225.21,674.31ZM815.66,278.26c-.38-1.42-1.45-1.24-2.43-1.2-.14,0-.27.19-.32.22v1.94C814.09,279.4,815.13,279.48,815.66,278.26Zm14.23-52.9-.72,2.35c1.24-1.29,3.41.79,4.59-1.48l-2.61.43Zm-8.74,69.89a1.42,1.42,0,0,0-1.83-.68,1.47,1.47,0,0,0-.72,2.12h2Zm-1-40.34c1.32.47,2.35-.12,3.37-.81l-.14-1.3H822.1l-.55,1.22H820.2ZM115.9,335.26c-1.38-.79-1.66-1.93-2.87-1.8v3.1Zm26.42,155.33,2.07,2,1.26-.84L144.39,490ZM264.75,96.48c-.35-1.22-1-2-1.79-1.52-.55.29-2,0-1.66,1.52Zm-110.22,20.2a6.86,6.86,0,0,0,.32.68c.4-.13.78-.43,1.16-.42s.8.51,1.15.45a6.09,6.09,0,0,0,1.6-.81C156.57,115.68,156.57,115.68,154.53,116.68Zm97.89-21.88-2.15.31,1.83,2.08,1.81-.9ZM179.5,161.64a6,6,0,0,0-2-.72,6.8,6.8,0,0,0-2.09.76A2.92,2.92,0,0,0,179.5,161.64Zm606.22,44.92.69,1a11,11,0,0,0,1.65-.42c.66-.29,1.36-.64.83-1.75ZM819.78,385.8c-.18,2.35-.18,2.35,1.37,2.84C821.35,387.46,821.6,386.31,819.78,385.8Zm-7.59-106.89-2.09-.58-.89,1c.67.42,1.15.76,1.67,1,.14.08.36,0,.54,0ZM524.63,688.83c-1.76,0-3-.64-3.64.37l.52,1.5ZM164.28,662.15h3.28v-.94h-3.28ZM802,265.14c-1.68.24-3-.5-3.83,1l1.94.53ZM237.45,674.7l.33,1.89.33-.8.18-.47c1.54.65,1.54.65,2.42-.62ZM803.69,429.47v-1.69l-2.16-.55v1.31Zm13.16-67.09v1.47h1.6a4.49,4.49,0,0,1,0-1,9.43,9.43,0,0,1,.63-1.38ZM137.55,636.17c-.44,2.79,0,3.22,2.18,2.4a4.23,4.23,0,0,1-1.14-.59A12.49,12.49,0,0,1,137.55,636.17ZM160.44,516c-1.31-1-2,.32-3,.44C159,517.65,159,517.65,160.44,516ZM131.95,638.92l-2.2,1.09,2.2,1.77Zm141.17,53-1.34,1.34,1.55.63.86-.9Zm254.17-1.76v-2.51L525,689.27ZM172.78,180.78c.44,1.28,1.53,1,2.43.87.15,0,.17-1,.23-1.42ZM351.68,96l-1.46.29,2.87,2.58-.18-1.66C351.88,97.43,352.24,96.29,351.68,96Zm20.63,600.73c.83-.08,1.51-.15,2.19-.23,0,0,.06-.15.19-.47l-2.25-1.29C372.39,695.46,372.36,696,372.31,696.69ZM258.52,692.6c.85.65,1.39,1.79,2.77,1-1.4-.42-2.23-2.24-4-1.12l.15.79Zm468.52-6h-1.67l.12,1.51H727Zm-515.89-8.93c-1.26-2.33-2.61-.94-3.84-.67-.05,0-.05.25-.12.64l2.27-.67ZM144.45,116.24a5.29,5.29,0,0,0,2.84-.19c-.8-1.14-1.76-.94-2.72-.72Zm32.69,291.85c-1.52-.71-2,.55-2.62,1.37a3.13,3.13,0,0,0,1.13-.28c.49-.14,1-.2,1.53-.3C177.16,408.55,177.15,408.3,177.14,408.08Zm-7.6-307.14,1.27,1.17,1.37-.65A1.74,1.74,0,0,0,169.54,100.94Zm19.43-.28h-2.82l.22,1.09C187.11,101.41,188,102.06,189,100.66ZM176,216.36l-1.6-.67c-.21,1.27.12,2,1.71,2.19l-.6-.93ZM363,92l-1,1.82,2.69-.18Zm-68.16-1.41c1,.48,1.17,1.57,2.26,1.5C297.18,90.58,297,90.46,294.79,90.56ZM193.16,409a3,3,0,0,0-2.22,1.62C192.33,410.54,192.33,410.54,193.16,409ZM137.59,207.18c1.2-.2,2.32.38,2.94-1.23C139.49,206.09,138.47,205.61,137.59,207.18Zm88,468,.27.58,2.06-.13-.79-1.56Zm532.13-215c.7-.79,2.1-1.15,1.91-2.6C758.92,458.44,757.69,458.8,757.7,460.22ZM170.35,166l.22,1.1,2.2-.11-.19-1ZM343.93,95.2c-1.82-.2-1.95,0-1.89,1.49ZM687.67,695.72c-.14-1.4-.62-1.85-1.7-1.89C685.81,695.06,686.48,695.36,687.67,695.72Zm-259.22,4,1.53-1.13-1.66-1a9.4,9.4,0,0,0-.14,1.23A4.52,4.52,0,0,0,428.45,699.69Zm-57-607.84c.48,1.29.79,2,1.94,1.88C373.55,92.52,372.91,92.19,371.49,91.86ZM223.65,91.4l-1.07-1.86-1,1.86ZM152.36,482.54l-.39-.24a5.14,5.14,0,0,1-.73,1.39c-.85.84-.17,1.05.44,1.32Zm34.34-66.73v-1.66l-1.59.8v.75Zm603.93,25.61c2,.31,2.13.25,2.28-1.35Zm85,86.9c1.8-1,1.54-2.08,1.25-3.67ZM192,412.84l-.49-1.12-2.26,1.12ZM395.43,696.56h2.68l-2.47-1.21ZM837.12,467.2l-2.15-1,1.16,2.17ZM822.89,304.84l2.26-1.65C823.56,303.09,823.56,303.09,822.89,304.84ZM710.68,94.41h-1.6v.94h1.6ZM815.07,287.53l-.19-.38a14.22,14.22,0,0,1-1.51.6c-.83.23-.67.64-.29,1.14ZM218.75,105.19l.25-1.32-2.7.18ZM819.33,100,820,100V98.19l-1.06.22ZM783,678.86l-.07-.67h-1.76l.22,1.06ZM189,142.54c.51.34.8,1.35,1.83.46l-1-1.33Zm621.8,180.75,2-1.36C811.74,321.79,810.87,321.95,810.84,323.29ZM155.54,657.22l2-.13-.49-1.86ZM810.71,285.56l.76,1.43,1.1-2.46ZM143.33,507.23c-.58.25-1.08.46-1.57.68-.05,0-.06.15-.12.3l.28.7C142.8,508.71,143.44,508.39,143.33,507.23Zm421,190.5-.48-1.17a2.8,2.8,0,0,0-1.24,1.17ZM177.1,177.27v-2L175.8,177ZM140.71,456.8l-1.89-.48c0,.77.08,1.26.11,1.75ZM180.3,180.14h-2l.26,1.3Zm6.38,41.61c-1.13.08-1.54.6-1.59,1.56Zm-23.77-8.48-1.79-1.41-.31,1.41Zm697.8,290,2-.29-1.82-1.12C860.84,502.39,860.79,502.7,860.71,503.26ZM514.75,97.6h2l-.26-1.3Zm313.33,93.06c-.46.35-.74.54-1,.76s-.5.52-.74.78C827.37,192.29,828,192,828.08,190.67Zm-13.82,85.2-1.72-1.42-.35,1.42Zm-1.45,14v-.28H810v.28ZM136,528.73h-1.2l.21,1,1-.21Zm-17.65,61.51c-.07-1.26-.07-1.26-1.25-1.69Zm669.53,73.6,0-.49-2.06.14,0,.35Zm-6.77,7.08V669l-1,.16Zm-544.64,5.22-.2-.39-1.67.21.81.81ZM160.3,226c-.52-.38-.69-1.25-1.74-.64C159.09,225.78,159.26,226.65,160.3,226ZM473.07,90.39c-1.65-.06-1.66.4-1.1,1.35ZM189.95,95.46c-1.65-.06-1.66.4-1.1,1.35Zm12,1-2.1-1v1Zm-16.15,50.68,1.1-.59-.21-.39-1.66.22Zm-9.32,2.26c1.26-.07,1.26-.07,1.69-1.25Zm-59.33,39.73c-.21-.74-.5-1.7-1.51-.87Zm37.23,2.25c-.22-.71-.51-1.73-1.52-.85Zm-33.61,10.86.18.37,1.68-.21-.7-.7Zm684.79,53.87-1.08-1.92v1.92Zm6.25,27.78,0,.49,2.06-.14,0-.35ZM615.28,95.79l-.65.49,0-1.46-.33.27.12,1.72ZM188,406l-.18-.37-1.67.21.7.7ZM175.09,157.46l-.44-1.38C174.22,157.26,174.37,157.66,175.09,157.46Zm-18.2,53.46v-.28H155.2v.28ZM823,461.22l-1.16-1.12C821.82,461.31,822,461.77,823,461.22ZM188.78,221.75c.06-.06.18-.13.18-.19,0-.25.08-.57-.05-.72s-.47-.14-.72-.2a4.8,4.8,0,0,0,.21.76C188.48,221.55,188.65,221.64,188.78,221.75ZM163,129.18c0-.17,0-.33,0-.5l-1.51.2,0,.29Zm11.58,19.63c-.16.65-.16.65.61.61Zm-16.08-23.95-.5,0,.21,1.5.29,0Zm21.62,43.81.5,0-.21-1.48-.29,0ZM156,516.91c.64-1.5,0-1.33-.75-1.2ZM183.61,221.3l1-1.06C183.35,219.91,183.25,220.34,183.61,221.3Zm-27-53.69c.06-.06.18-.13.18-.19,0-.25.08-.57-.05-.72s-.47-.14-.71-.2a4.56,4.56,0,0,0,.21.76C156.33,167.41,156.51,167.5,156.63,167.61ZM691.29,691.8c-1.37-.11-1.37-.11-1.22.6ZM810.51,428.52l-1.15.46C810.18,429.32,810.78,429.43,810.51,428.52ZM364.91,98.73c0-.17,0-.34,0-.5l-1.5.21,0,.3ZM162.12,129.4l-1.56,1.6c.73-.07,1.1,0,1.2-.14A5.52,5.52,0,0,0,162.12,129.4Zm16.55,35.91c-.35,1-.14,1.44.42,1.16Zm-43,7.88c1,.25,1.11-.15.85-.81ZM213,680.88c-.06.06-.18.13-.18.19,0,.25-.07.57.05.72s.47.14.71.2a4.56,4.56,0,0,0-.21-.76C213.3,681.09,213.12,681,213,680.88Zm503.11,4.85c.71.18.71.18.64-1.37Zm-177.41,2.73c-.06-.06-.13-.18-.19-.18-.25,0-.57-.08-.72.05s-.14.47-.2.71a4.56,4.56,0,0,0,.76-.21C538.49,688.76,538.58,688.58,538.69,688.45ZM817.22,276.38v-.5l-1.51.2,0,.29ZM263.59,692.23l0,.5,1.49-.21,0-.29ZM831,306.11c-1.48-.62-1.39,0-1.15.72ZM875.08,518.5l.62,1.34C876.14,518.65,876,518.26,875.08,518.5ZM348.3,699.77c-.18.71-.18.71,1.37.64Zm-198-465.58c.8,0,1.28-.11.65-1.3Zm42.23,168.17.05.5,1.48-.21,0-.29ZM152.45,232.83l1.34-.62C152.6,231.76,152.21,231.91,152.45,232.83Zm674.46-5v-.28h-1.69v.28Zm-24.14-.33v.5l1.51-.2,0-.3ZM829.26,189l.48,0-.21-.94-.28,0Zm-698.78-.55.49-.06-.22-.92-.27,0ZM795.42,265.3l.06.49.92-.22c0-.09,0-.18,0-.27ZM149.65,171.68l.06.49.92-.22,0-.27Zm.33-1.79h-.28V171H150Zm.71-4.09v-.28h-1.13v.28Zm18.61-5.64v-.28h-1.13v.28ZM220,676.45l-.48,0,.21.94.28,0Zm9.58,5.44,0-.48-.94.21,0,.28Zm495.37,1.89c0,.16,0,.32.06.49l.92-.22,0-.27Zm80.56-24.21v.28h1.13v-.28Zm-572.36,25.9c0,.16,0,.32.06.49l.92-.22,0-.27ZM167.61,149.73V150h1.13v-.28ZM524.7,691.11l.06.49.92-.22,0-.27ZM490.07,100.52h-.28v1.13h.28ZM804.25,275.26c0-.16,0-.32,0-.48l-.94.21,0,.28ZM831.52,114l.48,0-.21-.94-.28,0Zm-3.06,191.3h-.28v1.13h.28Zm-13.31-14.57.06.49.92-.22,0-.27ZM140.45,269.62l-.06-.49-.92.22,0,.27ZM837.06,306.8v-.28h-1.13v.28ZM802.76,267c0,.16,0,.32,0,.48l.94-.21,0-.28ZM778.5,95l.06.49.92-.22,0-.27ZM128,263.05l-.48,0,.21.94.28,0ZM820.62,323.2l-.06-.49-.92.22,0,.27Zm-13.91.19,0,.48.94-.21,0-.28ZM571,697.88l.06.49.92-.22,0-.27ZM810.08,261.35c0,.16,0,.33.06.49l.92-.22,0-.27Zm4.51,65.42c0,.16,0,.32.06.49l.92-.22,0-.27ZM458,100.42c0-.16,0-.32,0-.48l-.94.21,0,.28ZM198.16,528.12l.06.49.92-.22,0-.27ZM168.08,145.74l-.48,0,.21.94.28,0Zm648,92.86c0-.16,0-.32,0-.48l-.94.2,0,.28Zm-667.18-2.82-.06-.49-.92.22,0,.27Zm41.73,159.81-.48,0,.2.94.28,0ZM727.56,94.78l-.06-.49-.92.22c0,.09,0,.18,0,.27Zm23.12,350.8-.06-.49-.92.22,0,.27ZM349.13,97c0-.16,0-.33-.06-.49l-.92.22,0,.27ZM806.61,278.88v.28h1.13v-.28ZM187.45,138.4c0,.16,0,.32,0,.48l.94-.2,0-.28Zm520.46,548v-.28h-1.13v.28ZM167.19,225.72h.28V224.6h-.28ZM540.33,100.15l-.2-.2a1.86,1.86,0,0,0-.18.38s.11.12.18.19Zm-8.38-.48c-.06-.06-.14-.19-.19-.18a1.75,1.75,0,0,0-.38.18c.06.06.14.19.18.18A1.81,1.81,0,0,0,531.95,99.67Zm126.81-.48-.2-.36c-.06.06-.19.14-.18.19a1.84,1.84,0,0,0,.18.38ZM135.95,294.89l-.2-.36c-.06.06-.19.14-.18.19a1.76,1.76,0,0,0,.18.38Zm89.27-197,.2.36c.06-.06.19-.14.18-.19a1.84,1.84,0,0,0-.18-.38ZM804,277.13l-.2.2a1.81,1.81,0,0,0,.38.18s.12-.11.18-.18ZM260.47,95l-.36.2c.06.06.14.19.18.18a1.81,1.81,0,0,0,.38-.18Zm32.83-.28-.2-.36c-.06.06-.19.14-.18.19a1.83,1.83,0,0,0,.18.38ZM166.4,634.25l-.2-.2a1.77,1.77,0,0,0-.18.38s.11.12.18.19Zm12.41,5.8-.2-.36c-.06.06-.19.14-.18.19a1.84,1.84,0,0,0,.18.38Zm632.79,20.3-.2-.36c-.06.06-.19.14-.18.18a1.81,1.81,0,0,0,.18.38ZM179,182.1l.2.2a1.75,1.75,0,0,0,.18-.38s-.11-.12-.18-.19ZM585.44,92.26l-.2-.2a1.86,1.86,0,0,0-.18.38s.11.12.18.19ZM185.58,667.53l-.2-.2a1.8,1.8,0,0,0-.18.38s.11.12.18.19Zm-6.69-444.9c-.06-.06-.14-.19-.18-.18a1.72,1.72,0,0,0-.38.18c.06.06.14.19.19.18A1.8,1.8,0,0,0,178.89,222.62Zm-4.43,446.19.2.2a1.74,1.74,0,0,0,.18-.38s-.11-.12-.18-.18Zm604.88,2.54-.36.2c.06.06.14.19.18.18a1.82,1.82,0,0,0,.38-.18Zm-600.24,1,.36-.2c-.06-.06-.14-.19-.18-.18a1.72,1.72,0,0,0-.38.18Zm36.38.85-.2-.2a1.8,1.8,0,0,0-.18.38s.11.12.18.19ZM143.28,424l-.2-.36c-.06.06-.19.14-.18.19a1.6,1.6,0,0,0,.18.38Zm74.61,251,.2.2a1.81,1.81,0,0,0,.18-.38s-.11-.12-.18-.18ZM153.15,221.13l.36-.2c-.06-.06-.14-.19-.19-.18a1.62,1.62,0,0,0-.38.18Zm60.91,456.43-.2.2a1.83,1.83,0,0,0,.38.18s.12-.11.19-.18ZM805.68,428.28l-.2.2a1.72,1.72,0,0,0,.38.18s.12-.11.18-.18ZM219.58,684.61l.2.2a1.81,1.81,0,0,0,.18-.38s-.11-.12-.18-.18ZM573.2,93.55l.2.2a1.84,1.84,0,0,0,.18-.38s-.11-.12-.18-.19ZM248.54,687.07c-.06.06-.19.14-.18.18a1.67,1.67,0,0,0,.18.38c.06-.06.19-.14.18-.18A1.75,1.75,0,0,0,248.54,687.07Zm287.83,1.49-.2-.36c-.06.06-.19.14-.18.19a1.75,1.75,0,0,0,.18.38ZM819.5,297.71l-.2-.36c-.06.06-.19.14-.18.18a1.8,1.8,0,0,0,.18.38ZM120.72,197.32l-.2-.36c-.06.06-.19.14-.18.19a1.83,1.83,0,0,0,.18.38Zm668,248.44-.2.2a1.7,1.7,0,0,0,.38.18s.12-.11.19-.18ZM137,274.14l.2-.2a1.85,1.85,0,0,0-.38-.18s-.12.11-.19.18Zm-12.29-80.93-.2-.2a1.84,1.84,0,0,0-.18.38s.11.12.18.19Zm665.22,77.15-.2.2a1.7,1.7,0,0,0,.38.18s.12-.11.19-.18ZM785.1,447l-.2-.2a1.65,1.65,0,0,0-.18.38s.11.12.18.19ZM276.18,693.27c-.06.06-.19.14-.18.19a1.78,1.78,0,0,0,.18.38c.06-.06.19-.14.18-.18A1.74,1.74,0,0,0,276.18,693.27Zm371.59.48.36-.2c-.06-.06-.14-.19-.18-.18a1.81,1.81,0,0,0-.38.18Zm-365.18.44-.2-.36c-.06.06-.19.14-.18.19a1.8,1.8,0,0,0,.18.38ZM125.23,192.08l-.2-.2a1.84,1.84,0,0,0-.18.38s.11.12.18.19Zm393.1,503.08-.2-.2a1.72,1.72,0,0,0-.18.38s.11.12.18.18Zm232.44-243c-.06-.06-.14-.19-.19-.18a1.84,1.84,0,0,0-.38.18c.06.06.14.19.19.18A1.74,1.74,0,0,0,750.77,452.16ZM193.64,167.27l.2.36c.06-.06.19-.14.18-.18a1.63,1.63,0,0,0-.18-.38Zm115.9,529.3.2-.2a1.85,1.85,0,0,0-.38-.18s-.12.11-.19.18Zm196.83.56.2-.2a1.81,1.81,0,0,0-.38-.18s-.12.11-.18.18ZM816.56,322.08l.2-.2a1.71,1.71,0,0,0-.38-.18s-.12.11-.19.18ZM569.37,697.7l.36-.2c-.06-.06-.14-.19-.19-.18a1.84,1.84,0,0,0-.38.18ZM187.71,166l-.36.2c.06.06.14.19.19.18a1.62,1.62,0,0,0,.38-.18Zm-27.35-11.16.2.36c.06-.06.19-.14.18-.18a1.83,1.83,0,0,0-.18-.38Zm.4-2.82-.2-.2a1.74,1.74,0,0,0-.18.38s.11.12.18.18Zm29.77-3.5-.36.2c.06.06.14.19.19.18a1.71,1.71,0,0,0,.38-.18ZM490.29,699.11l.2.36c.06-.06.19-.14.18-.18a1.81,1.81,0,0,0-.18-.38ZM193.92,148.38l.2-.2a1.81,1.81,0,0,0-.38-.18s-.12.11-.19.18ZM138.57,261.25c-.06.06-.19.14-.18.19a1.72,1.72,0,0,0,.18.38c.06-.06.19-.14.18-.19A1.84,1.84,0,0,0,138.57,261.25Zm31-115.05c-.06.06-.19.14-.18.19a1.68,1.68,0,0,0,.18.38c.06-.06.19-.14.18-.18A1.81,1.81,0,0,0,169.59,146.2ZM802.1,254.77c-.06-.06-.14-.19-.19-.18a1.76,1.76,0,0,0-.38.18c.06.06.14.19.18.18A1.64,1.64,0,0,0,802.1,254.77Zm-660.23-1.33-.2.2a1.62,1.62,0,0,0,.38.18s.12-.11.19-.18ZM198,137.54l-.2-.36c-.06.06-.19.14-.18.18a1.83,1.83,0,0,0,.18.38ZM808.3,250.82c-.06-.06-.14-.19-.18-.18a1.81,1.81,0,0,0-.38.18c.06.06.14.19.19.18A1.58,1.58,0,0,0,808.3,250.82Zm-10.92-6.57.2-.2a1.81,1.81,0,0,0-.38-.18s-.12.11-.18.18ZM526,99.39c-.06.06-.19.14-.18.19a1.77,1.77,0,0,0,.18.38c.06-.06.19-.14.18-.19A1.84,1.84,0,0,0,526,99.39ZM150,236.64l-.2-.2a1.64,1.64,0,0,0-.18.38s.11.12.18.18Zm10.88-119.4.2.2a1.81,1.81,0,0,0,.18-.38s-.11-.12-.18-.18Zm-12-.56-.2-.36c-.06.06-.19.14-.18.19a1.64,1.64,0,0,0,.18.38Zm385.93-14.26.2.36c.06-.06.19-.14.18-.19a1.84,1.84,0,0,0-.18-.38ZM159.63,514.28l-.2-.36c-.06.06-.19.14-.18.19a1.71,1.71,0,0,0,.18.38Zm9.19-288.36.2.36c.06-.06.19-.14.18-.19a1.81,1.81,0,0,0-.18-.38Zm-6.93.16-.2-.36c-.06.06-.19.14-.18.18a1.72,1.72,0,0,0,.18.38ZM145.7,514.85l.2.2a1.81,1.81,0,0,0,.18-.38s-.11-.12-.18-.19Zm47.09-101.4.2-.2a1.71,1.71,0,0,0-.38-.18s-.12.11-.19.18Zm-3.55-189.9-.2.2a1.81,1.81,0,0,0,.38.18s.12-.11.18-.18Zm-1.81-.28.2.2a1.63,1.63,0,0,0,.18-.38s-.11-.12-.18-.18Z"/><path d="M110.9,247l-.37-1.95a5.32,5.32,0,0,0-5.28.37c-.49-.66-1.36-1-1.41-2.08s-.94-1.44-2-1.23l.49-3.37h1.44v2.08L106,241l1.09,1.66c.29-.11.57-.13.6-.23.28-.82.51-1.66.78-2.56h1.4l1,1c.82,0,1.89-.29,2.63.08s1.79.79,2.28.41c1-.74,1.62.63,2.4.07l.9-1.55a9.61,9.61,0,0,0,.67,1.38,10.19,10.19,0,0,0,1,1v3c-1.57-.05-3.1.46-4.73-.34a3.52,3.52,0,0,0-3.35.44A17.85,17.85,0,0,0,110.9,247Z"/><path d="M136,156.56v2.63c-1.42.06-2.42,2-4.14.64-.27-.21-1,.14-1.49.24l-1.41.31-2.15,2-.54-2.12-5.73,1.67c-.62-.77-1.21-2.16-2.21-2.57s-.91-1.39-1.43-2c-.13-.16,0-.53,0-.91h2l1.1,1.72,1.24-.59,1.62,2.14.31-2.55,1.47-1.55,1.71,1.28c1-.32,1.95-1.09,3.23-.13.89.67,2-.35,3-.66C133.82,155.7,134.95,155.36,136,156.56Z"/><path d="M865.65,448.92l2.21,1.24c.58,1.09-.26,2.33.76,3.23.28.25-.55,2.79-1,3.17-1,.84-2.08,1.61-3.39,2.6v1H862c0-.23-.15-.61,0-.72a17.3,17.3,0,0,1,1.55-1.21l-1.41-1c-.18-.42-.45-1.05-.74-1.68a6.33,6.33,0,0,1-.57-1.16c-.3-1.36.78-2.3,1.24-3.4a2.16,2.16,0,0,1,2.17-1.43C864.62,449.62,865.1,449.18,865.65,448.92Z"/><path d="M467,62.72H465.1c-.85-1.12.11-2,.39-3.18-1.62-.1-1.85-1.43-2.42-2.7l1.57-1.3c.76.68,1.49-.51,2.33-.16a19.33,19.33,0,0,0,2.68.69L470,55c1-.56,1.62-.08,2.29,1.11l-1.67,3.13.37.41-1.2,1.19,1.44.83c-.73,1.35-.76,2.93-2.9,2.73Z"/><path d="M112.64,396.59h-3.42l-1.81-1.81-.47-1.82c.3-2.93,2.28-4.28,5.44-4.6,1.17.5,1,2.65,2.66,3.31C115.65,393.88,114.11,395.12,112.64,396.59Z"/><path d="M104.06,433.8l3.72,2.28v3.24l-2.69,2.27c-2.73.61-4.29-.74-5.72-2.43v-2.23l2-1.94.11.21Z"/><path d="M518.6,14.79c.14.94.33,2.25.52,3.52l-1.71,1-2-.78,2,3-2,3-3.59-.63-.56-2.19a3.33,3.33,0,0,1,3.24-2.58c-.17-1.63-2.57-2.92-.29-4.71C515.31,13.57,516.7,13.25,518.6,14.79Z"/><path d="M852,419.17c5.64,0,6.56.72,6.38,4.89-1.84,1.31-1.84,1.31-6.78,1.31a13.38,13.38,0,0,1-.86-1.27,18.1,18.1,0,0,1-.74-1.68C850,421,851,420.16,852,419.17Z"/><path d="M577.63,797.82v-1l2-2h1.72l.31-.89c1.91-.88,3.77-1.37,5.47.57v1.86a8.32,8.32,0,0,1-3.65,1.78c-.11,0-.26-.25-.51-.49-1,1-2,2.23-3.87,2.28Z"/><path d="M355.55,743.31l1.66,1.66a15.33,15.33,0,0,0-.67,6.1l-1.4,1.4h-1.71a7,7,0,0,1-1.93-3.93c-.27-1.55.79-2.85,1.2-4.44Z"/><path d="M64,523.93l-.54,4.51-2.95.84c-2.54-1.59-2-4.33-3-6.42a3.71,3.71,0,0,1,3.83-1.57Z"/><path d="M599.07,739.3a18.32,18.32,0,0,1-2.83,3,13.6,13.6,0,0,1-3.44,1.18l-1.53-.76v-2.6a30.08,30.08,0,0,0,3.25-2.18,32.78,32.78,0,0,0,2.83-3.09l1,.87C598.81,736.83,598,738.15,599.07,739.3Z"/><path d="M125.35,415.6c-.55,4.1-1.1,4.44-4.4,4.72l-1.89-2.67c.34-3.12,2.72-3.7,4.72-4.8l3.47,1.36Z"/><path d="M549.14,817.94c-1.14-.15-2.27.38-3-.85v-3l4.45-3.38,2,.59.79,1.54C553.24,815.64,550.53,816.16,549.14,817.94Z"/><path d="M715.87,701.19l-1.29,2.23a12.49,12.49,0,0,1-3.49-.08c-.94-.28-1.69-1.22-2.58-1.91v-2.3l2.21-1.94C713.31,697,714.7,698.89,715.87,701.19Z"/><path d="M959.42,471.05c.21-.42.38-.82.6-1.18a2.8,2.8,0,0,1,4.43-.84c.65.52,1.21,1.15,1.77,1.68v2.49l-2.82,2-.87-.73-.48.48-2-1.17a8.29,8.29,0,0,0,0-1.58A4.66,4.66,0,0,0,959.42,471.05Z"/><path d="M409.49,63.48l2.6-1.87h4l1.44,1.72-.64,2.62c-4.62,1.08-3.82,1-6.54.1a8.48,8.48,0,0,1-.58-1.16A10.76,10.76,0,0,1,409.49,63.48Z"/><path d="M97.2,225.38c2.45-.16,2.16-2.25,3.07-3.12l-.43-2.67H102l.23.79,2.09.79v3.92l-4,2.48A6,6,0,0,1,97.2,225.38Z"/><path d="M516,54.35c2.44-.33,3.9,1.19,5.76,1.53,0,2.13.39,4.06-1.31,5.64h-1.85a17.86,17.86,0,0,1-1.3-1.33,2.63,2.63,0,0,1-.57-1.15C516.47,57.56,516.27,56.06,516,54.35Z"/><path d="M893.48,588.53v-2.1l1.34-2.08,3.62.82.87,2.54.83.22v1.32l-.77,1.57-1-.54c-.47.1-1.12.47-1.55.3C895.63,590.09,894.15,590,893.48,588.53Z"/><path d="M173,91.55l1.27-.54.9,1.35-1.93,1.9H169.4v-2l1-.32v-2l-2.07-.16a2.62,2.62,0,0,1,.14-.45c1-1.79,1.31-1.94,4.12-2.28a7.26,7.26,0,0,1,.65,2.19C173.18,89.91,172.26,90.54,173,91.55Z"/><path d="M869.14,426.65v3.2l-3,1.61-2.52-1.25-.8-2.73,2.34-2.11A6,6,0,0,1,869.14,426.65Z"/><path d="M884.39,236.09v1.84l-2.07.93c.13,1.76-1.29,2.43-2.64,3.09l-2.51-1.23v-2.92c1.39-1.47,2.9-1.79,4.6-.77l1.48-2Z"/><path d="M849.38,463.71c-1.43.56-2.31,2.2-4.15,1.64-.38-1.21-1.91-1.37-2.44-2.46.61-1,.56-2.49,2.23-3.14l1.5.44.57-.52,2.29,1.27Z"/><path d="M318.4,766.64l-1.93-.85-.66-3,2.37-2.38c1.41-.07,2.35.92,3.36,1.95C321.79,764.56,320.89,766,318.4,766.64Z"/><path d="M455.29,85.19V82.72L454.13,82V79.92l2-1.91c2.18-.59,1.78,2,3.22,2.51-.66,1.5-1.8,2.83-1.08,4.67Z"/><path d="M878.71,456.73l.76,2.81-2,1.29c-1.93-.67-2.62-2.45-3.56-4-.44-.73-.21-1.39.6-2h2.45Z"/><path d="M343.07,753.38l.78-1.38,3.13-1.19a3.88,3.88,0,0,1,2.78,2.68l-2.28,2C345.62,756.23,344.37,754.71,343.07,753.38Z"/><path d="M835.79,452a5,5,0,0,1-1.59.44,2.93,2.93,0,0,1-1.93-.61,15.87,15.87,0,0,1-1.61-2.82l1.53-1.53h2.42A4.62,4.62,0,0,1,835.79,452Z"/><path d="M854.17,447l2.19,2.33-1,1.92c-.79.9-2.17.56-3.43.62l-1.23-2.58C851,447.87,852.16,447.21,854.17,447Z"/><path d="M463.45,41.91l2.1,1.37-1.31,2.43H462l-.81-2.11-1.75-.09a1.53,1.53,0,0,1-.27-2.58L458,40.51l1.19-1.13,1.31,1.82,1.25,1.71Z"/><path d="M318.2,727.22l1.8-1.75,2.56,1a4,4,0,0,1-1.12,3.92h-2l-.94-1.67-.32.32Z"/><path d="M56.7,457.09l1.7-.73,2.1,2.41-.64,2.65H57.29l-1.81-1.81Z"/><path d="M135,236.87l-1.38,1.95-.4-1.81h-3.64l-.85-.84c-.26-2.67,2.25-1.68,3.1-2.54Z"/><path d="M133.37,224.54l-.74,1.62-4.46-.63-1.21-1.9,2.72-.92-.51-1.3C129.91,221.41,131.62,222.72,133.37,224.54Z"/><path d="M76.38,465.56l-1.53,1.53H72.63c-.65-.66-1.68-1.12-1.48-2.27l2.38-2.27,2,.71Z"/><path d="M872.44,233.46l1.52,1.91c1-1.06,1.71-.76,2.49.14l-.78,1.61-1.81-.53-.92.92h-2.36l-.79-1.52C869.93,234.8,870.78,234.05,872.44,233.46Z"/><path d="M278.9,721.37l-1.46-1.46.77-2.91h2.63l1.26,2-.76,2.34Z"/><path d="M876.61,286v-2.66L879,281.9l2.09,2.91-2.37,2.4Z"/><path d="M836.62,397l2.36-2.1,2.78,2.06-1.41,2.45h-1.84c-1-.44-1.32-2.3-3.09-1.55v-1.31Z"/><path d="M867.85,228.7l1.35.7-.51.51,1.26,1.46-1.5,1.64h-3l-.78-1.7.77-1.49Z"/><path d="M350.41,799.65l2.14,2.14v2.43l-2.5.89-1.39-2.2v-2.38Z"/><path d="M140.49,216.54l.07,1.5-2.5,2.17c-1.32.52-2.14-1.46-3.67-1.86l.71-1.66c.82.21,1.7-.22,2.74.27C138.43,217.26,139.42,216.75,140.49,216.54Z"/><path d="M874.28,218.72V220l-2.2,1.32c-1.31-.53-1.6-1.62-1.95-2.77-.55-1.84-.49-2,1.61-2.37Z"/><path d="M127.05,275.77c-1.6-.38-2.82-.75-3.44-2l.73-1.65,1.92-.83,2.7,1.55Z"/><path d="M431.22,36.13c-1-.77-.81-1.68-.67-2.73l2.61-1.33,1.8,1.6c-.11.9.39,1.86-1.13,2.46Z"/><path d="M502.1,22.78l.7,1.79L501,26h-2.12l-.35-1-1,.51c-.78-.38-.68-.94.34-2.27l.65.58.35-1.07Z"/><path d="M617.23,88.57H615a3.44,3.44,0,0,1-.62-4.79l1.38-.65a5.22,5.22,0,0,1,.95,4C616.68,87.52,617,88,617.23,88.57Z"/><path d="M522.94,60.18l1.73-.89.81.58,1.2-1.13c.08.31.25.61.18.8-.63,1.59-1.31,3.16-2,4.84h-1.25V63l-1.37-.63Z"/><path d="M137.94,150.41c1.49-2.23,4-.75,5.08-2.46,1.62,1,.64,2,.15,3.26a5.79,5.79,0,0,1-2.28.56A12,12,0,0,1,137.94,150.41Z"/><path d="M120.17,455.17c-1.6.09-1.59.06-2.67-.65v-2.44l1.33-1.33h1.26l1.36,2.25Z"/><path d="M650.82,722.21c-2-3.85-2-4.22-.57-5.93l2.19,1.21C652.7,720.37,652.69,720.4,650.82,722.21Z"/><path d="M100.15,388.3l2.18-.66-.73,4.48L100,393.84c-1.08-.35-1.64-1.29-1.17-1.91C99.72,390.83,98.9,389.37,100.15,388.3Z"/><path d="M115.1,396.55l1.88,1-.69,2.88-2.61,1-1-3.38Z"/><path d="M639.27,748.58l-1.78-.78a4.66,4.66,0,0,1,1-4.08,1.57,1.57,0,0,1,2.24.56C640.93,745.93,640.79,747.49,639.27,748.58Z"/><path d="M284.42,761.16v-3c.49-.19,1-.41,1.46-.56s1-.21,1.73-.36l1.35.63-.79,2.55Z"/><path d="M109.76,381.34l.88.88V384l-2.07,1.3-2.36-.77v-2.1Z"/><path d="M134.35,411.26h-2.71v-2.68l1.49-1.23a2,2,0,0,1,2.46,1.15Z"/><path d="M282.07,775c-.2-1,.76-1.43,1.36-2.12.87-.12,1.78-.31,2.44.58.17,2.27,0,2.67-1.58,3.69Z"/><path d="M329.7,729.85l-2-1.3.88-1.87c1.08-.37,2.32-1.55,3.7.09v2Z"/><path d="M340.61,757.12c-1.27.23-2.2,2-3.71.24V755l2.65-.84C341,754.74,340.86,755.83,340.61,757.12Z"/><path d="M97.08,247.06H94.91l.69-3.17,1.22-1.27c2.13.45,2.38.84,1.56,2.41C98,245.8,97.44,246.51,97.08,247.06Z"/><path d="M519.6,49l-.84-2.44,3.22-.88a8.56,8.56,0,0,0,.82,1.26,1.88,1.88,0,0,0,.68.32l-2.42,2.43Z"/><path d="M660.52,712.18c1.54,1.4,2.51,2.64,2.26,4.49l-1.49.76a10.11,10.11,0,0,1-2.3-4.31Z"/><path d="M669,87.55c.73,1.53.66,2.38-.24,2.78s-1.73-.25-2.29-2.21c-.2.18-.38.47-.61.53a4.26,4.26,0,0,1-1.08,0L664,87.9l1.38-2A4.36,4.36,0,0,0,669,87.55Z"/><path d="M105.53,227.87l1.95.68.62-.54,2.07,1.39c-.36,1.33-1.12,1.57-2.16,1.29l-.37-1c-1.5,1.23-2.06,1.37-2.75.69S104.25,229.24,105.53,227.87Z"/><path d="M612.06,715.59v-1.2l3.1-1.48c1.64.45,1.44,1.59,1.33,2.69C614.29,716.57,614.29,716.57,612.06,715.59Z"/><path d="M886.69,455.62l-1.5.68c-.19-.23-.66-.53-.71-.89a15.06,15.06,0,0,1,0-2.8,1.42,1.42,0,0,1,1.72-1.29c.75.17,1.51,1.31,1,1.89C886.56,454,886.77,454.76,886.69,455.62Z"/><path d="M538.76,69.28l-2.43,1-1.49-2,.63-1.45,1.72-.77A3.87,3.87,0,0,1,538.76,69.28Z"/><path d="M628.94,783.74,627.52,786l-2-1a10.57,10.57,0,0,1,2.53-4.62Z"/><path d="M840,419.83l2.64,1v3.3c-.85.19-1.78.45-2.64-.66Z"/><path d="M874.69,216.07c-.35.28-.56.46-.78.62-.06,0-.18,0-.28,0-1.3-.47-1-1.56-1-2.58l2.07-.68c1,.63,1.45,2.19,3,2.26l-.72,1.43Z"/><path d="M11,489.73h1.9l2,3c-1.66.81-3,0-4.21-.66C9.93,491.65,10.07,491.14,11,489.73Z"/><path d="M951.69,448.8l-.86,3c-1.41.56-1.91-.65-2.63-1.32v-1.62C949.31,447.12,950.4,448.28,951.69,448.8Z"/><path d="M899.07,591.1c.22,3.13-2.28,2.71-3.84,3.68l-1.62-1.48C895.58,592.54,897,591.32,899.07,591.1Z"/><path d="M123.48,401.57l-1.48-.62v-2.58l1.37-.71c.38.14.59.15.7.27.61.65,1.57,1.11,1.17,2.47Z"/><path d="M120.36,212.66l-.86-2.37,1.16-1c.21.1.52.14.66.32.48.63.9,1.3,1.34,2l1.09-.64c.93.82.13,1.17-.31,1.71Z"/><path d="M310.49,781.92a5.83,5.83,0,0,1-.72-1.6c-.15-1.24.53-2.19,1.58-3.22a8.45,8.45,0,0,1,.06,1.51c0,.23-.32.43-.62.8l2.79.21v1.51a8.58,8.58,0,0,0-1.42.12A12.94,12.94,0,0,0,310.49,781.92Z"/><path d="M839,399.86l2.31.69.57-1.15c1.32.14,1.58.95,1.32,2.32A2.87,2.87,0,0,0,840,402.9C838.45,402.24,838.64,401.18,839,399.86Z"/><path d="M849.85,365.69l1.25,1.28v2.49H849l-.81-3.77Z"/><path d="M239.26,760.41l1.72-.76,1.62,1.88-.71,1.57C239.31,763.17,239.31,763.17,239.26,760.41Z"/><path d="M852.27,457.5l-1.33.59c-1,0-1.78-1.11-2.06-2.58l1.83-.81C851.93,454.7,852.23,455.31,852.27,457.5Z"/><path d="M848,430.94l1.68,1.64-.73,1.75c-1.14.08-2.1.32-2.76-.77v-1.77Z"/><path d="M95.38,219.85l1.92-1.92c1.66.08,1.66.08,2.08,1.64l-1.61,1.64C96.58,221.45,96.21,220.39,95.38,219.85Z"/><path d="M539.76,736.7h-2.65l-.8-1.69,1.77-1.92,1.78,1.6C539.82,735.32,539.79,736,539.76,736.7Z"/><path d="M111,405.07c.31,1.08,1.7,2.12,0,3.33h-1.8c-.14-.34-.25-.67-.4-1a10.23,10.23,0,0,0-.61-.9l2-1.09-.35-.36Z"/><path d="M895.54,489.91l1.39-2.44c1.43.6,2.29,1.48,2.16,3.06l-1.46.74Z"/><path d="M851.11,440.82v1.82c-1.37,1-1.73,1-2.37.33a2.08,2.08,0,0,1,0-2.49C849.38,439.81,849.74,439.85,851.11,440.82Z"/><path d="M847.83,436.43l.81-1.38,1.94-.81,1.22,1.05L851,437a1.38,1.38,0,0,1-.46.17C848.87,437.2,848.87,437.2,847.83,436.43Z"/><path d="M498.15,64.08V61.13h2L502.05,63l-.81.82-.61-.53Z"/><path d="M490.42,75.83,488,77.89H486.9v-2l1.31-1.34C489.19,74.39,489.82,74.78,490.42,75.83Z"/><path d="M872.87,223.95l-1.07,2-2.94-1.72,1.94-2.07Z"/><path d="M833.51,205.94l1.17,1.92-1.76,1.42L831.41,208C831.66,206.3,831.66,206.3,833.51,205.94Z"/><path d="M524.83,43.46l-2.49-1.79,2-.52-.34-.54,2.24.85v2Z"/><path d="M644.32,719.78c-.28.33-.62,1-.84.94-1.46-.25-2.11,1.84-3.62,1.25-.41-.82-.31-1.65.45-1.92a28.09,28.09,0,0,1,3.75-.87Z"/><path d="M511.7,29.8c-.39-1.39.7-1.91,1.47-2.63,1.69,1.24,1.75,1.71.37,3.51Z"/><path d="M885.58,399.87v-2.6l1.81-.87.87,1.64C887.68,398.87,887.6,400.47,885.58,399.87Z"/><path d="M878.75,342.67v1.84a1.52,1.52,0,0,1-2.16-.6v-3.58l.94-.18.23,2.13Z"/><path d="M876.06,621.87l-.85-2.72,2.31-.74c1.08.53.62,1.55.73,2.41Z"/><path d="M891.66,508.13l.95,2.21a24.56,24.56,0,0,1-4.13.24v-1.5l1.35-.69C890.35,509,890.94,509,891.66,508.13Z"/><path d="M246.91,700c-1,.1-2.05.31-2.68-1.1l1.53-1.76,1.77.77A1.49,1.49,0,0,1,246.91,700Z"/><path d="M229.61,770v2.75c-.8,0-1.6.4-2.28-.29a1.73,1.73,0,0,1-.48-.9C226.69,770.41,227.3,770,229.61,770Z"/><path d="M128.91,231.1l-.77,1.88c-1.24.13-2.28.33-2.92-1.06l1.3-1.55Z"/><path d="M0,510.31l1.56-.8,1.87,1.11v1.53H.88Z"/><path d="M669.47,705.8l-2.07.6v-3l2.07-.83Z"/><path d="M637.94,727.85l-1.61.61.29.27h-2.71l.77-1.93,1-.56Z"/><path d="M851.33,341.64c-.51.18-.85.27-1.16.42s-.27.26-.62.6l-1.11-3.46,2-.14Z"/><path d="M902.65,487.84l1.11,1.17a6.17,6.17,0,0,1-4.17,2.48C899.86,489.31,902.12,489.49,902.65,487.84Z"/><path d="M577.63,806.63c.94-.22.57-2,2.25-1.58a22.9,22.9,0,0,1-.6,2.9c-.14.43-.69.73-1.22,1.24l-1-2Z"/><path d="M55.45,483c-.49.79-1.08,1.22-1.9,1a12.31,12.31,0,0,1-1.67-.69c.29-1,.6-1.51,1.52-1.57A1.77,1.77,0,0,1,55.45,483Z"/><path d="M147.46,223.68l-2.94,2.11-2.3-1.34C144.21,223.91,145.58,223.07,147.46,223.68Z"/><path d="M76.81,425.32H74.49l-.63-1.87,1.61-.81L76.81,424C76.81,424.34,76.81,424.72,76.81,425.32Z"/><path d="M885,459.49c-1.35,1.05-1.35,1.05-2.83,0l2-2.75Z"/><path d="M891.55,602.89l1.67-1.39,1.46.69a4.58,4.58,0,0,1-.57,1.56C893.45,604.5,892.93,604.32,891.55,602.89Z"/><path d="M256.49,782.95l-2.32-1.52a9.26,9.26,0,0,1,1.41-1.27,1.27,1.27,0,0,1,1,.15C257.52,780.84,257.5,781.39,256.49,782.95Z"/><path d="M504.76,55.7l1.54,4.13-3.42-1.92Z"/><path d="M126.84,502.46l.87-2.74,2,.52a3.21,3.21,0,0,1-.12.64C129.11,501.83,128.8,503,126.84,502.46Z"/><path d="M541.83,54.14,542.7,57h-2.07l-.9-1.83Z"/><path d="M462.33,62.12h-1.8a1.52,1.52,0,0,1,.6-2.16h1.8A1.52,1.52,0,0,1,462.33,62.12Z"/><path d="M154,217.29l-1.72-.08c.48-1.79,1.81-2.25,3.35-2.89,0,.51,0,1-.15,1.24A20,20,0,0,1,154,217.29Z"/><path d="M864.32,200.2l.52-3.71H867C866.69,198.13,865.49,198.9,864.32,200.2Z"/><path d="M831.56,419a2.83,2.83,0,0,1,1.9-2.05l.76.76C834,420,833.41,420.24,831.56,419Z"/><path d="M923.71,595.17l-2.49,1.3v-2.31l1.23-.52Z"/><path d="M869.67,278.35c-.07,1.83-.07,1.83-1.86,2.08C867.44,278.18,867.44,278.18,869.67,278.35Z"/><path d="M267.64,774.25l-2.34,1.13a10.44,10.44,0,0,0-.14-1.6,3.48,3.48,0,0,0-.53-.85C265.8,772.7,266.85,772.49,267.64,774.25Z"/><path d="M577.07,807.19l-1.87-.9.87-2c1.66.24,1.59,1.29,1.57,2.31Z"/><path d="M667.33,72.86l-2.4,1.25-1.25-1.35,2.16-1.13Z"/><path d="M912,492.37a1.33,1.33,0,1,1,0-2Z"/><path d="M906.81,473.81c-2.38-.12-2.38-.12-2.67-2.15.62.08,1.3,0,1.68.28S906.38,473,906.81,473.81Z"/><path d="M936.21,540.35h-2a1.53,1.53,0,0,1,1-2.2C936.24,538.49,936.5,539.23,936.21,540.35Z"/><path d="M939.76,512.7v-1.93l1.45-.74.57.67-.54,2Z"/><path d="M124.41,481l-2.35,1.11v-2.43C123,479.23,123.72,479.6,124.41,481Z"/><path d="M829.3,392.57a1.33,1.33,0,1,1,2,0Z"/><path d="M8.43,499.35a1.55,1.55,0,0,1-1,2.2,1.55,1.55,0,0,1-1-2.2Z"/><path d="M874.22,202.79c-.12,2.38-.12,2.38-2.15,2.67.08-.62,0-1.3.28-1.68S873.36,203.21,874.22,202.79Z"/><path d="M892.69,353.14h-1.38v-2.32l2.12.52Z"/><path d="M250.37,802.14c.35,1.16,0,1.87-1.34,2.41l-.78-1.21C248.49,802.31,249.2,802,250.37,802.14Z"/><path d="M866.87,421.88l.81,2.08c-1.26.59-1.93.21-2.52-.9Z"/><path d="M833.8,423.36l-1.5-1.2,1.22-1.47,1.47,1.08Z"/><path d="M535.26,694.65l1.11,1-.81,1.64-1.75-.85Z"/><path d="M666.39,708.6a2.59,2.59,0,0,1,1.93,2,2.22,2.22,0,0,1-2.62-.65Z"/><path d="M300.45,748.66c-.33-2.07-.13-2.28,2-2.2C302.27,747.69,301.44,748.2,300.45,748.66Z"/><path d="M742.17,83.69c.54,1.19-.2,1.68-1.19,2.62l-.59-1.72.43-.9Z"/><path d="M717.52,691.27l.69,2.46h-2.35c0-.31-.1-.65,0-.79C716.28,692.45,716.77,692,717.52,691.27Z"/><path d="M142.62,132.94c.07,2.39-.16,2.59-2.18,2.23A4.16,4.16,0,0,1,142.62,132.94Z"/><path d="M107,288.77c.33,2.07.13,2.28-2,2.2C105.14,289.74,106,289.23,107,288.77Z"/><path d="M877,436.3l1.29-1.38,1.27,1.75-1.72,1.15Z"/><path d="M104,289.4l-.18-1.94,2-1c.12.33.34.62.27.77A6.9,6.9,0,0,1,104,289.4Z"/><path d="M855.41,202.73l-1.82-.58,1.49-1.82.79,1.9Z"/><path d="M552.3,90.91V89.33h2.22C554.45,90.76,553.61,91,552.3,90.91Z"/><path d="M785.27,96.55l2.26.11c-.27,1.44-1,1.8-2.26,1.49Z"/><path d="M857.66,198.23l2.08,1.89-1.22.82C857.53,200.6,857.11,199.9,857.66,198.23Z"/><path d="M944.83,508.87v-1.62H947C946.54,508.64,946.54,508.64,944.83,508.87Z"/><path d="M115.65,264.06c-2.08.13-1.14-1.94-2.23-2.54l1-.78Z"/><path d="M63.75,456.3c-1.25.27-2,0-2.23-1.46h2.23Z"/><path d="M107.56,284.34c1,1.52,1,1.52,0,2.84C106.39,285.83,106.4,285.82,107.56,284.34Z"/><path d="M483,12.44h-3.09l1.08-1.91Z"/><path d="M332.83,743.72l1.15-1,1.33,1.2-1,1.26Z"/><path d="M438,30.08c-1.24-.24-1.5-1-1.36-2.14C438.27,28.08,438.35,28.2,438,30.08Z"/><path d="M447.82,56.19,445,55.12,447.82,54Z"/><path d="M317.63,782.66v1.66c-.47.59-1,.48-2.44-.67Z"/><path d="M887.36,427.79l-.9-2.32h1.71C888.88,426.36,888.24,427,887.36,427.79Z"/><path d="M103.79,200.26v3.09l-1.92-1.08Z"/><path d="M886.54,428.39c1.37-.43,2.09-.07,2.45,1.07C887.6,429.94,887.6,429.94,886.54,428.39Z"/><path d="M843.58,219.19l1.91,1.64-1.76.65C843.23,221.25,843,220.54,843.58,219.19Z"/><path d="M908.51,474.11l-1-1.32,2-.76C910.14,473.22,909.36,473.49,908.51,474.11Z"/><path d="M127.26,496.46l.54-.54a4.35,4.35,0,0,0,.66.5,8.52,8.52,0,0,0,1.15.38L128.54,498Z"/><path d="M671.11,703.18a1.74,1.74,0,0,1,.52-2.64l.65,1.37Z"/><path d="M377.09,702.25H374.7v-1.59c.3,0,.63-.1.78,0C376,701.08,376.4,701.56,377.09,702.25Z"/><path d="M140.54,155.22c-.19-1.45,1.14-1.61,1.73-2.85C142.72,154,142.72,154,140.54,155.22Z"/><path d="M132.17,406.2l-1.39,2.33-.86-.81.74-1.51Z"/><path d="M290.52,700.27l-1,1.11-1.35-1.3C288.63,699.19,289.18,699.28,290.52,700.27Z"/><path d="M158.51,410.23v1.55H157v-1.55Z"/><path d="M277.87,708.26l-2-1.62,1.87-.63C278.17,706.19,278.36,706.91,277.87,708.26Z"/><path d="M910.3,469.49l1.63,2-2.68.21Z"/><path d="M134.88,149.86l2-1,.49,1.43-.58.56Z"/><path d="M648.72,81.1,647.65,80c.45-.94,1.15-1.17,2.36-.65Z"/><path d="M830.24,235.22H828.4l1.08-1.82,1.4,1Z"/><path d="M485.6,55.35h-1.5V53.81l1.5-.13Z"/><path d="M689.28,705.91l.49.52.58.58c-.45,1-1.15,1.18-2.36.65Z"/><path d="M134.46,426l-.15-1.68h1.57C136.25,425.07,136.18,425.16,134.46,426Z"/><path d="M839.62,341.92l-.81-.81,1-1.56C840.74,340,840.65,340.52,839.62,341.92Z"/><path d="M837.71,101.9V100l1.57-.11C839.44,101.05,838.8,101.4,837.71,101.9Z"/><path d="M139.37,426.06c.07-.82.11-1.32.19-2.28l2,1.89Z"/><path d="M148.95,211.72v.93H146.8v-.93Z"/><path d="M223.85,708.64l-1.33-1.58,1.91-.34v1.78Z"/><path d="M83.66,540.18l-1.19.42-.9-.55,1.22-1.43Z"/><path d="M233.72,706.58l-1.4,2-.56-1.67,1.49-.74Z"/><path d="M438.33,58.64v-1.4h1.77C439.87,58.37,439.45,59,438.33,58.64Z"/><path d="M493.07,0c-.06.82-.1,1.32-.16,2.28l-2-1.87Z"/><path d="M919.32,566.07l1.92,1.11-1.61,1.23Z"/><path d="M87.06,480.91,88.8,482l-1.75,1.08Z"/><path d="M369.45,704.33l-.77.77-1.12-1,1.1-1.31Z"/><path d="M692.6,92.1h2.15c0,.16.05.33,0,.42a1.51,1.51,0,0,1-2,.54Z"/><path d="M190.7,88.2a1.5,1.5,0,0,1-2.17.89V88.2Z"/><path d="M139.77,135.23l-2.06-1,.12-.33H140Z"/><path d="M122.24,236.86H120l1-1.67Z"/><path d="M889.75,363.19,891,364.8l-2.34.31Z"/><path d="M487.93,50.32c.05-.7.08-1.2.14-2l1.8,1.11-1.38.54.3.31Z"/><path d="M876.25,322.69H874.4l.61-1.52Z"/><path d="M841.53,446.72v1.66l-1,.19c0-.56-.09-1.06-.13-1.63Z"/><path d="M861.83,440v1.66l-1,.19-.13-1.63Z"/><path d="M865.41,486.85h.87l.14,1.56-1,.2Z"/><path d="M500.17,73.88l1.34,1-1,1-.85-1.48Z"/><path d="M873.36,201l-1,1.82c-.18-.54-.25-.87-.39-1.17a4.28,4.28,0,0,0-.51-.65Z"/><path d="M798.23,218.67l-.84,1.54-.89-1,1.25-.93Z"/><path d="M624.26,710l1.24-1.24V710Z"/><path d="M451.61,52.65,451.22,51l1.06-.21v1.76Z"/><path d="M665.47,714.7h-.87l-.14-1.56,1-.2Z"/><path d="M207.62,95l.14-2,1.67,1Z"/><path d="M135.51,130.87v-.93h1.63C137.2,131.52,136.21,130.83,135.51,130.87Z"/><path d="M615.33,728.13l1-1.15,1.17,2.14Z"/><path d="M514.46,11.83V11l1.56-.14.2,1Z"/><path d="M508.08,8.07h1.21v1.6C507.62,9.8,508.56,8.69,508.08,8.07Z"/><path d="M437.95,88.85l-.23-1.22h2.7Z"/><path d="M112.9,210.21l.83-.83,1,.9-1,.72Z"/><path d="M861.79,224l.2-1,2,1.85Z"/><path d="M145.29,210h2.07l-.35,1.41Z"/><path d="M309.26,792.26v-2l1.3.24Z"/><path d="M132,217.3l-1.31-.23,1.31-1.8Z"/><path d="M501.15,19.57l-.28-1.3h2Z"/><path d="M313.64,775.85v2.07l-1.42-.35Z"/><path d="M923.35,481.92v.82l-1,.21-.21-1Z"/><path d="M918.23,551.29l-1.47,1.2-.24-1.2Z"/><path d="M752.18,690.53l-1.52-.85C751.67,688.81,752,689.82,752.18,690.53Z"/><path d="M479.35,11.36l-1.2-1.47,1.2-.24Z"/><path d="M655.48,75.93l1.35,1.1C655.88,77.58,655.42,77.57,655.48,75.93Z"/><path d="M881.08,227.39c0,.36-.05.7-.08,1-1,.38-1.12-.08-1-.91Z"/><path d="M319.37,780.78v-1.15l1.87.83Z"/><path d="M272.49,786.1l-1.35-1.1C272.09,784.45,272.56,784.46,272.49,786.1Z"/><path d="M922.25,336.49l1.35,1.1C922.65,338.14,922.18,338.14,922.25,336.49Z"/><path d="M848,426.63l1.94-.16v1.1Z"/><path d="M624.73,85.08l.64-1.37C625.45,85.26,625.45,85.26,624.73,85.08Z"/><path d="M876.9,433.54l-1.37-.64C877.08,432.83,877.08,432.83,876.9,433.54Z"/><path d="M595,699.57v1.5l-.3,0q-.1-.75-.21-1.49Z"/><path d="M654.59,705.13c.13.11.31.21.37.35a4.62,4.62,0,0,1,.21.76c-.25-.06-.58,0-.71-.2s-.06-.47-.05-.72C654.41,705.26,654.53,705.2,654.59,705.13Z"/><path d="M123.06,258.86h-1.69v-.28h1.69Z"/><path d="M126.61,412.38l.59-1.19.38.23a2.44,2.44,0,0,1-.24.87C127.25,412.42,126.89,412.35,126.61,412.38Z"/><path d="M503,87.55v1.13h-.28V87.55Z"/><path d="M443.26,75.7v1.13H443V75.7Z"/><path d="M86.52,481.22c0-.36-.06-.72-.09-1.08l.36,0,.22,1.1Z"/><path d="M491.2,50.89V52h-.28V50.89Z"/><path d="M423.8,28.89V27.76h.28v1.13Z"/><path d="M490.69,71.66h-.93l0-.27.92-.22Z"/><path d="M119.58,287.67h-.93l0-.27.92-.22Z"/><path d="M880.63,482.9v-1.13h.28v1.13Z"/><path d="M796.55,213.41h.94l0,.27-.92.22Z"/><path d="M830.39,233V232l.27,0,.22.92Z"/><path d="M881,227l1.08-.09,0,.36-1.1.22Z"/><path d="M111.07,225.72v1.13h-.28v-1.13Z"/><path d="M118.91,277.69l.2.2a1.84,1.84,0,0,1-.38.18s-.12-.11-.19-.18Z"/><path d="M114.31,587.8a1.6,1.6,0,0,1,.18.38s-.11.12-.18.19a1.79,1.79,0,0,1-.18-.38S114.25,587.87,114.31,587.8Z"/><path d="M173.33,641l.2-.2a1.75,1.75,0,0,1,.18.38s-.11.12-.18.19Z"/><path d="M653.49,93.75a1.65,1.65,0,0,1,.18.38s-.11.12-.18.19a1.84,1.84,0,0,1-.18-.38S653.42,93.81,653.49,93.75Z"/><path d="M155.77,223.19a1.81,1.81,0,0,1-.38.18s-.12-.11-.18-.18a1.71,1.71,0,0,1,.38-.18S155.7,223.12,155.77,223.19Z"/><path d="M318.71,88.17l-.46-.39.18-.18.39.46Z"/><path d="M668.94,87.5l.39-.46.18.18-.46.39Z"/><path d="M800.35,221.27l-.46-.39.18-.18.39.46Z"/><path d="M868.37,424.25a1.81,1.81,0,0,1,.18.38s-.11.12-.18.18a1.63,1.63,0,0,1-.18-.38S868.3,424.31,868.37,424.25Z"/><path d="M506,67a1.71,1.71,0,0,1-.38.18s-.12-.11-.18-.18a1.79,1.79,0,0,1,.38-.18S505.94,66.9,506,67Z"/><path d="M508.06,60l.2.2a1.72,1.72,0,0,1-.38.18s-.12-.11-.18-.18Z"/><path d="M500.08,54.83a1.83,1.83,0,0,1,.18.38s-.11.12-.18.18a1.66,1.66,0,0,1-.18-.38S500,54.9,500.08,54.83Z"/><path d="M105.85,220.65a1.6,1.6,0,0,1,.18.38s-.11.12-.18.19a1.79,1.79,0,0,1-.18-.38S105.79,220.71,105.85,220.65Z"/><path d="M106.06,216.9l-.2.36c-.06-.06-.19-.14-.18-.19a1.78,1.78,0,0,1,.18-.38Z"/><path d="M478.29,47.3l-.2.2a1.81,1.81,0,0,1-.18-.38s.11-.12.18-.18Z"/><path d="M439.82,44.6l-.36-.2c.06-.06.14-.19.18-.18a1.74,1.74,0,0,1,.38.18Z"/><path d="M797.67,212.39l.2-.2a1.8,1.8,0,0,1,.18.38s-.11.12-.18.19Z"/><path d="M500.16,20.91l-.36-.2c.06-.06.14-.19.19-.18a1.73,1.73,0,0,1,.38.18Z"/><path d="M496.5,12.74l.2-.2a1.86,1.86,0,0,1,.18.38s-.11.12-.18.19Z"/><path d="M498.19,12.34l.2-.36c.06.06.19.14.18.19a1.84,1.84,0,0,1-.18.38Z"/><path d="M477.89,2.58l.2-.2a1.84,1.84,0,0,1,.18.38s-.11.12-.18.19Z"/><path d="M121.73,168.84l.2.2a1.65,1.65,0,0,1-.38.18s-.12-.11-.19-.18Z"/><path d="M860.83,475.93l.2-.36c.06.06.19.14.18.19a1.84,1.84,0,0,1-.18.38Z"/><path d="M334,699.75a1.63,1.63,0,0,1-.38.18s-.12-.11-.18-.18a1.8,1.8,0,0,1,.38-.18S333.92,699.69,334,699.75Z"/><path d="M920.25,478.39a1.62,1.62,0,0,1,.18.38s-.11.12-.18.19a1.84,1.84,0,0,1-.18-.38S920.19,478.45,920.25,478.39Z"/><path d="M637.35,706.19l.39-.46.18.18-.46.39Z"/><path d="M127.85,283.25a1.84,1.84,0,0,1,.18.38s-.11.12-.18.19a1.84,1.84,0,0,1-.18-.38S127.79,283.31,127.85,283.25Z"/><path d="M637.47,706.29l-.39.46-.18-.18.46-.39Z"/><path d="M834.73,375.54l-.2.2a1.84,1.84,0,0,1-.18-.38s.11-.12.18-.19Z"/><path d="M142,132.18l.2.2a1.84,1.84,0,0,1-.38.18s-.12-.11-.19-.18Z"/><path d="M122.29,391.05l.2.2a1.84,1.84,0,0,1-.38.18s-.12-.11-.19-.18Z"/><path d="M907.48,492.29l-.2.2a1.83,1.83,0,0,1-.18-.38s.11-.12.18-.18Z"/><path d="M110.57,282.32l-.2.36c-.06-.06-.19-.14-.18-.19a1.84,1.84,0,0,1,.18-.38Z"/><path d="M804.3,233.11l-.46-.39.18-.18.39.46Z"/><path d="M147.59,101.65a1.84,1.84,0,0,1,.18.38s-.11.12-.18.19a1.65,1.65,0,0,1-.18-.38S147.53,101.71,147.59,101.65Z"/><path d="M263.69,773.44l.36.2c-.06.06-.14.19-.18.18a1.81,1.81,0,0,1-.38-.18Z"/><path d="M884.8,514l.2.2a1.71,1.71,0,0,1-.38.18s-.12-.11-.18-.18Z"/><path d="M861.94,224.08l-.39.46-.18-.18.46-.39Z"/><path d="M830.58,420.3a1.64,1.64,0,0,1,.18.38s-.11.12-.18.18a1.74,1.74,0,0,1-.18-.38S830.52,420.36,830.58,420.3Z"/><path d="M818.94,285.59h3.34l.07.26-2.71.57Z"/><path d="M166.53,107.23l.46.39-.18.18-.39-.46Z"/><path d="M777.36,672.76l.2-.36c.06.06.19.14.18.18a1.81,1.81,0,0,1-.18.38Z"/><path d="M144.29,484.67l.2.2a1.84,1.84,0,0,1-.38.18s-.12-.11-.19-.18Z"/><path d="M165.7,219.54l-1.1,1.35C164,219.94,164,219.48,165.7,219.54Z"/></g></g></svg>