<svg xmlns="http://www.w3.org/2000/svg" viewBox="0 0 1227.74 1134.92"><title>Asset 3</title><g id="Layer_2" data-name="Layer 2"><g id="Layer_2-2" data-name="Layer 2"><path d="M1227.74,103.61q0,515.65,0,1031.3H0Q0,653,0,171.14V124.48l1.35,0v7.67l1.46,0L7.67,98.28c.92,8.85.72,17.6,1,26.34.12,3.51,1.32,7,2,10.46L10.6,135l.39,1.81.12-.12c.33,1.68,1.53,4,.84,4.94-4.38,6-1.5,12.7-2,19-.65,8.09-.47,16.25-.65,24.38v0c-.54,4.12,4.74,8,.62,12.31-.21.22.3,1.09.42,1.67.44,2.13,1.75,4.58,1.13,6.36-2.54,7.33-1.86,14.6.08,22l.65-5.2c1,2.1,1.4,4.52.38,6-3.35,4.84-4,12.33-.81,17.2h-.05l-1.43,5.72.4-.11c.21-1.13.43-2.26.91-4.83L16.38,253c0-6.63,0-12.28,0-17.91a1.27,1.27,0,0,1,0-.23l-.17.36L15.15,233c5.14-.16,3.3-3.35,2.62-6l0,.09c.07-5.59,3.24-11.68-1.14-14.8.4-3.69.73-6,.85-8.22,0-.86-.61-1.74-.61-2.61q.09-34.29.29-68.59Q17.3,122,18,111.14c.06-.94,1.8-1.78,2.77-2.67a6.41,6.41,0,0,1-.91-4.92c.18-1.48.42-2.95.64-4.42l-.12.12c.79,1.33,2.15,2.6,2.28,4,.55,5.77.73,11.58,1,17.37l2-.13q0-2.91,0-5.82l.54-.87-.37,1V100l2.07-.28c.51,1.46,1.42,2.91,1.47,4.38.48,14.2.92,28.41,1.12,42.62.08,5.41-.64,10.82-.75,16.24,0,2.57.83,5.15.73,7.71-.36,8.87-3.21,17.4,1.56,26.56,2.84,5.45,2.17,13.09,1.92,19.69-.28,7.19-1.91,14.33-3,21.94l4.74-2.53-.12-.11c2.84,2.53,3.68,1.3,3.74-1.88.08-4.09-.27-8.3.62-12.22,1.17-5.14.25-7.74-3.29-8.5,1-1.3,3.49-3,3.64-4.82.25-3-1-6.09-1.73-9.57L40.46,198l-2.34-2.6L40.37,183l-5.13-.58,7.46-3.56-5.16-6.62L40.74,171c-.47-8-1-16.17-1.41-24.39q-.57-12.57-.74-25.15c0-.81,1.33-1.65,2-2.47l1.72.6c-.92-5.74-2-11.46-2.68-17.22-.33-2.83.22-5.75.22-8.63,0-1.18-1-2.93-.51-3.46,4.59-5,2-10.63,1.74-16C40.59,64,38.9,53.61,43.06,43.6l-.17-.16c.6,1.06,1.2,2.12,1.78,3.2,0,2.23,0,4.44,0,6.64a3.29,3.29,0,0,0-.22.37l.3-.11-.15-6.83L46,40.43h0l0-.1h0c.61-1.37,1.68-2.72,1.75-4.12.23-4.56-.09-9.14.22-13.69.1-1.56,1.42-3,2.18-4.56l1.28.54V53.09L61,31c.25,2.2-.18,4.36-.21,6.53,0,.42,1.55.86,2.39,1.3q0,5.87,0,11.73h.58l-.58-11.7c1-1.48,3.28-3.44,2.92-4.35-3-7.47,3.19-12.87,4-19.41l.89,1.63c.48,6.75,1.26,13.5,1.38,20.26.22,12.76.06,25.52.06,37,.31-.42,2.17-1.79,2.35-3.35,1.4-12,3.71-24.12,3.11-36.07-.28-5.56,1.84-4.29,3.84-5L83.57,44.7A21.38,21.38,0,0,0,82.37,58l2.82-.16L83.42,44.59c.42-2,.73-4.05,1.28-6,.47-1.7,1.2-3.32,1.81-5,1.85,3,2.05,5.43,2.73,7.78.12.42,2.18.29,3.35.41l-.17.16q-.9,3.68-1.79,7.38c-.2.47-.42.93-.63,1.39l.49.11,0-1.68,3.27,2.1c.73-1.61,1.82-3,1.92-4.4,1-14.31,1.72-28.63,2.65-42.95.09-1.32.92-2.59,1.4-3.89l0,.17a28.59,28.59,0,0,1,1,5.1c.12,10.29.1,20.59.13,30.88l-1.62.47,1,1.27q.13,3.49.26,7c.24,1,.47,2,.7,2.93l1-.66L100.17,45q0-3.55,0-7.11l.53-1.87a11.15,11.15,0,0,0,1.3-2.77c.8-4.85,1.45-9.73,2.16-14.6l-.2-.18c.38,5.14.6,10.31,1.19,15.43a93.22,93.22,0,0,0,2,9.24l4.48-4.08C112.07,40.4,113,41.71,113,43c.14,7.48.07,15,.07,22.46l1.76,0V19.15L116.51,22l4.26-7.28,0,0L119,46.77l2.05.13,1.1-4.72c.26,3.72-1.47,7-1.71,10.37-.78,11.23-.63,22.54-1.6,33.75-.75,8.7-3.12,17.34,2.25,25.44-.14.9-.29,1.78-.44,2.67l.93,0-.6-2.75c.59,2,1.63,4,1.7,6,.22,6.25.08,12.5.08,18.76C124,117.27,124,98.15,124,79c0-.4-.16-.81-.14-1.21q.62-11,1.27-22.07c4.41-.35.43-2.09.52-3.15l2.48-3.66-1.16-.65c-.4,1.46-.81,2.92-1.19,4.39a5.19,5.19,0,0,1-.1.55h-.55c-.33-4-1.33-8-.86-11.89C125.4,31.74,120,21,128.79,13.05l-2.48-7.57,4.11-.31-.86,2.93a2.12,2.12,0,0,1,.3.14l-.23-.36c.58,1.9,1.55,3.77,1.67,5.7.59,9,.94,18.07,1.38,27.1l.65,0,1.5-29.06,2.72,0q.48,7.79,1,15.59c-.27.54-.56,1.07-.13.28l0-.46c.23,1.37.87,2.83.6,4.09-.32,1.55-1.4,2.94-2.14,4.4-.07.61-.16,1.21,0,.17l-.09-.18,3.74,8.56,0,0-2.94.58c-.06-1-.11-1.94-.23-4.09l-2.38,5,2.83-1.18c-.38,2.11-.85,4.21-1.1,6.34s-.28,4.21-.41,6.3l-.1.38-.21-.35.34.11,3.94-3.28c-1.36,6.06-3.12,11.78,1.11,17,.21.26-1,1.68-1.25,2.08.77,1.79,2.08,3.56,2.15,5.38.05,1.39-1.47,2.84-2,3.74.38,1.42.77,2.91,1.17,4.4l-.65.92.51-1,4.65-.79c-3,4.19-.91,15.14,2.45,16.1q-2.28,1.46-4.56,2.93l-.17-.11.29.25.78,4.58-3.81.67c.06-.92.11-1.83.16-2.74l-1,.2,1,2.43,2.26,6.62,1.9-2.55c-.42,5.64-.71,9.6-1,13.57l-2.18-.12.18,1,2-.88-2.28,4.45c4.42,0,5.86-2.39,5.27-7.73-.19-1.72.56-3.55.89-5.33l1.48.36v18.94l3.61-4.07a35.18,35.18,0,0,0-.3,5.26c.5,4.5-.43,11.16,2.11,13,5.57,4.12,4.25,9.21,4.33,13.9.38,22.36.25,44.73.33,67.1,0,.54.32,1.07.16.56,0-14-.14-29,.06-44,.1-7.64.49-15,2.34-22.81,2.52-10.56.72-22.12,1.07-33.25.22-7,1-14,1.56-21.6l4.46,3.22c-1.44,2.83-3.64,5.47-4,8.34a16,16,0,0,0,2,8.8c2.59,4.87,3.38,17.24-.11,23.28l.51-9.48a3.72,3.72,0,0,0-1.95,3.09,59.89,59.89,0,0,0,.08,9.79c.34,2.53,1.62,4.93,2.5,7.4l.29.36-.49-.1.37-.2c-3,6.63-1.78,13.18.7,19.75l.37-6.35c.79.48,1,1,1,1.45q0,23.24,0,46.48a5,5,0,0,1-.4,2.3c-1.3,2.41-1.35,2.38,1.77,4.06,0-13-.12-25.67,0-38.38.09-7.14.66-14.27,1-21.41l.42.53-.61-.34c0-2.4-.09-4.8-.12-7.22.34.46.66.93.23.31l-.42-.19q-.09-2.2-.17-4.4l.37.18-.27-.28q1.32-9.88,2.63-19.78l.61-.7v.86l-.7-.29c-.23-4.72-.52-9.44-.69-14.16-.15-4.1-.79-8.5,5.78-10.5l-2.72,10.13-.05.33.08-.36c.59,2.26,1.56,4.51,1.69,6.8.44,7.47.57,15,.82,22.46,0,.92,0,1.84,0,2.75l1,2.41,1-.86-1.9-1.51q0-1.44,0-2.86c.55-.42,1.45-.74,1.58-1.27,1-3.77,1.77-7.59,2.63-11.39l.19.11-.33,0v-7.51l2.6,0v32.78l1.39-.31,6.58-11.15-.15.12c.58,1.11,1.72,2.26,1.66,3.34-.41,7.06-1.07,14.1-1.66,21.14l-2.43-3.42,1.75-.9-.41-.7-1.31,1.65-1.72,9.83,1.83.28.51-3.44,0,0,1.65-3.36,3.92,47.47c1-7.37.85-14.77,1-22.16.11-5.57-1-11.64,4.9-15.39q0,2.06,0,4.12l-1.77,2.93,1.13.44.66-3.4q0-2,0-4.07l-5.55-1.95V116.14a65.86,65.86,0,0,1,3.44,13.29,15.17,15.17,0,0,1-.68,7.19,14.51,14.51,0,0,0,.07,10.18,16.75,16.75,0,0,1,.9,3.87c.06.71-.73,13-.51,13.74l-1-.47-.12.58,1.07-.14-1.26,8.87,3.07-.77c0-1.48-.11-3.86,0-6.23.37-6.56.85-13.11,1.28-19.66l-.14.1c.62,1.28,1.73,2.54,1.77,3.83.24,7.49.23,15,.3,22.5,0,.1,0,.2,0,.29l.13-.38c.55-.83,1.54-1.64,1.59-2.5.91-15.89,1.67-31.8,2.61-47.69.08-1.35,1.26-2.63,1.92-3.94l-.13,0c.21,4,.35,8.1.73,12.13,0,.37,1.66.59,2.55.88l-.19.12,2,7.29.9-4.93.78.11v54.42l2.23-.12a21,21,0,0,0-.71-2.46c-.33-.79-1.34-1.65-1.18-2.25,1-3.64,3.08-7.19,3.15-10.81.32-17.86.12-35.73.11-53.6l1.42-.05,1.31,27.28a129.18,129.18,0,0,0,2.29-14.84c.24-1.94.85-3.83,1.28-5.75a.87.87,0,0,1,.21-.1l-.35,0c-1.79-8.47-2.23-16.76,2.4-24.55,0,8.08-.47,15.89.1,23.63,1.25,17.21,2.27,34.38-1,51.49l-.28.21.44-.13c-.09,3.68-.22,7.36-.11,11a34.89,34.89,0,0,0,3.69.24l-.17.16c.63-.62,1.56-1.14,1.83-1.9a35,35,0,0,0,1.07-4.7l-.05-.3,0,.32L235,167.67l1.52-.22.62,7,1.21-1c1.16,1.36,3.08,2.6,3.33,4.12a125.37,125.37,0,0,1,.92,12.6c-.66,4.88-1.54,9.73-1.84,14.62-.08,1.34,1.6,2.78,2.47,4.18l2.27-1.2L242.58,190l3.39,2.42,3.54-.31c4.5-3.29,1.2-7.12,2.07-10.66l-1.89-.12q0,5.47,0,10.93l-3.74.15-1.73-7.86q0-1.21,0-2.42c.59-8.59,1.22-17.17,1.77-25.76.49-7.55.89-15.1,1.33-22.65l-.09.1a8.39,8.39,0,0,1,.7,2.29c.05,9.93-.18,19.87.16,29.78.15,4.38,1.44,8.73,2.22,13.09l1.6-.29v-41a69.37,69.37,0,0,1,1.75,15.18c.13,7.61-.91,15.38.29,22.8,1.12,6.9-4.86,15.2,3.6,20.77.09.06,0,.39,0,.73h-2.42c0,10.36.05,20.52,0,30.68,0,5.43-.29,10.86-.44,16.29q0,11.36,0,22.71l1.56.05c0-1.8.12-3.6,0-5.38-.47-5.8-1-11.59-1.58-17.39l5.81-1.27c-5.79-3.71-4-6-.12-8,.84-.45,1.14-1.92,1.67-2.94-.06-.19-.1-.35-.15-.51s-.07-.21-.11-.32l.3.95-3.55.22,1.4-7.44.19.16-.51-3.09V222l1.25.07-.13-.08-.49-4.06L259,216.62l2.47-3.92c-4.33-2.33-3.45-5.32-1.09-8.51l.53,2.08,1.22-1.21-1.92-.7v-6.3l4.44-7.15c0,13.08.12,24.82-.08,36.56,0,2.94-1.11,5.86-1.71,8.8l-.92.35.92.74c.17,1.55.34,3.1.48,4.67l-2-.28v.32h2.18c.12,2,.23,3.92.36,5.88a1.33,1.33,0,0,1-.17.22l.35-.1c.29.7.58,1.39.83,2.08-1.14.23-2.25.47-3.36.71l.29,1.21,3-1.92c.6-.77,1.72-1.54,1.73-2.33.1-8.17,0-16.35,0-24.53.09-13.37.15-26.75.49-40.11.12-4.63,1-9.24,1.6-13.85l1.56.14-.45,4.6c0,.95,0,1.88,0,2.82l2,2.76,1-1.6-2.94-1.12c0-1,0-2,0-2.93l2.81-1.63c-1.28-1.91-3.15-3.65-3.71-5.75-1.09-4-1.44-8.23-2.25-13.31l4.91,3L275,105.15l1.4.08q-.42,6.27-.84,12.55-.22,2.2-.45,4.39l1.32-.06-.91-4.33c.63-.44,1.73-.79,1.82-1.32.59-3.46,1-7,1.4-10.45l.18.91.54-.5-.84-.29c.43-6.36.67-12.74,1.4-19.06.2-1.74,1.89-3.3,2.9-4.94l-.07-.06c.61.7,1.78,1.42,1.75,2.09-.17,4-.61,8-1,11.94l-.25.34.11-.5a29,29,0,0,1,1.24,5.53c.17,5.43,0,10.88.17,16.31,0,.59,1.54,1.13,2.36,1.69l-.23,3.74-.76,2.17.83.14c-.09-.82-.17-1.64-.25-2.46q.84-1.8,1.67-3.61c.54.54,1.08,1.09,1.65,1.6.06.05.33-.13.21-.08l2-9,1.25.17v16.61c1-2.4.85-4.82,1-7.22a33.49,33.49,0,0,1,1.13-6.88c.52-1.76,2.39-3.35,2.39-5,0-6.09.06-12,3.57-17.37l-.22-.16,4.33,20.55,1-.2L305.83,99.3l2.42,2.72V86.75l2.25-.77c1.34,2.76,3.43,5.4,3.85,8.29.64,4.42-.14,9,.21,13.52.26,3.39,1.34,6.72,2.06,10.07q-1.39,5.15-2.76,10.3l2.13.34.59-10.66a3,3,0,0,1-.59-.07c-.14,0-.38-.22-.36-.26q1.87-5.75,3.78-11.48l-.19.19,1,7.49c.71-.28,1.72-.67,2.71-1.09a.79.79,0,0,1,.19-.08l-.34-.07V95.94l3.32,0v38.88l1.41-.23,3.84,26.69h.57l2.45-26.83.41,0q.53,8.73,1.06,17.45l-.33-.15.24.22a24.39,24.39,0,0,1,1,4.71c.1,8.83,0,17.67,0,26.5h.3l1.59-13,2.23.23c-.8,10.35-2,20.7-2.23,31.06-.12,6.21,1.41,12.45,2.19,18.68,3.06-5.12-1.12-10.28,1.87-15.13h-.08c.78,1.48,2.17,2.94,2.23,4.46.26,6.06,0,12.14.23,18.21,0,.76,1.53,1.48,2.35,2.21l1.9,4.63.8-.19-1.55-13.06-.78-9.47.06.07c.51-2,1.43-4,1.45-6,.14-12,.07-24,.07-36h1.94v55.63l1.59-3.82,2.29.12.33,61.71,3.2.15a38,38,0,0,0-.06-5c-.17-1.25-1.33-2.49-1.2-3.64.57-5.31,2.05-10.59,2.09-15.88.14-17.48-.43-35-.23-52.44.07-6.23,2.13-12.43,2.22-18.66.07-4.27-2.41-8.56-2.4-12.84,0-3,.3-7,4.22-8.57l-.24.06c1.28,7-.64,14.2,1.31,21.17.12.15.28.28.31.43s-.17.23-.27.35l0-.93,1.84,16.21a15.59,15.59,0,0,0,.88-6.68c-.45-12-1.29-24-1.32-36,0-12.65.65-25.3,1.16-37.95.25-6.23.83-12.44,1.26-18.67l-.1.07c.24,1.77.55,3.54.71,5.32.58,6.39,1.1,12.78,1.64,19.16l-.18-.15c-1,2.18-2.5,4.28.31,6.43a4.38,4.38,0,0,1,1.16,3.31c-.43,7.12-.88,14.2-.08,21.34.16,1.41-1.71,3-2.62,4.59a3.79,3.79,0,0,0-.22,1.06h3.22l2.43,51.35,1.37,0L381,157.17l2.22,0q0,17.45,0,34.9l-.92.42,1,.76c-2.65,8.54-1.51,17-.65,25.5l2.1.13,1.66-22.54,1,.12,1.76,18.86-.18-.18,5.83,6.28,3.79-35.11,1.39-.51,3.71,11.8,2.64-2-.18-.16c.75,1,2,2.91,2.19,2.79,5.15-2.47,5.15,2,6.44,4.65l-4.08,1.4c2.74,2.54,2.74,2.54,4.53-1l.63-.86-.18.12L418.25,218c1.38-11.85,2.52-23.48,4.23-35,.5-3.38,2.6-6.53,4-9.79l.11-.11L429,184.21c.83-5.08,1-8.62,2.05-11.86,1.12-3.41-1.36-8,3.2-10.28l-.15.16c.58,2.28,1.7,4.57,1.64,6.83-.16,6.12-.82,12.24-1.28,18.35,6-8.87,4.81-18.93,6.55-28.68l1.29,16.92.72.05.89-5.65,1.17-.19v11.48l2.77.29,4.92-29.58c6.13.77,2.39,7.22,5.84,11.89V136.58h1.19q0,12.1,0,24.19c0,.09,0,.18,0,.28l.07-.37c1-2.25,2.47-4.42,2.77-6.75.75-5.83,1-11.73,1.37-17.6h.86l1,3.83,1.46-5.49-.14.13c.88,2.13,1.76,4.26,2.65,6.41-.22,2.15-4.63,4.9,1,6.77l-1.12-6.88c.92-.9,2.63-1.8,2.63-2.7,0-4.6-.75-9.22-.58-13.8.1-2.75,1.42-5.46,1.86-7l5.54,33,3-12.18.88.22,2.78,15.83h1.22V137.2h1.71v20.12h2.09V145.17l1,.05,1,3.13.64-.08q0-4.57,0-9.14l.87.54-1-.37.36-1.37-.17.17,3.15-20.32,3.82,25.86,2.68-.07,4.27-57.28,1.91,6.56V79.41L507,82.65l-1.52-18,3-.36c.81,4.77,1.56,9.56,2.45,14.32a25.25,25.25,0,0,0,1.31,3.67c-.17.58-.32,1.14-.47,1.7l-.59.15.4-.3.53-1.39c0-4.18,2.2-6.15,7.08-6.64l-4.28,7.31,4.57-1.66c.37,6.27.5,12.3,1.22,18.27.18,1.53,2.21,2.83,3.2,4l1.54-4.9,1.47.39v13.08c-3-2.3,1.3-8.53-5.21-7.31l-.29-1-.47.39.92.43L524,123.9c2.67-4.3-.58-9.18,4.31-10.52l1.67-5.84,2,.38q-1.1,12.81-2.21,25.61l-2.53-.62c.12.74.24,1.41.37,2.1-.1.52-.22,1,0,.26v-.4l2.1-1.41q.55,6.08,1.09,12.16l-2.67.63,1.11,1.81,1.41-2.58c1.58-2.2,4.43-4.34,4.54-6.61.77-16.56.91-33.16,1.46-49.73.09-2.66,1.69-5.26,1.78-7.92.13-4.12-.45-8.26-.75-12.73l3.1-.48c-.58,7.38-1.11,14.19-1.66,21l-.28-.37.45.21,3.07-1.63-.14-.16,3.17,5.43,1.7-2.7c.21,3-.6,5.76-.94,8.57-.18,1.46.47,3,.75,4.54l-.13-.13q.15,4.34.29,8.67l-.3-.17.21.26,1.64,3.6c-4.47-.66-1.78,2.72-2.12,4.13a47.85,47.85,0,0,0-1.17,8.93,79.29,79.29,0,0,0,0,12.11c.29,2.83.76,2.78-2.54,4.56,0-4.41.11-8.43,0-12.43s-1.32-8.16-.62-12a14.87,14.87,0,0,0-1.13-9.52l-1.48.45,2.38,45.21,1.43-.06v-8l1.06-.33,1.46,5.41.05-.15v16.17l2.37,0,1.1-8.46,2.61,6.7c3.09-4-1.31-8.23.24-13.1,1.61-5.07.67-11,.84-16.49l1.88.07V170l1.09.12,2.27-14.43,1.49-.24c-.16,3.7.33,6.71,5.56,4.74V170l2-.07a49.61,49.61,0,0,1,.06-6.77,76.16,76.16,0,0,1,1.83-7.69l1.35.25,1.7,7.39.23.08a2.56,2.56,0,0,0-.57-.21.89.89,0,0,0-.43.12c.4,2.28.83,4.56,1.26,6.83l1.09-.06,2.55-7,1.12,8.3.91,0V154.19l1.78-.16L582.93,171l-1.75-.43c.48,3.72,1,7.41,1.44,11.09,0,.11,0,.23,0,.34l.07-.45,6.45,4.79,1.64,17.19,3.48-10.34-.12.12,5.35-7.24,1.21,17,1.27.09,1.65-13,5.36-2.51-.5-1.08H604l7.6-7.49,3.36,8,.16-.16-.77,7.14,2,.11,1-15.88,3.9,6.8,4.48-16.78,4.13,5.51-.17-.17.2,2.51-1,.35,1,.77v13.25L638.3,185,635.52,194l7.25-.11h0c3.66,1.46,4.09,7.12.49,11.38a38.31,38.31,0,0,0,.53-4.5c0-3.05-.43-5.73-4.4-2.92-.19.69-.39,1.37-.59,2l.8.1-.36-2.31c.77,1.06,2.19,2.1,2.2,3.17.06,4.48.85,6.34,4,7.63-5.32,2-5.34,3.85,0,9l-4,.95-.29.07h.38l5.19,9.13-3-.19c-.54-.27-1.06-.56-.28-.13l.46,0,4.42,11.23c.95-5.46,1.74-10.22,2.6-15,.55-3,1.2-6,1.8-9v-.06l1.06,12.62.57,1-.58-1,2.53,10.86,3-33.46,2,.17c1.39,20.77,2.82,41.54,4.15,62.31.23,3.55,0,7.12,0,10.69a5,5,0,0,0,2.41-4.06c.15-3.72-.25-7.49.16-11.18.68-6.11,1.83-12.18,2.78-18.26l-.28,5.05.88,0-.58-5c-.37-3.45-1.32-7-.94-10.34.42-3.73,2.06-7.33,3.37-11.63,6-.17,6.79-4.49,5.78-10.08a35.3,35.3,0,0,1-.17-5.42l1.31-.09.8.53-1-.34,1.34-5.51c-5.27,0-5.55.52-3.49,5.42-.69,3.7,1.93,8.36-4.1,12,1.92-12.91-2.27-25,2.44-36.34l1.77.11,1.3,16.8c2.91-11.52.79-22.63,5-32.64l2.21,14.43,5.46-4.53c-3.17,9,3.44,16.76.72,25.15a17.27,17.27,0,0,0,1.76.78q-.62,2.43-1.24,4.85s.38,0,.38,0l-.13.35-.16.62c0,.51,0-.12,0-.74l.91-.43-1,.25,1.23-4.91,3.2-24.61L702,179c.93-4.58-2-10.15,3.92-11.61v31.9c2-7.48,2.69-15,3.72-22.52a81.73,81.73,0,0,1,2.34-9.23q0-.61,0-1.22L710.78,165l3.08-3.31,1.41,6.2h0q1.11,3.49,2.2,7l-2.45.81c.15,1,.3,2,.46,3l.2.11-.34-.24c-.09-.92-.18-1.84-.26-2.75.76-.33,1.51-.68,2.26-1l1.07-2.54c.82,3.86.65,8.73,2.84,12,3,4.57,2.16,8.39.71,12.71l-.82-.53,1,.34q-.25,5.41-.48,10.83a2.51,2.51,0,0,1-.1.23l.24-.37c7-3.73,2.27-12.54,7.51-17.73l.47,7.51-.1.16c1.09,5,3,10,3.13,15,.45,13.85.15,27.72.2,41.58,0,1.66.3,3.33.55,5.94l5.75-5-1.11,9.61-2.21.27.73-4.74c-5.91,2.84-5.28,6.57-3.61,10.62l-.13-.11,2.09,3.85c.37-3.5.7-6.53,1-9.56l1.93-.25c1.38-2.52,3.38-4.9,4-7.6,1.21-5.09,1.62-10.37,2.51-15.54a15.39,15.39,0,0,1,2.9,0v42.29h1.18l4.71-38.3c5.94-.15,6.09,0,3.82,5.54l.86.74-.86.25c.11,2.38.09,4.77.38,7.12.44,3.59,1.11,7.16,1.68,10.74l-.13-.14L760,272l-.17-.17,1.66,5.23-2.06,2.67c.12-.79.22-1.56.32-2.34l-.89.1.67,2.13,4.89,2.54h-.07l1.86,2c.77-1.5,2.14-3,2.19-4.5.24-6.91.1-13.84.1-20.76h2.29a59.19,59.19,0,0,0,.06,7.08c.37,3.08,1.14,6.12,1.73,9.18-.11.54-.2,1.07-.3,1.61l-.17,2.45,1.28-.18-1.23-2.39.81-.2-.51-1.19,1.34-5.23.76.13q.63,16.73,1.27,33.46c0,.47,0,.94,0,1.41l1.74,8.53c.8-10.91.62-21.74.88-32.56.12-4.87,1.1-9.72,1.68-14.58l-.29.12.39,0V238.71l1.28,0,.85,8.78,1.47,0v-38l3,3.88v-6.38l-2.42.52q.79-5.38,1.58-10.75-.19,3.36-.38,6.7c1.58-2.22,5.37-4.61.19-6.52l3.72-13.36,1.69,78.4,2.63,0,1.47-32,4,6.74,3-29.28.38.06-.36-.08c.28-3.88.37-7.78.88-11.63.54-4.11,1.47-8.18,2.23-12.26l-.14-.12c.64,3.27,2.1,5.87,5.61,6.74l-.07,0c-1.24,1.42-3.44,2.77-3.54,4.26a145.23,145.23,0,0,0,0,17.37c.06,1.1,1.77,2.11,2.71,3.16-4.57,3.36-2.93,7.56-1,11.8l1-11.81c.32-4.61,3.93-9.38-.67-13.76,3.41-1.35-.29-7.57,5.15-7.52l.11-.2c-.62,1.4-1.76,2.79-1.78,4.19-.12,9.18-.14,18.36.15,27.53.07,2,1.53,4,2.34,6l-1.27,2.62-.9,1,.87.22q0,1.84,0,3.68l-.88.48.49.33.22-1c.43.59,1.3,1.25,1.23,1.77-.62,4.45-1.77,8.86-2,13.32-.14,2.58-3,7.66,3.81,6.61q0,1.27,0,2.54l-3.07-.5,1.47,28,1.24,0q0-12.77,0-25.54c0-.5,0-1,0-1.5v-.42l.42,0q0-1.22,0-2.44c-.26-1.91-.66-3.82-.76-5.74-.39-7.72-.68-15.44-1-23.17l3-43.39L818,188l1.42-23.66h1.65v62.25l2.43,0V180.16l2.27,0v17.55l1.49.09,1.49-12.05a24,24,0,0,1,1.61,9.88c-.12,1.59-1.9,3.06-2.92,4.6l.1.16-.64.92q-.3,2.33-.61,4.64l1.5-.08-.93-4.58,3.75.75q-.64,8.86-1.28,17.72l-2.76-5.94-.75,8.46,3.54-2.53,2.77,6.09h-4.82a2.5,2.5,0,0,1-.15.31l.39-.24,8.1,3.51.71-10.73,1.71,0v11.89l-.2.1.85,5.51,1,.09,2.25-9.46,1.45.28v18.13l1.66,0,1.16-54.21H849l1.34,73.37,2.41,0a31.68,31.68,0,0,1,0-5.13c.55-3.32,1.38-6.59,2.08-9.89.15,0,.38,0,.46.11a.5.5,0,0,1,0,.48,6.94,6.94,0,0,1-.94.5l-.22-.83.91-.14L855,247.6v.06l3,.4c-.11,3.49-.18,6-.24,8.47-.46,2.39-.94,4.76-1.42,7.13l1.83.18-.51-7.41,4.76,1.71-1.13-6.36,1.69-.25c3.31,5.61-.1,12.23,1.76,19.61l2.39-16.61-1-.74.93-.29c5.4-4.5,2,5.27,5,3.38l-1.83,4.58,2.29.59c6.19-9.62.59-21.27,4.89-31.41V266.1h1.64c0-4.41-.13-8.82,0-13.22.31-8.43.78-16.86,1.18-25.29l-.14.11q0-30.81,0-61.62a1.7,1.7,0,0,0,1.11.29l2.36.44.53.73-.89.16c.11-.3.23-.6.32-.89l-2.51-.28.35-1.57.43-.72-.3.84-1.39.07,4.95-13.3,1.2-.08,1.42,59.94q0,1.21,0,2.42v42.76l1.48.16a35.23,35.23,0,0,0,.84-5.39c.14-35.8-1-71.64,2.49-107.37.21-2.08.25-4.17.36-6.26h1.86q0,27.65-.05,55.3c0,.15-.79.29-1.19.45l.26.39-.44-.22.37-.06c.43,2.13,1.21,4.27,1.23,6.4.09,11.19-.15,22.39,0,33.58.12,8.67.64,17.33,1,26l2-.06V150.47h2.67v72.29l5.17-1.74-4.23,3.86.16-.16c-.58,4-1.47,8.09-1.66,12.15-.28,6.27-.07,12.57-.07,18.85l2.21,0,.69-10,3.43,4.47c0-5.06-1.45-10,.32-13a29.79,29.79,0,0,0,4-16.57l-.13.13,2.48-2.11c.45,11,.45,11,4.33,10.9l-1.23-4.49-.17.17c1.14-6.33,2.42-12.64.45-19.07-.12-.39.88-1.13,1.41-1.77l4.22,5.35c-3.68,2.78-2.83,5.52-.06,8.39.08.08-2.21,1.78-2.2,2.71,0,5.64.41,11.28.67,16.93l2.65-.05c0-11.31-.27-22.62.09-33.92.24-7.48,1.38-14.92,2.12-22.39l1.56.08c.44,9.62.95,19.24,1.31,28.86.27,7.19.36,14.39.65,21.59,0,0,1.68,0,2.58,0l-.66,3.12h1l-.39-3.12q.74-14,1.49-27.9c0-.15.28-.28-.68.6,2,0,3.23-.38,3.81.06,2.83,2.13,3.23,3.83,2.76,8.34-1.62,15.66-.63,31.59-.63,47.13l2.4-1.36v58h.76l2.57-56c-3.49-2.82-3.72-11.91.77-19.69a1.27,1.27,0,0,1-.11-.23l0,.4c-.47-.53-1.39-1.1-1.35-1.6.26-4,1-8,1-12,.05-5.61,2.12-11.29-1-16.88-.71-1.26.95-3.85,1.51-5.84.15-1.17.3-2.33.46-3.49l2.45.87.05-1.08-2.3.41c-.2,1.13-.41,2.25-.62,3.37L944,199.6l-.16.16,6.69-1.44c-.27,5.62-.68,10.65-.7,15.68,0,4,.44,8.06.68,12.09l2.11-.22-.39-4.39,5.75-1.3c-1.6,3.23-2.8,5.55-3.88,7.94a2.07,2.07,0,0,0,.21,1.72c3.28,4.68,3.29,4.67,1.86,8.45-.25.67-.51,1.33-.78,2l.86.14-.23-2.29c.5,4.21,1.46,8.43,1.39,12.62-.11,6.34-.94,12.68-1.45,19l.31-.14-.44,0c5.11,9.42,7.1,19.61,6.75,30.83l3.2-2.19-.62.91.58.2v-1.12l2.15-1.93.73.91c-.54,1.62-1.08,3.23-1.61,4.86-.59.63-1.18,1.25-1.78,1.87l1.29.76.35-2.74q1.35,5.64,2.71,11.28c.27.34.53.67.79,1,.1.39.22.76.33,1.14l-.45-1-.62-1.28,7.82-3.86v45.49h2.3V259.1l-.16-.16q.05-1.54.11-3.09l2.62-1.32.34.93.74-.92c.42.62,1.18,1.23,1.2,1.86.37,13,.72,26,.95,39,.12,7.1,0,14.21,0,21.32l1.49,0c0-3.83-.12-7.66,0-11.48.44-11.39,1.27-22.77,1.39-34.16.08-7.86-1.44-15.76-1.09-23.59.74-16.44,2.25-32.84,3.44-49.26a.85.85,0,0,0-.1-.54c-2.93-3.73-1.32-8.15-1.85-12.26,0,0-.09,0-.09,0,1.81.91,5.11,1.7,5.2,2.74.75,9.39,1,18.83,1.26,28.25.15,5.49,0,11,.12,16.49.26,12.74,1.4,25.42-.14,38.24-1.13,9.42-.22,19.08-.22,26.73l4.12-26.38h1.22l2.77,8.3-.23.05q-.09,3.62-.18,7.24l-.31,1.93.34,0v-2c.95,2.35,2.72,4.7,2.7,7-.06,8-.74,16.09-1.19,24.14l1.35.21,7.59-26.27,1.65,5.31.82-.14V256.36c-1.22,3-1.13,6-1.25,9.05-.09,2.36-.45,4.7-.68,7,.12-.82.24-1.62.35-2.43h-.9l.59,2.36-1.06,6.47c.23.1,2.21.65,2.17,1-.37,3.84-1.06,7.65-1.66,11.46a5.42,5.42,0,0,1-2.63-4c-.55-8.25-.82-16.52-1.34-24.77-.17-2.6-1.28-5.19-1.2-7.76.2-7.06,1-14.11,1.2-21.17.25-10.66.08-21.33.3-32,0-.82,1.73-1.6,3.07-2.76.37,4.8.82,8.75.94,12.72.09,3-.43,6.07-.23,9.08.06,1,1.53,1.84,2.35,2.77-.3,1.61-.6,3.21-.89,4.81q-.11,1.68-.23,3.35l1-.11-.85-3.24.86-4.68,1.43-7.72h-.06c1.11.45,3.06.73,3.18,1.36a41.21,41.21,0,0,1,.94,10c-.13,2.2-2,3.95,1.44,5.7,1.34.68,1,4.62,1.46,7.07l-.51-.94-.46.61,1.14.15c-.54,1.16-1.09,2.32-1.62,3.5-.17.58-.35,1.15-.06.24l-.06-.37,2.89-.15a3.57,3.57,0,0,1,.14-.37l-.37.32c.21-6.5,1-13.06.36-19.47-.29-2.93-4.88-5.48-.27-8.71.23-.16,0-1.59-.18-1.63-5.33-1.14-1-4.18-2.42-7.5l5,5.27c0-4.21,0-7.44,0-10.67s-.09-6.54.19-9.78c.12-1.39,1.09-2.7,1.67-4l-.11-.11v9.95l1.55.25c.23-2.23.33-4.48.75-6.67a58.17,58.17,0,0,1,1.65-5.68c.42-.06.85-.12.1,0l-.1.06c.41-3.49,1.55-7.09,1.06-10.46-.84-5.85-.78-10.4,2.58-15.24v30.73l2,.44c.52-1.14,1.39-2.25,1.48-3.42a43.48,43.48,0,0,0-.36-6.15,2.43,2.43,0,0,1,.23-.31l-.27.14,2-11.16,1.6.25,5.56,23.75,3.52-20.34,2.36-.49-2.88-1.1a62.83,62.83,0,0,0,2.52-6.88c.64-2.68.87-5.45,1.27-8.18l-.21.11c5.72,11.32.95,22.45-1.91,33.62l2,.18,1.19-6.91.84,0,1.08,10.93,1.4-.08,1-5.68-.17.16c.32-8.22.55-16.45,1-24.66a19,19,0,0,1,1.52-5.54c1-2.59,2.75-5,3.22-7.67,1.12-6.4,1.67-12.89,2.45-19.35H1071l1.1,6.21.83.22,2.37-10.33,1.28.13v36.43c1.33-8.33,1.28-16.64,1.39-25,0-1.38.81-2.74,1.25-4.11l-.17-.17c4,5.44,3,12.28,4.48,18.35,1.45,5.92-1,12.63,0,19.16.85,5.82.45,11.82.6,17.74l-.89.79.89.39c-1.45,3.66-.3,7.51-.55,11-.74,10.22,1.47,20.22.92,30.35-.28,5.22.69,10.5.57,15.73-.14,6-.87,12-1.34,18l1.48.06V254.77l4.12.49c1.86,16.35.25,32.47.83,48.65a424.84,424.84,0,0,0,3.73-46.29c.48-17.46.07-34.94.44-52.4.48-22.2,1.31-44.4,2.18-66.59.05-1.29,1.88-2.51,2.88-3.75q-.31,6.84-.61,13.67l1.54,0-1-13.59,1.15-19.19,1.66,0v35.39l.88-.08,1.82-6.62,1.81.26.9,14.36,1.14-.08,2.64-35.74.85,0,2,24,0,0c.78,1.3,1.55,2.61,2.31,3.92a26.81,26.81,0,0,1,.42,3.87,37.52,37.52,0,0,1-.8,4.7l1.7,2.24q0,2.86,0,5.71l1.91-.45-2-5.26,2.72-11.5-4.17.83V131.89l4.52-1.19c.88,6.1,2.35,11.7,2.36,17.3,0,13.11-.69,26.23-1,39.34,0,1.81.63,3.64,1,5.46a161.17,161.17,0,0,0,2.77-21.27c.37-4.92.52-9.85.69-14.78.25-7,.43-13.93.64-20.9l-.14,0c.81,1.08,2.17,2.09,2.34,3.26.79,5.51,1.06,11.09,1.87,16.6.94,6.4-1.11,12.85,1.33,19.38,1,2.69-1.53,6.7-2.46,10.12l.55,3.27.81-.14-1.34-3.17c6.64.81,2.86,6.78,5.38,10.9,0-10.29.08-19.57,0-28.85,0-3.24.85-4.16,3.72-2.29l.87.56-1-.39.59-13.47L1146,148l2.18,6.08c1-12.35.84-24.39,1-36.43,0-2.47,1.31-4.93,2-7.39l1.19.36,1.88,13.53,2-.2c-.32-4.12-1.51-8.41-.73-12.3.92-4.6-3.15-10.37,2.84-14l3.74,4.07h0v5.16h1.15V88.29l0,0c1,.93,3,1.83,3,2.81.38,8.55.12,17.14,2.56,25.51.25.86-.69,2.07-1.08,3.11l-.64-1,.77.89,1.89,10.26c1.54-9.66,2-19.11,2.85-28.54.23-2.69,1.31-5.31,2-8l-.12-.15c.61,2.18,1.61,4.34,1.74,6.55a74,74,0,0,1-.54,9c-.14,1.24-.29,2.45-.45,3.66h.78l-.34-3.76a48.59,48.59,0,0,0,1.6-6.13c.38-2.87.39-5.79.56-8.69l1.57.1,2.2,41.17c1.83-8.51,3.07-16.85,4.19-25.22.05-.4-1-1-1.58-1.44l-.06.25c1.7-7.35-.59-15,1.76-22.36,1.13-3.56,1.1-7.53,1.38-11.33a89.25,89.25,0,0,0,.3-10.78C1186.95,51.76,1186,39.19,1191,27V61.19l5-21.48,1.16.37V63.77l1.22.26.9-3.07-.15.15,2.52-1-1.14,4.24,1.37.11-.28-4.36,1.16-33,1.47.09q.38,2.35.76,4.7,0,1.9,0,3.81l1.25-.19-1.3-3.61a21.11,21.11,0,0,0,2-2c1.13-1.49,2.17-3,3.24-4.58.61,1.81,1.7,3.61,1.74,5.44.16,7-.27,14.08,0,21.11.21,5.39,1.14,10.76,1.76,16.14l1.86-.12c0-4.66.44-9.37-.12-14-.6-5,.94-8.41,5.34-10.64l-.16.15,1.36-7.78,3.63,2.61-.82-2.83-.07,0c.63,1.5,1.63,3,1.81,4.52.59,5.24.89,10.52,1.3,15.79v4.91c-7.3,2.42-1.19,7.17-2,10.69l2-4.56V76.6l-2.12.21,0,.62,2.14.39V97.47l-.87.42.87.81q0,1.84,0,3.68l-.87.87Zm-585.89,129-.73-.71.9.55.27.35ZM610.15,200l-.07-.65c.11.24.21.47.29.69l-.32-.32.47.11Zm123.71,79.4.12-1.73h.54c.87-.49.26-.15-.33.21-.05.45-.1.9-.14,1.34l.92.31Zm.65,4.82.05-.2-.19.32-1.07.33.88.58.85.54-1-.36C734.18,285,734.36,284.56,734.51,284.18ZM684.74,218.4l.35-.36a2.82,2.82,0,0,1-.19.43l.27-.28ZM666,300.57a.82.82,0,0,1,.75-.62l1.3,3.08.85-.31v-3.63l-2.32,1.07-.19-2.14,2.88-1-2.26-.72c.58-3.31,1.13-6.05,1.43-8.83,0-.26-1.57-.68-1.27-.56-.92,2-2.12,3.54-2.14,5,0,2,.88,4.08,1.35,6.15l-.27,2.59-.34.41-.16-.74ZM369.57,289.33l.12-.49a5,5,0,0,1-.06.64Zm14.64-29.72-.11-.28.25.14.27,1,.55-.57ZM1199,67.42l-.19-1,.21,1,.43-.17Zm-17.09,86.85-1.56,1.71.06,1.52.53-.09-.58-1.35,1.61-1.79,1.08-.66-.19-.14c-1-.12-.41-.05.11,0C1182.58,153.73,1182.22,154,1181.88,154.27Zm-44.29,14a.38.38,0,0,1,0-.09l1.14-.06-.29-.59Zm-29.14.47.2-.19.81.54Zm-270,75c-.15.07-.38.24-.44.19a4.1,4.1,0,0,1-.57-.62l-1.53.31-.27-.35.48.15-.16,1.5-.3.16s.11-.34.12-.33c.51,0,1,.09,1.52.12l1.16-.11,1.53-1,.62-1.32-.4-.06c0,.53,0,1.05,0,1.56Zm16.91,33.2-.07-.34.21.47Zm-67.73-13.18,0-.28-.07.35-.43.19.31-.69C787.48,263.44,787.55,263.58,787.61,263.72ZM785.79,233l-.2-.72.52,0a6.78,6.78,0,0,1-.18.87l.24-.21ZM929.87,269.3l-.11-.23,0,.37-2.23.89-.08.4a1,1,0,0,1,0-.34C928.28,270,929.09,269.64,929.87,269.3Zm22.23,13.34-.3-.19.23.39-.55,0A5.07,5.07,0,0,1,952.09,282.64Zm-1.24-45.22-1-1.63.5-.4c.25-.46,0,.06-.28.6l-.6.82,1.22.41-.19.19Zm-64.22,24.51.36.41-.55-.23-.83-.53ZM170,272.12l.68.12-.55.12.17-.43.11.3ZM137.59,103.49l-.27.39.12-.56.79-.68C138,102.92,137.79,103.2,137.59,103.49Zm.57-26.25,0,.22,0-.24.33,0ZM202.29,189.7l0-.55c.08.12.17.23.26.34l.94.49Zm-93.7-53.51v1.19a9.86,9.86,0,0,0-.17-1l-.88-1.35,1.84-4.58-1.7-.25c0,1.66,0,3.31,0,5l-.22,1.35ZM76.21,171.06l.17.34-.32-.19-.75-.5ZM127.6,28.64l-.79.88,1.1-.58.59-1ZM249.1,205.53l.53-.79-.34,1-.31.11Zm-1.56-7.87.06-1.32c0,.4,0,.79,0,1.14l1.12.15-.36-.67Zm.38,3,.49-.94-.29,1.15-.29.06S247.93,200.67,247.92,200.66Zm21.66-37.38.18.27,0-.39-.2,2.44.28-.36.06.67-.35-.31C269.55,164.83,269.57,164,269.58,163.28Zm785.12,12.83-.47.78.31-.93.46-.09ZM952.23,314.33l1.27-.06a1.9,1.9,0,0,0-.2-.31c-.33.14-.64.31-1,.47l-.06.23C952.5,315.64,952.35,315,952.23,314.33ZM127.06,206.19l0,.09,0-.1.61-.62.24.49ZM983.52,319.63l-.44.41.27-.59c.37-.29.75-.56,1.09-.88a2.81,2.81,0,0,0-.3-.49C983.93,318.6,983.72,319.11,983.52,319.63ZM107.43,235.82l-2.13-.74-.11.95,2.13-.35-.29.19ZM1223.51,77.16l0-1.11-.58.19.6.92c-.61.17-1.23.34-1.83.54a3.18,3.18,0,0,0,.09.58ZM108.64,60.1l-1.42-1.49-.52.76,1.86.63-.24.25ZM606.28,216.6a2.06,2.06,0,0,1-.33-.53c0-.07.23-.21.35-.31.06.21.12.43.19.64l.75.54Zm-96.09-105,.27-2.12h-.91l.65,2.11-.51.15ZM414.42,225.93l-.43,1.52h.55l-.19-1.59ZM225.54,155.76l.14-2.13-.6.13c.21.7.42,1.4.61,2.08l.29-.21Zm296.92,76.08,1.54,1a4.4,4.4,0,0,0,.1-.53c-.56-.17-1.13-.31-1.69-.47l.42-1-.58-.12Zm-131.31-4.12.16.21,0-.35-.06-.9.82.42Zm-368-44.57-.12.33L23,183l.81-1.2C23.56,182.22,23.34,182.68,23.15,183.16Zm816.1,65,0,.14c.24,1,.09.36-.08-.23ZM310,114l-.81,2.49.81.15q0-1.31,0-2.63l-1,.52Zm835.16,79.27v-.16c-.36-.75-.11-.22.14.28l.18.16Zm25-59,.06.45c.54.76.16.23-.22-.32l-.34-.73c0,.14-.07.34,0,.39A1.66,1.66,0,0,0,1170.07,134.32ZM128.23,112.87l-1.36-.46,0,.93,1.39-.53-.59-2.88-.87.29Zm13.56,79.67.65-3.16-1.16,0q.28,1.59.55,3.18l.33-.07Zm490.28,2L632,194c-.66-.82-.2-.25.27.33l.78.54ZM825.65,231.8l1.2-2.42-1-.24c0,.91-.09,1.81-.14,2.71l.36-.05Zm-21.07,10.9-1.77-.29c0-1.81-.08-3.62,0-5.42.1-2.58.29-5.16.41-7.78l.67-2.86-.53-.09v3.12c-4,9.84-4.5,20-3.83,31L803,242.23l1.45.32,2.14-1.36-.81-.86C805.37,241.13,805,241.93,804.57,242.7Zm-102.4-60.51.54-.87-.38,1-3.65,1-.54.87.37-1,3.84.1L701,188.87h2.06l-.91-5.37C702.18,183.07,702.18,182.63,702.17,182.19Zm-469.5,11.62-.38-2.82-1.26.78,1.65,2,1-.39ZM256,274.77l.44-3.17h-1.12l.8,3.19L254,277.55l1,.49C255.36,277,255.7,275.87,256,274.77ZM123.49,265v-.13l.08.13-2.13,1.35.48.79C122.44,266.42,123,265.71,123.49,265ZM488.72,161.92l1.23,2.52.61-.44-1.85-2.08,2.16-2.47-1.09-.58ZM1089.56,308l2.31,1.84.61-1.47-3-.38.58-1-.63-.18ZM213.3,204.4v-5.08l-1.11.19c.44,1.57.88,3.14,1.32,4.71l.19.46Zm627,70.61.35-2.44-.55,0,.17,2.52-2,4.06,1,.43ZM276.84,126.73l-.3-.22.23.42-2.08,4.18,1.09.43C276.14,129.92,276.5,128.31,276.84,126.73ZM826.25,244.58l-.14.23.08-.41,1.5-3.66-1.48-.29C826.22,241.83,826.22,243.2,826.25,244.58ZM155.09,201.42l-1.45,3.51,1.94.22c-.23-1.18-.45-2.36-.7-3.51l-.22-1.88-.84.77ZM56.33,175l.38,5.67,1.24-.23c-.59-1.77-1.17-3.54-1.75-5.32l.28-4.88-1.23.11Zm33.82,62,.19-2.17-.17,0L90.06,237l-2,4.2,1.34.41C89.64,240.1,89.9,238.55,90.15,237ZM1161.69,112l-.83,6.91-2.49,6.32,1.39.41q.53-3.36,1.06-6.72c.65-.44,1.31-.89,1.93-1.36l.19-.13h-.34q.36-2.33.7-4.67l.36-2.36-1,0,.68,2.34-1.85-.6-.48-1.59-.53.69ZM107.94,145.53v-2.24l-1-.23-1,3.43c1-.36,1.59-.57,2.15-.82l.19-.27ZM361.65,275.26l1.09,7.36,1-.29c-.67-2.27-1.34-4.55-2-6.8l.18-.37ZM222.84,214.65l3.15,2.57-.4-5.74-2.72,3.2a2.76,2.76,0,0,1,0-.44c0-.06.1-.12.15-.18ZM1113,162l2.25.32v-.7L1113,162l1.29,4.9,1.86-.72Zm68.77-20.87-.38,2.86.94,0-.59-2.83,1.73-3.66-1.7-.34C1181.72,138.43,1181.72,139.76,1181.73,141.09ZM114.29,202.84c-.21-2.2-.41-4.39-.6-6.62l.31-2.32-.89.1.67,2.13c.23,2.18.46,4.35.67,6.54l.5,1Zm711.59,54.25,1.42-6.22-1.73-.19c.16,2.15.31,4.29.49,6.41l.27.15ZM930,247.9l.53,5.91,2-.63c-.84-1.74-1.69-3.48-2.56-5.19l-.15,0Zm-416.1-91.17,1.22,4.55,1.71-.83c-.92-1.2-1.84-2.41-2.73-3.6-.14-.08-.37-.13-.4-.24a.57.57,0,0,1,.15-.44,5.94,5.94,0,0,1,.88.16ZM838,290.85v2.45l2.26,7.15c1-6.76,1-6.76-2.25-7.13v-2.5c3.6-.3,3.6-.3.88-5ZM113.38,111.36l-.75-9.89-1.55.27,2.24,9.6v6.51h.44Zm54.1,101.74L166,215l.48.35.89-2.38c3.82-1,1.89-3.11,1.43-4.93l-2.18-.08C166.88,209.7,167.2,211.4,167.49,213.1Zm354.63,27.33.81,8.05,2-.55q-1.41-3.76-2.82-7.51l2.31-4.75-2.27-.53ZM950,257.12v12.34l2-.16q-.92-6-1.81-12.06l-.31-.24.34-.14ZM676,244.26l-.72,4.39,1.28,0-.64-4.5L679.73,233a4.85,4.85,0,0,0-3.15,3.52A61.45,61.45,0,0,0,676,244.26ZM181.45,188.8v-5.31l-2.29.56,2.35,4.73-2.85,11.08,1.87.3Q181,194.48,181.45,188.8ZM1084.9,306.9l-.64,4.28.93,0-.39-4.44,2.44-13.8-1.59-.2C1085.39,297.47,1085.13,302.17,1084.9,306.9Zm-59.69-46.39v12.72h.73l1.85-19.07h-.86c-.61,2.05-1.22,4.1-1.8,6.19l-.22,0ZM529.7,167.64q.25-9.56.49-19.08l.09.25.17-.36c-.84.4-2.44.86-2.42,1.2.41,5.93,1,11.84,1.55,17.74l-.13.39-.11-.33ZM143.82,142l2.47-7.85c-6.47,1.49-1.77,5.38-2.33,8-.78,1.44-2.24,2.89-2.22,4.32.11,6.63.63,13.26,1,19.88l1.09,0Q143.85,154.19,143.82,142Zm17,135.84c.42-6.49.92-13,1.21-19.48a64.44,64.44,0,0,0-.47-7.31l-2,.1q0,7.29,0,14.59l-.83-.53.95.41q0,6.11-.07,12.22c.5,10.67-1.05,21.52,2.83,31.91Zm-28.15-82.18c0-5.14,0-10.27.05-15.41q0-16.17,0-32.35a394.47,394.47,0,0,0-1.2,40.43c0,2.42.83,4.83,1.27,7.25v33.07a166.15,166.15,0,0,0,1.29-27.31C134,199.43,133.15,197.54,132.65,195.65Zm-10.88,43v21.5a8.33,8.33,0,0,0,2.16-4.84c.12-19.74.25-39.47.06-59.21-.11-11.73-.77-23.45-1.23-35.17-.28-7.24-.66-14.47-1-21.71a100.14,100.14,0,0,0-2.56,22c-.05,6.38.74,12.77,1.11,19.15.76,13.34,1.68,26.68,2.12,40,.21,6.13-.55,12.3-.87,18.44l-.75-.54Zm211-70c-3,8-3.64,134.7,2.57,140.89V295.16c1.13,1.57,1.63,2.18,2,2.85s.62,1.22.93,1.83c-.56-7.37,3.62-15.59-4.83-21l4.15-1.41c-1-.39-2.39-.52-2.84-1.24a9.25,9.25,0,0,1-1.58-4.6c0-7.47.51-14.94.43-22.41-.17-15.82-.59-31.63-.9-47.44a32.94,32.94,0,0,1,.42-3.35l1.43,3.52-1.6-.2,1.57-24.08-1,3.25-.75-.13ZM521.58,124v85.21l1.52,0c.44-7.69,1.18-15.38,1.25-23.07.15-17.71-.11-35.41,0-53.12,0-1.51,1.9-3,2.63-4.09Zm-185,148.81,1.62.13v-44l-3.1-.46c0,8.31-.19,16.06.06,23.79C335.4,259.12,336.11,266,336.61,272.79ZM107.71,158c-3.09,4-2.95,50.94,0,54Zm47.52,49.21c-3.05,5.41-2.79,47.92,0,51.32Zm210.36,87.4,1.59.25V262.42h-1.59Zm636.51,20.87-.75-.21v29.61l.75,0ZM82.57,130.84c3.7-10.54,2.83-19.32-1-19ZM4.63,210.06H3.46v24.84H4.63Zm143.56,32.87,1.38.62,1.67-26.9-1.31-.08Zm58.34-48.11c3.08-1.84,3-9.88,0-17.37Zm35.56,31.28h1.78l1.48-14.3c-1.38.07-3.14.09-3.14.16C242.08,216.68,242.09,221.4,242.09,226.11ZM82.42,77.7l1.27.24c.5-4.89,1.06-9.78,1.41-14.69,0-.41-1.39-.92-2.68-1.71Zm73.23,86.8h-1.07v25.73h1.07ZM838.1,267.82,840,268V253.66l-.77-.11Zm124,68.82.19-.05,1-22.4-1.18-.08Zm50.39-14.28,3.17,3.46V312.9h-.91ZM923.09,251h-.78v21h.78ZM133.52,50h-1.18V63.48h1.18ZM115.29,212.59l-1.68-.08L113,226.67l1.69.09Zm-.62-74.3c-3.46,2-3.8,3.73-1.92,14.6Zm-25.2,28.06-.69.24v18.88h.69ZM196.59,279.77l2.21,0V266l-.7,0Zm-134-78.1.9-.08V182.7l-.9,0Zm15.54-84.22-1.8-.9-4.15,10,1.95.76Zm29.6-54.53-.84.11L105,74l2.13.11ZM102,206.86l1.35-.18-1-13.16-1.7.17Zm199.81-47.91h-.7v19.44h.7Zm635.82,106.5h-.57V283.9h.57ZM82.74,232.9l-.58.45v18.5l.58,0ZM517,139.81l-2.13-.56-.69,10.95,1.87.18Zm-128.72,111H389V232.89h-.69ZM52.46,102.53h-.57v18.89h.57Zm60.84,88.36.63,0,1.72-10.69-2.35-.29ZM1037,201.63h1.1v-8.76H1037Zm180.69-57.87-.93-.23V160l.93-.05Zm-847.8,52.56V182.05l-.74.07Zm773.72-43.44,1.23,11C1145.77,153.85,1145.77,153.85,1143.63,152.88ZM24.16,156.49l-.72,0V169.9h.72Zm218.6,87.61,1-15.51-1,0ZM77,109.41v-6.66l-.9-.26-2.4,5.78Zm217.17,25.48-.95.34,1.93,9.51,1.47-.34ZM214,169.36c-6,4,.5,5.08.08,7.79l1.55-.36Zm617.53,84H832v-13.7l-.51,0ZM402.73,229.89h.92V216.7h-.92Zm646,13.5.69-.15v-13.1l-.69,0Zm-892.93-88-2.3.28.48,6.72,1.82-.13Zm69.75,38.1H225v14.32h.61Zm766,87.72h-.49v12.65h.49Zm-335.44-7.92,1.14.43V262.14l-.32-.08ZM142.65,212.25l.61.52V199.63h-.61ZM117.85,65.84c.57-.27,1-.36,1-.46,0-3.23,0-6.46,0-9.69l-1,0ZM39.09,247.57l-2.18-.07v9.7l.84.07Zm93.62-3,.74-.09V232.54l-.74,0Zm216.84,19.89-.43-.58v12h.43ZM168.75,198.33l-1.15,0v8.33l1.15,0ZM599.41,212.9l2,.11v-7.25l-.93-.11ZM37.11,245.59l1.34,0v-6.86l-1.34,0ZM538.32,103.25c1.44.88,2.31,1.75,3.27,1.88.66.09,1.46-.85,2.2-1.33a13.77,13.77,0,0,0-2.81-2.45C540.62,101.17,539.6,102.3,538.32,103.25Zm500,105.53h-.51v9.79h.51ZM972.15,343.54l-.61-.08v11.33h.61ZM997.42,303l.15.1v-8.57h-.15ZM113.78,172.48l-1.68.77,1.44,5.23,2-.65ZM786,249.64l.54-.26v-9.89l-.54,0Zm216.88,52-.61-.21v10.37l.61,0ZM375.31,234.92l-.51,0v9.76h.51Zm434.76,17-1.9-.92-1.68,6.81.55,0Zm240.43,16.89-1,0,.7,6.6.3,0ZM61.81,66h.37l.52-10H61.34Zm242.39,72.84.75,0v-9.06l-.29-.07Zm.55,15.85.3-.11v-8.68l-1,.08Zm-97.47,48.82,1.66-.2-.59-6.05-1.86.26Zm708,39.89,1.67-.26-1-6.67-.72.11Zm209-47.7h-.59v9.74h.59Zm-1016.76,32-2.13.3,1.14,5.47,1.56-.28ZM931.73,238l-2.16.15c.42,1.55.84,3.11,1.31,4.65,0,.07.51,0,.86,0Zm-771.13.86H160v9.4l.61,0Zm-34.43-73.59-1.15.08,1.38,4.45,2.39-1Zm220.1,68.1h-1v8.93h1Zm497.6,24.88h.3V251l-.3,0ZM266.91,272l1.49-8.58-1.49-.13Zm516.15-20.68-1,.12.79,6.39,1.26-.16ZM107.67,220.26l1.44-.68-2.35-5.21-1.55.73Zm1.07,1.52-1.57-.48-1.47,4.93,1.8.52ZM109,99.94h-.61v8.57H109ZM232.3,224.77l.61.21v-7.85h-.61Zm-110.49,4.45-1.18-.72L119,235l1.19.29ZM82.28,189.43l1.45.19.53-6.85-1.16-.16Zm727.78,51.87-.69-.17-1,7.66c1.09-.68,1.64-.86,1.64-1.05C810.07,245.59,810.05,243.44,810.05,241.29ZM90.63,130.43l1,.45v-6.25l-.47,0Zm841,145.26-.53.25v7.34l.53,0Zm-564.7-45.62-.63,0v8.18l.63,0ZM101,159.45l.61.09v-8.07H101Zm920.5,93.89,1.07.25.34-5.33h-1.18ZM352.26,264.53l-.72-.48v7.53h.72Zm662.1,44.07.63-.07v-6.8l-.63,0ZM507.15,125.22l.76.27v-6h-.5ZM807.38,230.29l-1.51,0,.53,5.45,1,0ZM63,145.18l.63.16V139H63ZM832.18,257.77l-.61-.5v7.08h.61ZM1026,221.39l1,.06v-7l-.38-.05ZM84.55,192.26l-1.66-.12-.28,4.47,1.69.13Zm85.3,105.83h.21V294h-.21Zm761.25,33.24h.33V325.1h-.33ZM187.42,174l-1.05,1.83c1.36.45,2.72.91,4.1,1.32a3.75,3.75,0,0,0,.32-.66ZM1010.74,316.9h.52V310l-.52,0ZM52.45,198.74H52v6.33l.47,0ZM107.6,49.59l1.46-1.19L107.38,45l-1.57.73ZM139.93,100l1.4,1.23,2.31-2.66-1.34-1.17ZM72.68,97l-.64,0v5.61Zm1117.9-29.74h-.32V72l.32,0ZM114.19,129.45l-.79,0v6.24h.79Zm837.11,98.18-1.3-.06v4l1.12,0ZM844.19,265.3l-.22-.11v3.6h.22Zm-12.76,17.16.92-.12-.28-5.56-.63,0ZM93,75.25h-.77l.27,3.53.5-.09ZM889.88,286.57l-.57,0v5.79l.57,0ZM370.45,300.42h-.38v4.7l.38-.05ZM126.94,159.09l1.49-.31-1.49-4.09ZM50.55,225h.61v-5.9l-.61,0ZM697.14,206.7l-.6.11v5.57l.6,0ZM149.39,190.77H149v6.13h.43Zm535.95,40.51.55-.15v-5.51l-.55,0Zm-535.16,36.2.34,0v-5l-.63,0ZM677.44,228.1l1.08,0v-4.38h-.66ZM181.37,173.53h-.56v6.26h.56ZM30.46,217l-.61-.48v6.18h.61Zm270.66-62.07.61.12v-4.94h-.61ZM985.64,327.15l-.94.19.21,4.54.73,0ZM203.55,177.6l-1.36.09.53,3.89.83-.06Zm155.1,112.85,1.05-1.18-2.79-2.16-.82.9ZM1077,201.38l.87-.31-.25-3.79-.83.05ZM322.58,124.26h-.49v4.9h.49Zm362.77,88.09h.51l.19-4.14-.7,0Zm309,97.54,1,1.35,2.93-2.39-.89-1.13ZM216,137.33l-1.07-.21.5,5.15ZM106.13,154l1.66-.06-.43-3.44-1.23.1Zm110.6,5.76,1.51,0-.36-3.19-1.15.12ZM82.85,174.5l1.31.11c.17-.56.65-1.31.45-1.64a6.69,6.69,0,0,0-1.76-1.43Zm188.85,49.4.45,0V219.2l-.75,0ZM266,253.61l-.8.88,2.24,2,1.15-1.29ZM89.38,141.68l-.61-.14v4.58h.61Zm-.11-21.36-.69,0,.19,3.71.51,0ZM630.1,197.22l0,1.19c.45.29,1.17.93,1.32.81a12.13,12.13,0,0,0,1.69-1.83ZM90.45,46.93l.21-1.15-2.83-.52a6.68,6.68,0,0,0-.12,1.11C88.61,46.61,89.53,46.76,90.45,46.93ZM667.35,280.5l-1.74.21.71,3.44,1.27-.22ZM113.7,248.22h-.26v3.13h.26Zm663.79,83.92H778v-5h-.48Zm66.69-58.54-.22.23V277h.22ZM538.78,92.91l.22.85h3l-.24-2ZM783,260.83l-.61-.06v5.07H783Zm-517.72-1.26.33-.63-2.45-1.53-.47.91ZM655.87,248.5l.89.13-.23-4-.67,0ZM389.41,225.61l-1-.1v3.32l.45,0Zm79.43-64.38-.58-.67-1.74,2.53.77.52ZM384,252.43l-.78,0,.29,2.87.49,0Zm393.4,69.68.92.12-.26-4-.67,0ZM541.76,97.43l-.78-.86c-.47.33-1.29.62-1.34,1a6.28,6.28,0,0,0,.49,2.14ZM276.61,258.53l.81,0-.4-3.23-.41.07ZM782.42,272.3l.56,0,.2-2.89-.76,0Zm-655.69-51,1-.43-1.56-3.6-1,.46Zm587-36.07.27,1.56,2.83-1.22-.21-.75ZM215.79,164.4l-.86-.77-2.37,2.8.71.62ZM687.9,195.16l.86-.37c-.36-.89-.7-1.79-1.12-2.66a9.45,9.45,0,0,0-1,.36Zm204.37-29.4h-.53v3.87h.53ZM321.44,119.9h.9v-3.53h-.9ZM871.49,264.64l-1,.42.49,2.74c.46-.28,1.33-.62,1.29-.81A11.87,11.87,0,0,0,871.49,264.64Zm-456.64-44-1.41-.15-.3,3.4,1.3.08Zm500.06,42.52.94.17-.4-3.59-.54,0Zm-.85-30.94-.4.94,3.09,1.42.48-1.14ZM188.27,185.6l.83-.54-1.79-2.79-.85.55Zm37.3-12-.73,0,.17,3.62.8,0ZM515.67,169c.48-.76.86-1.13.92-1.54s-.3-.71-.48-1.07c-.45.28-1.11.47-1.29.88S515.22,168.11,515.67,169ZM94.79,231.31l.91-.18-.28-3.65-.63,0ZM864.14,264.6a8.47,8.47,0,0,0-2.21-1.19c-.32,0-1.12.78-1.06.92a3.56,3.56,0,0,0,1.29,1.65C862.39,266.1,863.13,265.33,864.14,264.6ZM23.82,132h.36l-.11-2.13h-.25Zm978.26,165.56.93-.14-.21-3.72-.72,0Zm-4.13,34.84-.92.35,1.09,3.82,1.31-.43ZM25.34,136,24,135.5l-.8,3.72.78.23Zm1098.34,77.81h.66c0-.94,0-1.89,0-2.83a4.92,4.92,0,0,0-.63-.05ZM1022.31,260H1022v2.8h.32Zm54.85-50.88.67-.05-.37-3.14-.3,0Zm-.1-16.31.61.15-.19-3-.57,0ZM63.8,226.25l-1.11-.08.53,4.42ZM1085,315.64h-.56v4.25h.56ZM36.77,262.41l1.27.43c.28-.93.57-1.86.8-2.8a4.48,4.48,0,0,0-.95-.31C37.48,260.59,37.13,261.5,36.77,262.41ZM77.42,111.76l-1.22-.47c-.29.94-.59,1.89-.82,2.84a4.83,4.83,0,0,0,.94.32C76.72,113.58,77.07,112.67,77.42,111.76ZM999.14,344.32l-.72.06.31,2ZM55.79,123.95a4.4,4.4,0,0,0,.46-1.34c0-.16-.49-.29-.76-.44ZM295.93,277.41l-1.2.11.28,3h.72ZM132.7,79.53l1.2-.22-.52-2.46-.54.07ZM999.16,318.06l-.6,0v3.17l.74,0ZM510.78,145.46l.89.19v-3.16l-.63,0Zm628.28,24.82-.76.41,1.44,2.62.85-.46ZM100.73,65.64l.87.17V62.73l-.61,0ZM772.49,282.32l-1.21-.29a8.11,8.11,0,0,0-.5,1.89c0,.15.83.35,1.28.52ZM1145,171c0-.36,0-.71-.07-1.07,0,0-.1,0-.16-.07,0,.36-.07.72-.08,1.09A2,2,0,0,0,1145,171ZM337.86,197.36l.6,0v-3.15l-.74,0Zm248.75-7.51a6.11,6.11,0,0,0-.66,1.7c0,.31.44.63.68.95.38-.4,1-.76,1.08-1.22S587.13,190.49,586.61,189.85ZM509.46,98.22l-1.1.12.38,3.15.72-.06Zm255.17,221h-.5V322h.5ZM268,336.07l.81-.08-.28-3-.78.08ZM213.58,182.36l1-.61-.6-.86-1.24.94Zm120.89,11.26.23-.1-.11-.4ZM2,137.66l-.38,0v2.7l.38,0ZM187.19,192l1.12-.27-.83-2.65-.76.19Zm639.57,75,.6-1.69a4.43,4.43,0,0,0-1.33-.37c-.17,0-.55.68-.46.86A6.08,6.08,0,0,0,826.77,267Zm-1.19-32.46,1.28,1.64a8.16,8.16,0,0,0,.34-1.67c0-.23-.5-.68-.67-.64A3.17,3.17,0,0,0,825.58,234.51ZM528.25,122.41l.84-.07-.28-3-.75.06ZM69.32,79c0,.77,0,.39,0,0ZM115,206.07l-.65,0-.23,2.78.88,0Zm408.31,48.73h.56v-3.1h-.56ZM310.58,119.45l-.92-.2v3.21l.62,0ZM115.51,31.94c.59,1.13.7,1.65.91,1.69a3.1,3.1,0,0,0,1.19-.24Zm901.27,205.59.51-.94-2.72-1.12-.39,1Zm110.4,6.44a4.52,4.52,0,0,0-1.46-.46c-.3,0-.58.48-.86.74a11,11,0,0,0,1.5.9A7.62,7.62,0,0,0,1127.17,244ZM72.63,131.07l.78.08c0-.6,0-1.19,0-1.79,0,0-.28-.06-.42-.09Zm443.47,1.83.54,0-.21-2.15-.33,0ZM325.7,143.09h.53v-3.2h-.53ZM197.52,283.34l-1.09.1.45,2.59.89-.12Zm-76.9-162.06.81-.07-.28-3-.78.07Zm0,13,.49,0v-2.71h-.49Zm735.5,138.91h.53V270h-.53ZM370.55,149.76l-1,0v2.58h.85ZM1125,235.54l.71,0-.13-2.29-.58,0Zm-897.74-86a6.52,6.52,0,0,0-1.61-.55c-.17,0-.59.65-.51.81a4.85,4.85,0,0,0,1,1Zm395.59,87.6h.55l.17-2.52h-.87ZM169.2,191.57l-.6,0v3.16l.74,0ZM955.52,326.24l.73,0-.25-2.79-.48,0ZM470.65,149.53l-1.28-.12v2.93l.88.06ZM140.71,92.45l-.59,0,.09,2h.5ZM656,298.65l.31-.05v-2.11l-.47,0ZM168.6,219.47l.68-.06-.32-2-.36,0Zm85.77,65,.6,0v-3.18l-.75,0ZM276.5,145.35H277v-2.73h-.49ZM169.2,222.49l-.92-.09-.36,2.45,1,.16ZM233.3,203a16.06,16.06,0,0,0,1-2.88c0-.17-.69-.6-.9-.51-.41.18-1,.62-1,1C232.38,201.07,232.76,201.61,233.3,203Zm715.4,49.25,1.88,2.44,1-.91Zm-4.23,1.58h.47v-2h-.47ZM276.59,264.3l.78-.26-.62-2.31-1.08.38ZM77,174.46h-.52v3.27H77Zm886.49,129-.89.12.25,3.06.64,0ZM962.14,312l1.07.17.29-2.76-.74-.1Zm219.92-131h-.49v2.66h.49ZM232.31,232.76l.92-.29-.43-2.6-.49.08Zm40.29,1.43-.82-.79-1.34,2.4.91.49Zm683.68,19.34-.62-.14c-.14.33-.46.72-.37,1a5.5,5.5,0,0,0,.83,1.28ZM85.68,148.5l-.61-.73-2.13,1.73.67.79Zm589.57,74.88-1.18.09.44,1.94ZM645.89,255v.33h1.52V255Zm530.85-84.22c.1-.08.3-.16.29-.23a9.6,9.6,0,0,0-.16-1c-.12.07-.36.15-.35.21A6.74,6.74,0,0,0,1176.74,170.8ZM155.15,195.62l.58-.91a4.29,4.29,0,0,0-.89-.26c-.1,0-.34.35-.31.42A5,5,0,0,0,155.15,195.62Zm-.6,67.33a3.47,3.47,0,0,0,.38-.69c0-.06-.3-.33-.41-.3a2.88,2.88,0,0,0-.68.42ZM117.16,110.71l.69-.53c-.42-.44-.83-.89-1.27-1.3,0,0-.33.17-.5.27Zm960.4,73.66-.51,0-.09,2.07.6,0Zm47.84,53.72c-.32.58-.66.92-.61,1.18s.51.41.79.61Zm-48.3-4.89h.48v-2h-.48ZM375.74,259l-1.2-.21.41,2Zm701.08-38.29.84.23v-2l-.5-.06ZM664.05,251.07a8.89,8.89,0,0,0-1.15.93,10.14,10.14,0,0,0,.91,1.28Zm151.53,44.56.79-.1-.29-2.22-.8.1Zm262-83.61-.79.12.35,1.95.66-.1Zm-.62,40.21.58.16c.07-.54.16-1.08.18-1.62a4.48,4.48,0,0,0-.76-.15ZM121.54,125.34l-1.21.1.47,2Zm27.51,78.08a3.69,3.69,0,0,0,0,.55s.2,0,.31.06a4,4,0,0,0,0-.55S149.15,203.44,149.05,203.42ZM827.27,271c-.21-.3-.37-.74-.66-.87s-.65.12-1,.2l.88,1.24ZM1196.64,67.76l.16-.48-.55-.09a1.94,1.94,0,0,0,.06.51C1196.33,67.75,1196.52,67.74,1196.64,67.76ZM129.55,17.93l-1.23-1.17a7.15,7.15,0,0,0-.86,1.16c0,.09.45.64.64.61A6.61,6.61,0,0,0,129.55,17.93ZM1180.87,163.42a3.48,3.48,0,0,0,.47,1c.08.09.5-.14.76-.22a2.67,2.67,0,0,0-.4-1C1181.61,163.09,1181.17,163.33,1180.87,163.42ZM131.62,144.16l.64.15c.07-.56.16-1.13.18-1.69a5.34,5.34,0,0,0-.83-.14Zm635,142c-.78.67-1.29.94-1.53,1.36-.14.24.16.72.26,1.09.48-.2,1.11-.29,1.38-.65S766.68,287.13,766.6,286.21ZM131.65,139.54l.71,0-.13-2.13-.73,0ZM764.89,312.7l1.21-.1-.47-2ZM131.71,103.28l.76-.11-.34-1.84-.62.09Zm475.77,91.4-.61-.15c-.07.53-.16,1.06-.18,1.6a6.92,6.92,0,0,0,.8.12ZM764.52,331.26H764v2.37h.51ZM132.79,95.63l.57,0V93.79l-.46,0Zm970.14,60.84h.33V155h-.33Zm-921.27,12.7,1.2.23-.41-2ZM609.3,202.69c-.85-.18-1.32-.42-1.71-.32s-.72.71-.64.86c.19.37.74.89,1,.82C608.35,203.92,608.64,203.39,609.3,202.69ZM133.47,44H133v2.43h.51Zm900.59,143,.35.74c.09-.14.26-.3.24-.41a3.46,3.46,0,0,0-.33-.72ZM141.88,122.48c.85-.72,1.41-1,1.56-1.41.1-.26-.43-.75-.67-1.14-.3.23-.74.41-.85.71A6.64,6.64,0,0,0,141.88,122.48Zm-15.34,54.71c-.75.66-1.2.94-1.17,1.06a8.28,8.28,0,0,0,.72,1.38Zm128,119.74.81-.1-.3-2.26-.81.1ZM191.1,172.46l-.36.66,1.59.72c.06-.17.21-.46.17-.48C192.05,173,191.57,172.75,191.1,172.46Zm-135-57.22c-.31.63-.61,1-.57,1.25s.47.41.73.62Zm111.16,26.52.64.16c.07-.57.17-1.14.18-1.71a5.1,5.1,0,0,0-.83-.15Zm-143-17.92-.71.05.17,2,.66,0Zm532.66,53.66c-.2.27-.49.49-.48.7a2.91,2.91,0,0,0,.36.93c.12-.14.36-.28.35-.41A8.5,8.5,0,0,0,556.93,177.51Zm-390-42.11-.57.66a1.45,1.45,0,0,0,.46.26,1.4,1.4,0,0,0,.51-.13Zm178.88,114-.06-.74-2,.23.05.61Zm228.63-73.48-1.23-.71c-.08.28-.29.62-.19.83s.5.52.76.77Zm57.48,97.64c0-.16.15-.42.1-.46a1.77,1.77,0,0,0-.55-.18,1.22,1.22,0,0,0,0,.51C631.5,273.52,631.72,273.52,631.87,273.56ZM778.12,341l-.77.06.2,2.12.69-.05Zm-649.37-168-.38-.56-1.6,1.06.43.63ZM187.84,195l.84-.34c-.15-.31-.23-.73-.48-.9s-.64,0-1,0Zm30.74-52.49-1.2-.2.43,2Zm-143-43.13-.19-.73-1.79.48.19.72Zm839.92,147.3H915v2.49h.51Zm-11.27,6.86a7.22,7.22,0,0,0-.52,1.36c0,.11.63.5.67.46a13.77,13.77,0,0,0,1-1.27Zm91.25,48.24-.78.05.18,2.46.81-.06ZM1223.24,72.79l.43-.91c-.37-.13-.77-.41-1.1-.34s-.31.59-.47.91C1222.48,72.57,1222.86,72.69,1223.24,72.79ZM104.63,99.86l.62.14c.06-.53.14-1.07.15-1.61a4.81,4.81,0,0,0-.78-.13ZM295.06,313.31a6.63,6.63,0,0,0,.41-1.35,5.81,5.81,0,0,0-.25-.85ZM106.39,78.36c-.19-.26-.37-.72-.54-.72a2.78,2.78,0,0,0-1,.43l.79.95Zm893,234.74-1.2-.22.42,2ZM212.77,139.59l.74-.12-.34-2-.7.11Zm.74,51.18-.82-.24v1.93l.53.05Zm82.35-34.84-1.19.09.45,1.93Zm-.25-8.19-.6-.16c-.07.55-.17,1.1-.19,1.65a4.8,4.8,0,0,0,.79.15ZM108.91,116.32l-.66,0,.2,1.91.45,0Zm98.58,104.3,1.21-.1-.47-2Zm307.62-50,.65,1.21a5.91,5.91,0,0,0,1.17-.9c.09-.11-.32-.87-.4-.85A8,8,0,0,0,515.11,170.58ZM972.35,323.06l-1.18.1.45,2ZM272.1,249.43h-.3v1.9h.3Zm701.07,64.67c-.39,1.49-.72,2.08-.59,2.52.08.28.87.4,1.36.45.12,0,.48-.62.41-.84A14.59,14.59,0,0,0,973.17,314.11ZM82.6,105.52h.7V103h-.7ZM272.19,227.1h-.49v2.43h.49Zm122.69-2.69c-.26.63-.54,1-.5,1.29s.46.44.71.66ZM272.11,213.76a4.21,4.21,0,0,0,.19-.91c0-.05-.43-.14-.66-.15a.64.64,0,0,0-.12.47A3.36,3.36,0,0,0,272.11,213.76Zm-45.73-51.91.38-1.07c-.11,0-.3,0-.31.06A7.9,7.9,0,0,0,226.38,161.85Zm46.72,94.8c.15-.07.43-.16.43-.2a8.62,8.62,0,0,0-.24-1c-.14.1-.39.2-.39.29A4.87,4.87,0,0,0,273.09,256.64ZM83.27,138.31l-.72,0,.13,2.45.59,0ZM271,202.45h-.51v2.48H271Zm680.3,83.68-.95.07.37,2.07.58-.07Zm-862.35-97,1.32,1.14c.16-.29.54-.7.45-.85a3.28,3.28,0,0,0-1-1C89.6,188.45,89.24,188.88,88.92,189.17ZM937.25,303.8c.13,0,.35-.07.37-.14a2,2,0,0,0,0-.57c-.15.06-.4.09-.44.19S937.21,303.62,937.25,303.8ZM93.66,55l.72-.11-.32-1.83-.62.1ZM929.48,264.88l1.21.1-.18-2.47-.73,0ZM19.42,168.26l-.95.07.37,2.07.58-.07Zm265.05-44.21-.73.11.33,2,.67-.1Zm636.74,122.5c.25.31.43.7.72.85s.64-.06,1-.1a4.73,4.73,0,0,0-.77-1.13C922,246.06,921.53,246.41,921.21,246.55ZM305,176.15a4.87,4.87,0,0,0,.49-.81c.05-.14-.07-.35-.11-.52-.22.09-.62.18-.62.26A5.3,5.3,0,0,0,305,176.15Zm5.26-51-.81.1.3,2.26.81-.1ZM522,226.8l.95-.07-.37-2.07-.58.07Zm340.61,47.53a7.77,7.77,0,0,0,.33-1.54,12.35,12.35,0,0,0-1.75-.58Zm-27.55-40.47.67.14a14.13,14.13,0,0,0,.14-1.51,3.42,3.42,0,0,0-.72-.15ZM300.34,129.5l-.1-1c-.11.14-.27.26-.32.41a.88.88,0,0,0,0,.53C300,129.48,300.2,129.48,300.34,129.5Zm913.83-25.73-.47-1c-.29.24-.83.51-.81.71,0,.4.41.76.64,1.13ZM837.31,238.25l3.3.24-.09-1Zm314.8,41.38a6.33,6.33,0,0,0-.34,1.1c0,.13.24.29.37.44.19-.26.52-.52.54-.8S1152.34,279.91,1152.11,279.63Zm-929.74-71,.34,1c.13-.08.36-.14.38-.23a6.17,6.17,0,0,0,0-.94Zm-2.94-12.84,1-.46c-.18-.23-.35-.65-.54-.66a2.56,2.56,0,0,0-1,.36Zm259.84-37.56c.14,0,.35,0,.4-.11a1.52,1.52,0,0,0,.1-.53l-.66.12Zm162.42,66.44.23-1.12a3.92,3.92,0,0,0-.83,0,.66.66,0,0,0-.07.53A3.59,3.59,0,0,0,641.69,224.66Zm-18.58-21.3c.12-.14.37-.32.34-.42a4.92,4.92,0,0,0-.41-.9,4.93,4.93,0,0,0-.32.94C622.71,203.08,623,203.23,623.11,203.36ZM225.37,180.31c-.14.13-.41.29-.4.4a5.81,5.81,0,0,0,.35,1c.14-.13.43-.28.41-.39A6,6,0,0,0,225.37,180.31ZM18.94,185.36c.22-.21.59-.39.61-.61s-.19-.61-.31-.92c-.23.18-.63.35-.65.55S18.81,185,18.94,185.36Zm423.5-6.08c.23-.21.6-.39.63-.61a2.47,2.47,0,0,0-.31-1c-.22.19-.6.37-.63.59S442.31,178.93,442.44,179.28Zm189.65,22.44,1-.48c-.14-.15-.27-.41-.42-.42a5.62,5.62,0,0,0-1.08.14ZM250.51,239.15,250,239l-.15.46a1.61,1.61,0,0,0,.53.1C250.42,239.52,250.46,239.28,250.51,239.15ZM521.37,252.9l.23-1.12a3.91,3.91,0,0,0-.83,0,.66.66,0,0,0-.07.53A3.59,3.59,0,0,0,521.37,252.9ZM632,205.37l1-.39c-.09-.14-.16-.4-.27-.41a6.89,6.89,0,0,0-1.05,0Zm-398-7.9a6.69,6.69,0,0,0,.34-1c0-.11-.21-.26-.32-.39-.19.2-.55.42-.53.61S233.79,197.17,234,197.47Zm234.25-40.81.29,0-.12-.38ZM631.5,208.48l.89.24c0-.13-.08-.36-.15-.37A2.88,2.88,0,0,0,631.5,208.48ZM19.1,179.3a6.67,6.67,0,0,0,.39-1.06c0-.12-.21-.29-.33-.44-.2.22-.58.44-.57.66S18.9,179,19.1,179.3Zm203.39,25.85a5.92,5.92,0,0,0,.83,0,.64.64,0,0,0,0-.46,3.07,3.07,0,0,0-.62-.44Zm903.77-22.23.5,0,.12-1.77-.62,0ZM655.73,255.68l.47,1c.15-.14.41-.27.41-.41a5.58,5.58,0,0,0-.15-1.06Zm470.77-69.57c.12-.14.36-.31.33-.41a.51.51,0,1,0-.71,0C1126.1,185.85,1126.36,186,1126.49,186.11ZM230.08,163.39a6.21,6.21,0,0,0-.32,1c0,.1.24.24.38.36.17-.24.46-.48.47-.72S230.28,163.63,230.08,163.39Zm932.74-42.91.42,1c.14-.12.38-.24.39-.36a5,5,0,0,0-.11-1ZM527.33,141.33a6.32,6.32,0,0,0,.41-1c0-.1-.24-.26-.37-.39a5.94,5.94,0,0,0-.4,1C526.94,141,527.19,141.17,527.33,141.33Zm599.25,49.56a2.05,2.05,0,0,0,.15-.56s-.27-.1-.42-.16a1.66,1.66,0,0,0-.11.54C1126.21,190.79,1126.45,190.83,1126.58,190.89Zm-737.88,67a6.32,6.32,0,0,0,.34-1.1c0-.13-.24-.29-.37-.44-.19.26-.52.52-.54.8S388.48,257.58,388.7,257.85Zm-31.23,35.58a6.64,6.64,0,0,0,.89.51c.06,0,.37-.32.34-.37a5.77,5.77,0,0,0-.57-.78Zm-102.23-5.8-.65-.54a2.55,2.55,0,0,0-.34.94c0,.19.39.36.61.54ZM522,220.95l.43.37a4.84,4.84,0,0,0,.37-.89c0-.1-.22-.26-.35-.39ZM357.39,298.57l.46,1c.15-.13.41-.26.42-.4a5.58,5.58,0,0,0-.15-1.07Zm164.7-82.82.35.45c.13-.14.39-.36.37-.4a4.26,4.26,0,0,0-.54-.6Zm637.27-86.56.18.5c.11-.13.28-.26.3-.4s-.1-.32-.16-.49Zm-745.89,80.4-.17-.51-.24.66Zm243,74,.23-1.12a3.91,3.91,0,0,0-.83,0,.66.66,0,0,0-.07.53A3.59,3.59,0,0,0,656.43,283.59ZM511.65,150.71l-.17-.48-.22.62Zm62.19,21a6.38,6.38,0,0,0-.33,1.11c0,.13.24.29.38.44.19-.27.51-.53.53-.81S574.07,171.94,573.84,171.66Zm-63.75-38.3c.14-.13.41-.28.39-.38a5.09,5.09,0,0,0-.34-.94,5,5,0,0,0-.38.92C509.74,133.08,510,133.25,510.09,133.36Zm0,27.47c.13-.07.33-.11.36-.22s0-.31-.07-.47l-.52.3Zm-1.28-90a6.31,6.31,0,0,0-.35,1.1c0,.13.24.3.37.45.2-.26.52-.51.54-.79S509,71.11,508.78,70.83ZM1120.2,175.63l-.15.51.54-.33ZM508.4,76.43l.47,1c.15-.14.41-.27.41-.41a5.57,5.57,0,0,0-.15-1.06ZM213,161.17l.94-.51c-.14-.12-.32-.37-.42-.35a5.14,5.14,0,0,0-.91.42Zm907.42,10.57.16-.51-.56.32Zm-906-25.84a5.93,5.93,0,0,0,.3-1c0-.11-.24-.26-.36-.39-.17.24-.48.48-.48.72S214.19,145.64,214.4,145.9Zm154.31,32.19c.34.13.66.36.95.32s.39-.4.58-.61c-.31-.12-.64-.36-.94-.34S368.91,177.86,368.71,178.09ZM208.3,214.84l.23-1.12a3.92,3.92,0,0,0-.83,0,.66.66,0,0,0-.07.53A3.59,3.59,0,0,0,208.3,214.84Zm968.48-54.4c.13-.14.4-.3.38-.42a.55.55,0,1,0-.73,0C1176.4,160.12,1176.65,160.29,1176.78,160.43Zm3.58,15.66c.12,0,.3-.05.35-.14a1.82,1.82,0,0,0,.13-.52l-.69.18ZM23.56,147.57l.69-.59a4.91,4.91,0,0,0-.93-.38c-.12,0-.29.22-.44.35ZM511.49,87.65l-.43.14.39.73c.1-.13.29-.26.29-.39S511.57,87.81,511.49,87.65ZM24.37,203.38l-.63,0v1.75l.51,0Zm492-103.76c-.13,0-.32,0-.37.12a1.67,1.67,0,0,0-.11.52l.66-.15Zm-500.92,165,.15-.45-.59-.06a1.65,1.65,0,0,0,.11.47C15.2,264.63,15.38,264.61,15.49,264.62Zm593.6-17.5.54-.66a2.66,2.66,0,0,0-1-.36c-.18,0-.36.41-.53.63ZM1130,272.62l-.16.53.56-.34Zm-30.69-117.88a6.09,6.09,0,0,0-.32,1c0,.1.24.24.37.36.17-.23.46-.46.47-.69S1099.53,155,1099.33,154.74ZM200.76,182.79c-.14.13-.41.29-.39.39a5.78,5.78,0,0,0,.35,1c.14-.13.42-.28.4-.38A5.89,5.89,0,0,0,200.76,182.79Zm-21,25.17c.11,0,.28-.05.32-.13a1.64,1.64,0,0,0,.11-.48l-.62.17Zm307-48,.42-.45a5.45,5.45,0,0,0-1-.4c-.12,0-.31.24-.46.37ZM483.84,171l.48,1c.15-.14.41-.27.41-.41a5.57,5.57,0,0,0-.16-1.06Zm697.27-1.62.47.36a5.45,5.45,0,0,0,.44-.94c0-.09-.26-.26-.4-.4Zm-659.74,97,.23-1.12a3.92,3.92,0,0,0-.83,0,.66.66,0,0,0-.07.53A3.59,3.59,0,0,0,521.37,266.4ZM1145,185.57a4,4,0,0,0,.44-.24c-.13-.3-.29-.59-.44-.88-.13.11-.39.26-.37.33A4.43,4.43,0,0,0,1145,185.57Zm-558.17,2.36.49.09-.16-.62a1.79,1.79,0,0,0-.44.19S586.78,187.81,586.82,187.93ZM1145.27,175l-.4-1c-.14.14-.42.3-.39.4a6.1,6.1,0,0,0,.4,1ZM370.13,160.55c.14-.13.4-.28.38-.37a5.32,5.32,0,0,0-.33-.93c-.13.12-.39.26-.37.36A5.62,5.62,0,0,0,370.13,160.55ZM1121.45,151l-.16.53.59-.34Zm-14.52,34.47a6.33,6.33,0,0,0,.34-1.1c0-.13-.24-.29-.37-.44-.19.26-.52.52-.54.8S1106.71,185.14,1106.93,185.42ZM198.2,262.76c.23-.22.6-.4.63-.63s-.19-.62-.3-.93c-.24.19-.65.35-.67.56S198.07,262.4,198.2,262.76ZM517.18,92c-.16-.18-.32-.47-.42-.44a4.78,4.78,0,0,0-.93.38,4.8,4.8,0,0,0,.91.44C516.85,92.37,517,92.1,517.18,92Zm90,130.3a6.67,6.67,0,0,0,.39-1.06c0-.12-.21-.29-.33-.44-.2.22-.58.44-.57.66S607,222,607.19,222.27ZM218,246.8a6.33,6.33,0,0,0,.34-1.1c0-.13-.24-.29-.37-.44-.19.26-.52.52-.54.8S217.82,246.53,218,246.8Zm-19.68,10.75a6.54,6.54,0,0,0,.33-1c0-.1-.2-.24-.31-.37-.18.19-.52.4-.51.58S198.18,257.27,198.37,257.55ZM1199,108a5.62,5.62,0,0,0,.31-1c0-.11-.21-.26-.33-.39-.17.23-.46.46-.48.7S1198.8,107.74,1199,108ZM277.05,246.76l.23-1.12a3.92,3.92,0,0,0-.83,0,.66.66,0,0,0-.07.53A3.6,3.6,0,0,0,277.05,246.76Zm550.51-36.71-.72-.56a2.62,2.62,0,0,0-.39,1c0,.2.4.4.62.59ZM117.32,24.9l-.22.34.29.09ZM5.1,121.4a5.29,5.29,0,0,0,.93.42c.1,0,.27-.24.41-.37a6.92,6.92,0,0,0-1-.46C5.4,121,5.23,121.26,5.1,121.4ZM68.18,37.58c.1-.11.35-.27.32-.38a5,5,0,0,0-.38-.92,5.06,5.06,0,0,0-.35.93C67.77,37.3,68,37.45,68.18,37.58Zm.08-5.27c-.11,0-.27,0-.32.12a1.61,1.61,0,0,0-.11.46l.61-.14ZM276.74,235.67a6,6,0,0,0-.32,1c0,.11.23.25.36.38.17-.24.46-.47.48-.72S276.95,235.92,276.74,235.67ZM117.2,144.79c.15-.14.4-.27.39-.37a5.43,5.43,0,0,0-.3-.93c-.13.12-.38.25-.37.35A5.49,5.49,0,0,0,117.2,144.79Zm-24.69-5.6.19.45.16-.47Zm925.13,105-.45-.4a5.47,5.47,0,0,0-.39,1c0,.12.24.3.37.45Zm-.26,8.67.23-1.12a3.89,3.89,0,0,0-.83,0,.65.65,0,0,0-.07.53A3.58,3.58,0,0,0,1017.38,252.86ZM308.56,109.65l.15.43c.09-.11.24-.22.25-.35s-.09-.28-.14-.42ZM838.7,282.41l.39.94c.13-.12.37-.22.38-.35a4.82,4.82,0,0,0-.08-.94ZM113.54,80.23c.15-.12.44-.28.42-.37a6.27,6.27,0,0,0-.36-1c-.14.14-.4.29-.39.4A5.22,5.22,0,0,0,113.54,80.23Zm901.26,160.46a6.15,6.15,0,0,0,.37-1c0-.11-.2-.28-.3-.42-.19.21-.54.42-.54.62S1014.61,240.42,1014.79,240.69Zm-.06,6.13c.13-.12.38-.26.36-.35a5.59,5.59,0,0,0-.36-.9c-.11.13-.34.28-.32.38A4.59,4.59,0,0,0,1014.73,246.82Zm-.07,4.8c.14-.09.36-.15.4-.27s0-.36-.07-.54a3.08,3.08,0,0,0-.58.38S1014.57,251.47,1014.66,251.62Zm-2.26-18.32a6.33,6.33,0,0,0,.34-1.1c0-.13-.24-.29-.37-.44-.19.26-.52.52-.54.8S1012.17,233,1012.4,233.3ZM127,232.49a2,2,0,0,0-.14.51s.26.09.39.14a1.48,1.48,0,0,0,.09-.49C127.29,232.58,127.08,232.54,127,232.49Zm659.44-7.09a5.63,5.63,0,0,0,.34-.92c0-.09-.25-.23-.38-.35a5.25,5.25,0,0,0-.34.91C786,225.12,786.25,225.27,786.39,225.39Zm-451.63-11.2-.1-.42c-.11,0-.31.07-.31.11a1.6,1.6,0,0,0,.1.43Zm699.57-12.52c-.09.1-.33.26-.3.37a5.15,5.15,0,0,0,.36.91,5.2,5.2,0,0,0,.32-.93C1034.73,201.93,1034.46,201.78,1034.33,201.66ZM328.37,237c.11-.12.28-.23.29-.35a1.23,1.23,0,0,0-.15-.47c-.11.11-.29.21-.31.34S328.3,236.82,328.37,237ZM262.51,308.1c-.1-.16-.23-.48-.31-.46a7.14,7.14,0,0,0-1.05.32c.12.15.26.43.37.42A5.07,5.07,0,0,0,262.51,308.1Zm555.64-101c.13,0,.34,0,.39-.13a1.74,1.74,0,0,0,.11-.55l-.7.16ZM261.61,306l.85-.34c-.08-.13-.15-.37-.24-.38a5.6,5.6,0,0,0-.92,0ZM119.83,202.17a6.14,6.14,0,0,0,.31-1c0-.1-.24-.23-.37-.35-.17.23-.45.46-.46.7S119.63,201.94,119.83,202.17Zm-.31,8.4.2.45.15-.47Zm176.37,29-.69-.54a2.48,2.48,0,0,0-.36.93c0,.2.39.38.61.56Zm-26.61-57.1.41,0-.18-.52ZM295.19,302.1c.15-.09.39-.15.44-.27s0-.38-.08-.57l-.63.37ZM889,317.82l.39,1.06c.15-.13.44-.28.42-.39a5.5,5.5,0,0,0-.3-1ZM105.12,84a2,2,0,0,0,.14-.54s-.27-.09-.42-.14a1.55,1.55,0,0,0-.09.52C104.76,83.88,105,83.92,105.12,84ZM889.25,280.06l.16.49c.11-.12.28-.23.31-.37s-.09-.31-.15-.47ZM295.16,316.73c.22-.2.58-.38.6-.59a2.39,2.39,0,0,0-.31-.92c-.22.18-.6.35-.62.54A2.57,2.57,0,0,0,295.16,316.73ZM74.08,77.36a7,7,0,0,0-.38,1.11c0,.1.27.26.41.39.19-.26.5-.52.53-.8S74.3,77.61,74.08,77.36ZM267.53,314.82,267,314c-.14.14-.4.3-.38.43a5.86,5.86,0,0,0,.33,1ZM102.68,97.6l.17-.49-.66-.05a1.86,1.86,0,0,0,.14.51C102.36,97.63,102.56,97.59,102.68,97.6ZM75.45,221.92l.11-.78c-.09.12-.24.23-.26.35S75.4,221.78,75.45,221.92Zm-.41-12c0-.11,0-.28-.12-.32a1.6,1.6,0,0,0-.47-.11l.14.61ZM101.35,88.7l-.23.36.31.09Zm0,14.54a6.11,6.11,0,0,0,.37-1c0-.12-.2-.28-.31-.43-.19.21-.55.42-.54.63S101.17,103,101.35,103.24Zm167.11,227,.23-1.12a3.92,3.92,0,0,0-.83,0,.66.66,0,0,0-.07.53A3.59,3.59,0,0,0,268.46,330.25Zm646.7-77.62a6.33,6.33,0,0,0-.34,1.1c0,.13.24.29.37.44.19-.26.52-.52.54-.8S915.39,252.9,915.16,252.62ZM305.09,162.29c-.11.13-.34.28-.32.38a4.78,4.78,0,0,0,.33.87,4.61,4.61,0,0,0,.32-.87C305.44,162.57,305.2,162.42,305.09,162.29Zm908.47-46.4.23-.3-.29-.1ZM109.88,93.39c-.13.15-.4.32-.37.44a5.36,5.36,0,0,0,.38,1,5.26,5.26,0,0,0,.37-1C110.28,93.7,110,93.53,109.88,93.39Zm874.23,220.9a6.72,6.72,0,0,0,.39-1.07c0-.12-.21-.29-.33-.44-.2.22-.58.45-.57.66S983.91,314,984.11,314.29Zm-.07-4.9c.13-.12.39-.28.36-.37a5.66,5.66,0,0,0-.37-.93c-.12.13-.36.29-.34.39A4.83,4.83,0,0,0,984,309.39ZM72.72,263.63,73,264c.12-.13.36-.32.34-.36a3.44,3.44,0,0,0-.48-.55Zm36-181.32a6.69,6.69,0,0,0,.39-1.06c0-.12-.21-.29-.33-.44-.2.22-.58.44-.57.66S108.53,82,108.72,82.3Zm894.81,257.76a6.26,6.26,0,0,0,.43-1c0-.1-.31-.39-.33-.38-.24.16-.64.38-.63.56S1003.33,339.79,1003.53,340.06ZM108.78,87.2a6.33,6.33,0,0,0,.34-1.1c0-.13-.24-.29-.37-.44-.19.26-.52.52-.54.8S108.55,86.92,108.78,87.2Zm.07,27,.23-1.12a3.91,3.91,0,0,0-.83,0,.66.66,0,0,0-.07.53A3.6,3.6,0,0,0,108.85,114.16ZM295.7,226.7l-.62,0v1.76l.52,0ZM107.18,54.14c.26-.16.73-.35.72-.45a7.42,7.42,0,0,0-.47-1.35c-.2.29-.5.57-.56.88S107.06,53.81,107.18,54.14Zm164.71,185.4c.14-.1.42-.22.41-.29a6.08,6.08,0,0,0-.27-1c-.13.11-.39.23-.38.33A5,5,0,0,0,271.89,239.53Zm444.65,17.09.17-.42-.59-.13a1.21,1.21,0,0,0,.06.46C716.21,256.61,716.41,256.6,716.53,256.63ZM83.67,153.92l.36.5a6.47,6.47,0,0,0,.51-1c0-.1-.25-.29-.39-.44ZM962.11,348.22l.22-1a4.53,4.53,0,0,0-.77,0,.62.62,0,0,0,0,.47A3.22,3.22,0,0,0,962.11,348.22Zm231.48-288,.21.52c.12-.13.32-.25.35-.39s-.12-.34-.19-.51ZM955.69,246a1.79,1.79,0,0,0-.13.46s.23.08.35.13a1.37,1.37,0,0,0,.09-.44C956,246.09,955.8,246.06,955.69,246ZM724.55,211.44l.42,1c.24-.2.66-.37.68-.59s-.22-.65-.35-1C725,211.06,724.8,211.24,724.55,211.44ZM345.71,256.1a1.6,1.6,0,0,0,.13-.49c0-.06-.22-.11-.35-.16a1.54,1.54,0,0,0-.12.48C345.38,256,345.6,256,345.71,256.1Zm380.47-48.5c.24-.2.65-.38.66-.59s-.22-.65-.35-1c-.24.18-.66.35-.67.56A2.68,2.68,0,0,0,726.18,207.61Zm7.91,109.93-.6-.81c-.12.14-.35.29-.33.41a5.08,5.08,0,0,0,.3.94Zm-.33-15.6.23-1.08a4.09,4.09,0,0,0-.81,0,.65.65,0,0,0-.06.51A3.5,3.5,0,0,0,733.76,301.94ZM140.56,196c.13-.15.36-.32.34-.42a4.51,4.51,0,0,0-.39-.83,4.3,4.3,0,0,0-.29.86C140.2,195.72,140.44,195.87,140.56,196Zm118.29,52.3.42-.35a6.8,6.8,0,0,0-.86-.53c-.06,0-.24.24-.37.37Zm716.76,66.08.19-.48-.7-.11c0,.17,0,.38.06.5S975.46,314.36,975.61,314.38ZM82.49,108a4.31,4.31,0,0,0,.78.41c.08,0,.38-.3.36-.34a5.27,5.27,0,0,0-.52-.72ZM956,320.65l.22-1a2.83,2.83,0,0,0-.7-.07.55.55,0,0,0-.11.46A3.24,3.24,0,0,0,956,320.65Zm-1.2-86.1.23-1.12a4,4,0,0,0-.83,0,.66.66,0,0,0-.07.53A3.62,3.62,0,0,0,954.76,234.55ZM150.5,146.82a1.68,1.68,0,0,0,.14-.5c0-.06-.23-.11-.36-.16a1.57,1.57,0,0,0-.12.49C150.17,146.71,150.39,146.76,150.5,146.82Zm0,5.25c-.16.17-.41.33-.39.45a5.52,5.52,0,0,0,.34,1c.14-.12.42-.27.4-.37A6.48,6.48,0,0,0,150.52,152.06Zm524.26,77.8c-.13,0-.33,0-.38.14a1.84,1.84,0,0,0-.12.55l.7-.17ZM149.9,212.77l.47,1c.15-.14.41-.27.41-.41a5.58,5.58,0,0,0-.16-1.06Zm536.57-29.64.41,1a4.76,4.76,0,0,0,.55-.8.71.71,0,0,0-.18-.49A4.55,4.55,0,0,0,686.46,183.13Zm391.41,54.48-.6-.82c-.12.13-.37.29-.35.4a5.31,5.31,0,0,0,.3,1Zm-.64,5.19a6.08,6.08,0,0,0-.33,1.06c0,.13.23.29.36.43.19-.26.5-.51.52-.78S1077.44,243.07,1077.22,242.8ZM693,217.73c.15-.12.43-.27.42-.36a6.21,6.21,0,0,0-.36-1c-.14.13-.4.28-.38.4A5.12,5.12,0,0,0,693,217.73Zm.51-4.76-.61-.81c-.14.14-.42.31-.4.43a6.29,6.29,0,0,0,.38,1.07Zm8.84-17.44.47,1c.15-.14.41-.27.41-.41a5.58,5.58,0,0,0-.15-1.06Zm4.06,12.9a6.33,6.33,0,0,0-.34,1.1c0,.13.24.29.37.44.19-.26.52-.52.54-.8S706.67,208.69,706.44,208.42ZM82.69,163.22a6.67,6.67,0,0,0,1.06.39c.12,0,.29-.21.44-.33-.22-.2-.44-.58-.66-.57S83,163,82.69,163.22Zm192.89-23.56c.14-.14.38-.29.37-.39a5,5,0,0,0-.3-.91c-.14.11-.4.25-.39.34A6,6,0,0,0,275.58,139.67Zm-265,63,.23-1.12a4,4,0,0,0-.83,0A.66.66,0,0,0,10,202,3.62,3.62,0,0,0,10.63,202.64Zm326.26,13.15a6.33,6.33,0,0,0-.34,1.1c0,.13.24.29.37.44.19-.26.51-.52.54-.8S337.12,216.06,336.89,215.79ZM82.12,218.4l-.46-.4a5.15,5.15,0,0,0-.39,1c0,.11.23.29.36.44Zm968.28,45a1.43,1.43,0,0,0,.12-.44c0-.05-.2-.1-.31-.14a1.34,1.34,0,0,0-.1.43C1050.12,263.29,1050.3,263.33,1050.41,263.38ZM944.67,209.1c.16-.12.47-.25.46-.34a6.59,6.59,0,0,0-.3-1.08c-.15.13-.44.27-.43.38A5.45,5.45,0,0,0,944.67,209.1ZM1048.61,247l.46,1c.15-.13.41-.26.42-.4a5.59,5.59,0,0,0-.15-1.07ZM777.68,338.88l.22-.83c-.12,0-.33.07-.34.14A2.74,2.74,0,0,0,777.68,338.88ZM91.53,156.16a5.37,5.37,0,0,0,.33-1c0-.13-.2-.3-.31-.45-.19.24-.5.47-.52.73S91.34,155.92,91.53,156.16Zm36.9,57.76c-.12,0-.3,0-.35.13a1.72,1.72,0,0,0-.12.51l.66-.16Zm148.62,37.75.23-1.12a3.92,3.92,0,0,0-.83,0,.66.66,0,0,0-.07.53A3.59,3.59,0,0,0,277.05,251.67Zm768.37-64.37c.13-.14.39-.3.37-.41a.55.55,0,1,0-.73,0C1045,187,1045.29,187.16,1045.42,187.3ZM126.53,37l.78.08.13-1.87-.67-.06ZM90.87,54.28l.42.4a7.93,7.93,0,0,0,.57-.86s-.27-.23-.42-.36ZM1041.81,205a6.71,6.71,0,0,0,.39-1.07c0-.12-.21-.29-.33-.44-.2.22-.58.45-.57.66S1041.62,204.73,1041.81,205ZM785.17,229.77c.14-.1.41-.21.4-.29a5.74,5.74,0,0,0-.27-.92c-.13.11-.39.22-.38.31A4.87,4.87,0,0,0,785.17,229.77Zm-45.54,41.89c.16-.09.45-.2.44-.27a6.4,6.4,0,0,0-.27-1c-.15.11-.42.22-.41.31A4.79,4.79,0,0,0,739.63,271.66ZM137.39,64.36l-.58-.8c-.14.14-.4.3-.38.43a5.85,5.85,0,0,0,.33,1Zm-1,30,.45.41a5.34,5.34,0,0,0,.4-1c0-.12-.24-.3-.37-.46Zm137,170.38-.15-.52-.25.66ZM136.77,96.7a6.32,6.32,0,0,0-.34,1.1c0,.13.24.29.37.44.19-.26.51-.52.54-.8S137,97,136.77,96.7ZM273.34,260.38l.21-1a3.67,3.67,0,0,0-.75,0,.61.61,0,0,0-.07.48A3.42,3.42,0,0,0,273.34,260.38ZM136.11,21.67l-.64,0V23.4l.51,0Zm611.7,301.53.47,1c.15-.14.41-.27.41-.41a5.58,5.58,0,0,0-.15-1.06ZM51.7,194.1l.38,1c.13-.08.36-.15.37-.25a6.27,6.27,0,0,0,0-1ZM133.37,89.37l.15-.46-.6-.09a1.54,1.54,0,0,0,.09.49C133,89.37,133.24,89.35,133.37,89.37Zm1063.57,20.37-.57-.8c-.14.14-.4.3-.39.43a5.9,5.9,0,0,0,.33,1ZM52.63,209l-.52-.7a5.06,5.06,0,0,0-.33.88c0,.12.18.27.28.41Zm218.08,0c.14-.13.38-.25.39-.39s-.22-.28-.35-.42c-.14.13-.38.25-.39.39S270.58,208.81,270.71,209Zm-22.1,36.7c.11-.11.31-.21.32-.32s-.18-.23-.28-.35c-.11.11-.31.21-.32.32S248.5,245.53,248.61,245.65Zm.84-11.31.37.42c.14-.12.39-.24.39-.38a.52.52,0,0,0-.35-.39C249.74,234,249.59,234.22,249.45,234.34Zm10.41,4.18.38-.35-.35-.38-.39.53Zm-5,52.35-.28-.21-.06.29Zm1,13.86.44-.37c-.13-.14-.25-.39-.39-.4s-.29.22-.43.34Zm0,30.7.42-.37c-.12-.14-.24-.38-.38-.39a.52.52,0,0,0-.39.35C255.61,335.15,255.84,335.3,256,335.44Zm11.1-74.3-.21.3.32,0ZM3,170.93c.14-.12.37-.24.38-.37s-.21-.28-.32-.42c-.14.12-.37.24-.38.37S2.92,170.79,3,170.93Zm2.72,7-.38-.26,0,.42ZM261.9,215.81l.29.22.05-.33Zm.5,50.5-.35-.23,0,.37ZM118.26,182.75l.28.21,0-.32ZM66,40.4c-.11-.13-.22-.35-.35-.35s-.26.19-.39.31c.11.13.22.35.35.35S65.87,40.51,66,40.4Zm51.26,93-.24.39.39,0Zm-.11,13.49-.22.35.38,0Zm.06,70.52.22-.33-.35,0ZM114.83,69l.19-.35-.69,0c.05.12.08.27.17.35S114.72,68.94,114.83,69Zm-.06,30.76.42-.37-.37-.42c-.14.12-.38.24-.39.38S114.64,99.57,114.77,99.71Zm-.2,6.94.27.19,0-.3ZM69.35,83.7c.12-.11.34-.22.35-.35s-.19-.26-.3-.38c-.12.11-.34.22-.35.35S69.24,83.57,69.35,83.7Zm44.16.54-.19.33.33,0Zm-.14,80.07.26.19,0-.3Zm.24,67.26-.23.38.38,0ZM52.4,212.22l-.27-.18,0,.3ZM129.19,85.83l.3.36c.12-.1.32-.2.33-.31s-.17-.24-.27-.36Zm.31,11.35c.12-.1.32-.19.33-.3s-.17-.24-.27-.35c-.12.1-.32.19-.33.3S129.4,97.07,129.5,97.18ZM128.27,26l.42-.37-.37-.42c-.14.12-.39.24-.39.38S128.15,25.91,128.27,26Zm.05,74.19-.24.39.41,0ZM56.14,206.09l-.3-.19,0,.33ZM127,43.22l.44-.37c-.13-.14-.25-.38-.38-.39s-.29.21-.43.34ZM55.7,112.77,56,113l.06-.35Zm1.14,111.78.28.19,0-.32Zm69-35.21.42-.37c-.12-.14-.24-.38-.38-.39a.52.52,0,0,0-.39.35C125.47,189,125.69,189.2,125.82,189.34Zm.37,24.19c-.11-.13-.2-.34-.32-.35s-.25.19-.37.29c.11.13.2.34.32.35S126.06,213.63,126.19,213.53ZM56.91,166.09l.46-.35c-.12-.15-.23-.4-.37-.42s-.3.2-.46.32Zm.16-109.35.42-.37c-.12-.14-.24-.39-.38-.39a.52.52,0,0,0-.39.35C56.71,56.45,56.94,56.6,57.07,56.74Zm63.84,165.75.42-.37-.37-.42c-.14.12-.38.24-.39.38S120.78,222.35,120.91,222.49ZM76.69,183.15l.24-.4-.4,0Zm-.26-16.29.37.24,0-.41Zm18.46,57.7.32.21,0-.35ZM79.16,38.32l.42-.37-.37-.42c-.14.12-.39.24-.39.38S79,38.18,79.16,38.32ZM93.09,229.48c-.12-.14-.24-.39-.38-.39s-.28.22-.42.34c.13.14.24.38.38.39S93,229.61,93.09,229.48ZM91.39,62.76c.12-.11.33-.21.34-.33s-.18-.25-.29-.37c-.12.11-.33.21-.34.33S91.28,62.64,91.39,62.76ZM81.62,224.94l.42-.37-.37-.42c-.14.12-.39.24-.39.38S81.49,224.8,81.62,224.94Zm9-26.16-.37-.43c-.14.13-.39.25-.4.38s.22.29.34.43Zm-.31,17-.21.29.31.06ZM82.91,201l-.21.31.32,0Zm5.8-123.75.38.24,0-.41ZM83,133.46l-.22.31.32.06Zm5.7,113.17.3.38c.12-.1.33-.2.34-.32s-.18-.25-.28-.38ZM86.58,40.08l-.24.38.4,0ZM85.3,244.46l.23-.34-.37,0Zm-1.22-98.1.42-.37c-.12-.14-.24-.38-.38-.39a.52.52,0,0,0-.39.35C83.72,146.08,84,146.22,84.08,146.37Zm0,12.28.42-.37c-.12-.14-.24-.38-.38-.39a.52.52,0,0,0-.39.35C83.72,158.35,84,158.5,84.08,158.64Zm-.28,8.17.38.24,0-.4Zm.7,40.57-.37-.42-.42.37c.12.14.24.38.38.39S84.36,207.51,84.5,207.38Zm27.89-52.52c.12-.1.33-.19.34-.3s-.17-.25-.26-.37c-.12.1-.33.19-.34.3S112.29,154.73,112.38,154.86ZM108.7,78.12l-.22.34.35,0Zm0,45.47-.22.34.35,0Zm-.32,3.82.38.26.05-.42ZM74.52,135l-.39-.27-.05.43Zm.05-18.47c-.11-.12-.21-.33-.33-.34s-.25.18-.37.29c.11.12.21.33.33.34S74.44,116.62,74.57,116.52Zm31.79,123,.38-.35-.36-.36-.35.55ZM74.61,83.12l-.36-.21-.05.75c.13-.05.29-.08.37-.17S74.61,83.24,74.61,83.12Zm27.7-9.69.26.2,0-.3Zm.43,6.19-.28-.18,0,.32ZM101,105.41l.36.24,0-.4ZM75.23,197.6l.35.22,0-.38Zm.15-116.38.44-.37c-.13-.14-.25-.39-.39-.4s-.29.22-.44.34ZM199.47,236c.14-.13.39-.25.4-.39s-.22-.29-.34-.43c-.14.13-.39.25-.4.39S199.34,235.88,199.47,236Zm.3,7-.34-.24,0,.38ZM23.86,153.53l.23-.33-.35-.06Zm1.28,33.28c.12-.1.32-.19.33-.3s-.17-.23-.27-.35c-.12.1-.32.19-.33.3S25,186.69,25.14,186.81Zm163.6,24.26-.34-.22,0,.36Zm-.21,5.88-.26.4.41.06Zm-1.62,28.48.41.25,0-.44Zm.29,7.71.26-.42-.42,0Zm-.31,5.68.32.4c.13-.11.36-.22.37-.34s-.19-.27-.3-.4Zm-2.08-110.68-.23.35.37,0Zm40.8,71.47-.34-.41c-.13.12-.36.23-.37.35s.2.27.31.4Zm-.29,19.52-.22.31.32.06ZM18.63,175.41l.37.42c.14-.12.38-.24.39-.38a.52.52,0,0,0-.35-.39C18.92,175.06,18.77,175.29,18.63,175.41Zm201.72,26.2.42-.37-.37-.42c-.14.12-.38.24-.39.38S220.23,201.47,220.35,201.61ZM19.43,133.72l-.37-.42-.42.37c.12.14.24.38.38.39S19.29,133.84,19.43,133.72ZM19,131.63l.42-.37-.37-.42c-.14.12-.38.24-.39.38S18.88,131.49,19,131.63ZM213,209c.14-.13.39-.26.4-.4s-.23-.29-.35-.44c-.14.13-.39.26-.4.4S212.86,208.86,213,209Zm-4.92,2.43.42-.37-.37-.42c-.14.12-.39.24-.39.38S208,211.3,208.08,211.44Zm-58.94-28.32.25-.4-.41,0Zm0,3.72c.14-.13.38-.25.38-.38s-.22-.28-.34-.42c-.14.13-.38.25-.39.39S149,186.7,149.16,186.84Zm0,61.44c.14-.13.39-.26.39-.4s-.23-.29-.35-.43c-.14.13-.39.26-.39.4S149,248.13,149.16,248.27ZM143,172.15c.14-.13.39-.25.39-.39s-.22-.29-.35-.43c-.14.13-.39.25-.39.39S142.89,172,143,172.15Zm-.19,10.57.27.2,0-.31ZM43.56,56.77c.13-.11.35-.21.36-.32s-.18-.26-.28-.4c-.13.11-.35.21-.36.33S43.46,56.64,43.56,56.77ZM143,240.22l-.22.35.38,0Zm-1.22-64.43.38-.31c-.11-.13-.21-.34-.32-.35s-.25.18-.38.29ZM139,131.21l.32.4c.13-.11.35-.22.36-.34s-.19-.26-.3-.4Zm.36,7.79c.13-.11.36-.22.37-.34s-.19-.27-.3-.41c-.13.11-.36.22-.37.34S139.25,138.86,139.35,139Zm-.82-50.75-.36-.44c-.14.12-.39.24-.4.38s.21.29.33.44ZM136,25.68l-.36-.23,0,.39Zm41.79,113c-.1-.12-.2-.34-.31-.35s-.25.18-.37.29c.1.12.2.34.32.34S177.63,138.74,177.75,138.63ZM30.1,211.39c.13-.14.35-.28.35-.42s-.22-.28-.35-.42c-.13.13-.37.25-.37.39S29.95,211.22,30.1,211.39Zm.81-9,.37.42c.14-.12.38-.24.39-.38a.52.52,0,0,0-.35-.39C31.2,202.07,31.05,202.3,30.91,202.42Zm138.25,24.52-.3-.39c-.12.1-.34.2-.35.31s.17.25.27.38Zm-6.5,93.67c.12-.1.32-.2.32-.31s-.17-.24-.27-.36c-.12.1-.32.2-.32.31S162.56,320.5,162.66,320.62ZM37.12,265l.29.35c.12-.1.32-.19.33-.3a.42.42,0,0,0-.27-.33C37.37,264.75,37.24,264.93,37.12,265Zm116.65,1.39c.12.11.25.32.38.31s.25-.22.38-.34L154,266ZM38.65,274l.38-.33c-.11-.13-.21-.35-.33-.36a.46.46,0,0,0-.35.3C38.34,273.74,38.54,273.88,38.65,274Zm847.12-46.7L886,227l-.32,0Zm-.34-2.82.39.23,0-.39Zm-.07-7.35c.13.14.24.39.38.4s.29-.21.44-.33c-.13-.14-.24-.39-.38-.4S885.51,217,885.36,217.13Zm4.11,80.25.42-.37-.37-.42c-.14.12-.39.24-.39.38S889.35,297.24,889.47,297.38Zm7-34.74.35.41c.13-.12.36-.24.37-.36s-.21-.27-.32-.41Zm11.4-19.44.2-.29-.32,0ZM875.17,354.71l-.37-.42-.42.37c.12.14.24.39.38.39S875,354.84,875.17,354.71Zm5.72-109,.23-.36-.37,0Zm5,73.11-.23.36.37,0ZM945,211l-.31-.2,0,.34Zm4.42,36.88.34.22,0-.37Zm.22-3.38.23-.35-.36,0Zm2.44,60,.21-.28-.29-.06Zm3.89-13.6-.26-.19,0,.3Zm-35.8-23,.41-.35-.35-.41c-.14.12-.37.23-.38.36S920,267.76,920.17,267.89Zm1.58-26.13c-.1-.12-.19-.32-.3-.33s-.24.18-.36.27c.1.12.19.32.3.33S921.63,241.86,921.75,241.76Zm9.89,45.42-.37-.42-.42.37c.12.14.24.38.38.39S931.5,287.31,931.64,287.19Zm1.73-43,.41.26,0-.43Zm4.24,55.26-.28-.18,0,.31Zm.75-89.63.31.21,0-.33Zm6,67.53.37.42c.14-.12.38-.24.39-.38a.52.52,0,0,0-.35-.39C944.64,277,944.49,277.19,944.35,277.31Zm.37-29,.42-.37-.37-.42c-.14.12-.38.24-.39.38S944.6,248.13,944.72,248.27ZM807.2,263l.44-.37c-.13-.14-.25-.39-.39-.4s-.29.22-.43.34Zm10.88-53.21.27.19,0-.29Zm7.56,120.75.42-.37c-.12-.14-.24-.39-.38-.39a.52.52,0,0,0-.39.35C825.28,330.24,825.51,330.39,825.63,330.53Zm0-55.42.19-.27-.3,0Zm-47.88,78.75.42-.37c-.12-.14-.24-.39-.38-.39a.52.52,0,0,0-.39.35C777.4,353.57,777.63,353.71,777.75,353.85Zm-.29-5.34.4.25,0-.42ZM780.51,270l-.35-.23,0,.38Zm6.26-16-.38-.44c-.14.13-.39.26-.39.4s.23.29.35.44Zm-.41-32.87c.13-.12.35-.22.36-.35s-.2-.26-.31-.39c-.13.12-.35.22-.36.35S786.25,221,786.36,221.17Zm-.28-2.79.37.24,0-.41Zm.32-2.74-.26.41.42,0Zm54,100.66-.21.35.35,0Zm4,5.26c-.11-.13-.21-.35-.33-.36s-.25.19-.38.3c.11.13.21.35.33.36S844.3,321.68,844.43,321.57Zm11.1-41.74-.38-.44c-.14.13-.39.26-.39.4s.23.29.35.44Zm-.31-23c.13-.12.35-.24.35-.36s-.21-.25-.33-.38c-.12.12-.34.24-.35.36S855.09,256.66,855.21,256.78Zm5.23,21.74-.35-.44c-.14.12-.38.24-.4.37s.21.29.32.43Zm2,2.9.42-.37c-.12-.14-.24-.38-.38-.39a.52.52,0,0,0-.39.35C862.11,281.13,862.34,281.28,862.47,281.42Zm1,72,.34.22,0-.36ZM830.64,232.95l-.2.27.29.06Zm5.14,7.58-.38-.24,0,.4Zm-.27-2.79-.24.38.4,0Zm2.72,81.36-.3-.36c-.12.1-.32.2-.33.32s.18.24.28.36Zm-.19-47-.25.36.4.05Zm0-2.37-.2.25.3.05ZM838,240.2l-.27.4.44,0Zm252.83,78,.42-.37c-.12-.14-.24-.38-.38-.39a.52.52,0,0,0-.39.35C1090.47,318,1090.7,318.11,1090.83,318.25Zm17.55-152.54-.33-.38c-.12.11-.34.22-.34.34s.19.25.31.38Zm12,14.34-.19.29.3,0Zm5.1,49.53-.3-.22-.05.35Zm15.7-72.16.42-.37-.37-.42c-.14.12-.38.24-.39.38S1141,157.27,1141.16,157.42Zm-63.46,97.85c-.11-.13-.21-.35-.33-.36s-.25.19-.38.3c.11.13.21.35.33.36S1077.57,255.38,1077.7,255.27Zm-.41-7c.13-.11.34-.21.35-.32s-.18-.26-.28-.39c-.13.11-.34.21-.35.33S1077.19,248.16,1077.29,248.29Zm-.24-70.41.37.24,0-.41ZM1081,144c.14-.12.38-.24.4-.37s-.21-.29-.32-.43c-.14.12-.38.24-.4.37S1080.86,143.85,1081,144Zm1.23,73.66c.14-.12.38-.24.4-.37s-.21-.29-.32-.43c-.14.12-.38.24-.4.37S1082.09,217.51,1082.21,217.65Zm2.11,113.68.37.42c.14-.12.39-.24.39-.38a.52.52,0,0,0-.35-.39C1084.6,331,1084.46,331.21,1084.31,331.33ZM1196.2,118.93l.3.2,0-.32Zm0-2.46.31.21,0-.33Zm.2-9.32c.14-.12.38-.24.4-.37s-.21-.29-.33-.43c-.14.12-.38.24-.4.37S1196.27,107,1196.39,107.15Zm2.48,13.43.42-.37-.37-.42c-.14.12-.39.24-.39.38S1198.74,120.44,1198.87,120.58Zm25.78-76.12.42-.37-.37-.42c-.14.12-.38.24-.39.38S1224.52,44.32,1224.65,44.46Zm-.2-2.88.28.19,0-.3Zm-79.61,250.75.22-.33-.35,0Zm1.66-93.61-.35-.44c-.14.12-.38.24-.4.37s.21.29.33.43ZM985.76,322.81c-.12-.14-.24-.39-.37-.4s-.29.21-.44.33c.12.14.24.39.37.4S985.61,322.93,985.76,322.81Zm4.46-94.22c.14-.14.38-.28.39-.43s-.24-.29-.38-.44c-.14.14-.39.28-.39.42S990.08,228.43,990.22,228.59Zm1.14,77.36c.13-.11.35-.21.36-.34s-.19-.26-.3-.39c-.13.11-.35.21-.36.33S991.26,305.82,991.37,305.95Zm.36-7.71c-.1-.12-.19-.32-.3-.33s-.24.17-.35.27c.1.12.19.32.3.33S991.61,298.34,991.73,298.24Zm4.55,16.36c.14-.13.39-.25.4-.39s-.22-.29-.34-.44c-.14.13-.39.25-.4.39S996.16,314.45,996.28,314.6Zm1,38.84.32.21,0-.33Zm.68-15-.36-.23-.07.76c.13-.05.3-.07.39-.16S998,338.61,998,338.48Zm-36,38.05-.21.32.34,0Zm-.43-36.62.37.44c.14-.13.39-.25.4-.39s-.22-.29-.34-.44Zm5.28-31.48.42-.37c-.12-.14-.24-.38-.38-.39a.52.52,0,0,0-.39.35C966.47,308.14,966.7,308.29,966.82,308.43Zm11.29,51.2-.27-.19,0,.29Zm52.31-158.39.32.21,0-.36Zm11.28.34c.12-.11.33-.2.34-.32s-.18-.25-.28-.37c-.12.11-.33.2-.34.32S1041.6,201.45,1041.71,201.58Zm15.17-29.81-.38-.44c-.14.13-.39.26-.4.4s.22.29.35.44Zm4.74,30.69-.28-.19,0,.31Zm2.63-40.58-.35-.44c-.14.12-.38.24-.4.37s.21.29.32.43Zm-46.81,87.29-.32-.23-.05.37Zm0-14.76-.33-.23,0,.37Zm3.4,1.29.2-.27-.28-.06Zm-578-51.76-.29-.19,0,.32Zm23.34-13.39-.31-.21,0,.33Zm.15-27-.37-.42-.42.37c.12.14.24.38.38.39S466.19,143.66,466.33,143.54Zm18,33.52.42-.37-.37-.42c-.14.12-.39.24-.39.38S484.19,176.92,484.32,177.06Zm.42-13.88-.37-.42-.42.37c.12.14.24.38.38.39S484.6,163.31,484.74,163.18ZM383.85,246.91l.2-.37-.76,0c.06.13.09.29.19.37S383.73,246.9,383.85,246.91Zm17.33-47-.41-.25,0,.44Zm115.38,61.5-.39-.26,0,.43ZM516.25,231c.14-.13.38-.25.38-.39s-.22-.28-.34-.42c-.14.13-.37.25-.38.39S516.13,230.88,516.25,231Zm.3-77.64-.36-.24,0,.4Zm-.29-45.18c.12-.11.33-.22.33-.33s-.19-.25-.29-.37c-.12.11-.33.22-.33.33S516.15,108.07,516.26,108.2Zm4.91,173.15c.14-.13.38-.25.38-.38s-.22-.28-.34-.42c-.14.13-.37.25-.38.39S521,281.21,521.16,281.35Zm0-6.09c.14-.13.38-.26.39-.39s-.22-.28-.35-.43c-.14.13-.38.25-.39.39S521,275.11,521.17,275.26ZM522.38,123l.43-.37c-.13-.14-.24-.39-.38-.39s-.28.22-.42.34Zm-13.51,27,.42-.37c-.12-.14-.24-.38-.38-.39a.52.52,0,0,0-.39.35C508.52,149.76,508.75,149.91,508.88,150Zm1.23,13.5.42-.37c-.12-.14-.24-.38-.37-.39a.52.52,0,0,0-.39.34C509.75,163.26,510,163.41,510.1,163.55Zm1.23-71.17c.14-.13.39-.26.4-.4s-.23-.29-.35-.44c-.14.13-.39.26-.4.4S511.21,92.24,511.34,92.39Zm3.53,86.78.29.2,0-.32Zm-209.8-36.45c.14-.13.39-.25.4-.39s-.22-.29-.34-.44c-.14.13-.39.25-.4.39S304.94,142.57,305.06,142.72ZM310,103.39l.42-.37c-.12-.14-.24-.38-.38-.39a.52.52,0,0,0-.39.35C309.63,103.11,309.86,103.25,310,103.39Zm0-2.46.43-.37c-.13-.14-.25-.39-.39-.4s-.29.22-.43.34ZM314,111.62c-.11-.13-.22-.35-.34-.36s-.26.2-.39.31c.11.13.22.35.34.36S313.92,111.73,314,111.62Zm-39.67,33.52.42-.37c-.12-.14-.24-.39-.38-.39a.52.52,0,0,0-.39.35C274,144.85,274.25,145,274.38,145.14Zm5.11-36.28-.36-.2,0,.72c.12-.06.29-.08.36-.17S279.47,109,279.48,108.86Zm9.6,141.92c.14-.13.39-.24.4-.38s-.21-.29-.33-.44c-.14.13-.39.24-.4.38S289,250.63,289.08,250.78Zm.3-2.88-.31-.21,0,.33Zm5.86,71.58.42-.37-.37-.42c-.14.12-.39.24-.39.38S295.12,319.34,295.25,319.48Zm0-30.69.42-.37-.37-.42c-.14.12-.39.24-.39.38S295.12,288.64,295.25,288.78Zm0-2.45.43-.38c-.13-.14-.25-.38-.39-.39s-.28.22-.43.35Zm-.05-11.21.21-.3-.32,0Zm.43-38.28c-.12-.14-.24-.39-.38-.39s-.28.22-.42.34c.12.14.24.39.38.39S295.53,237,295.67,236.85Zm6.14-101.91-.38-.44c-.14.13-.39.26-.4.4s.23.29.35.44Zm65,114.14-.36-.23,0,.39Zm-.26-5.15-.22.34.35,0ZM369,171.57l-.2.29.3.05Zm.2-34.28-.27-.18,0,.3Zm-25.76,72.43-.3-.19,0,.33ZM345.71,274c.11-.13.32-.25.32-.37s-.2-.25-.32-.37c-.12.12-.33.23-.34.35S345.57,273.81,345.71,274Zm-.4-12.69.39.27.05-.44Zm6.45.56.46-.4c-.13-.15-.26-.42-.41-.43s-.31.23-.46.37Zm9.53-86.44.32.21,0-.33Zm345.23,28.75c.14-.12.38-.24.4-.37s-.21-.29-.33-.43c-.14.12-.38.24-.4.37S706.4,204,706.52,204.14Zm27.43,151.8c-.12-.13-.22-.36-.35-.37s-.27.2-.4.32c.12.13.22.36.35.37S733.82,356.06,733.95,355.94Zm-76.52-31.55.42-.37c-.12-.14-.24-.38-.38-.39a.52.52,0,0,0-.39.35C657.08,324.1,657.31,324.25,657.43,324.39Zm0-19.69c.13-.14.35-.28.35-.42s-.22-.28-.35-.42c-.13.13-.37.25-.37.39S657.32,304.53,657.48,304.7Zm7.37,19.08-.25.37.38.05Zm12.2-135.7c.12-.1.32-.19.34-.3s-.17-.24-.26-.37c-.12.1-.32.19-.34.3S677,187.95,677.05,188.07Zm6.16,16,.42-.37c-.12-.14-.24-.38-.38-.39a.52.52,0,0,0-.39.35C682.86,203.78,683.09,203.93,683.22,204.07Zm77.08,78.15.37.24,0-.39Zm4,34.8c.14-.13.39-.24.39-.38s-.22-.28-.35-.42c-.14.13-.38.24-.39.38S764.12,316.88,764.24,317Zm1.47-21.24-.27-.19,0,.29Zm-31.82,2.45-.41-.25,0,.43Zm-.35-3.36.38-.33c-.11-.13-.21-.35-.33-.36a.46.46,0,0,0-.35.3C733.24,294.62,733.44,294.75,733.55,294.88Zm.07-3.14-.23.36.37,0Zm.3-3.32c-.1-.12-.2-.34-.32-.35s-.25.18-.37.29c.1.12.2.34.32.35S733.8,288.52,733.92,288.42Zm5.77-21.73.43-.37c-.13-.14-.24-.39-.38-.4a.52.52,0,0,0-.39.35C739.34,266.4,739.56,266.54,739.69,266.69Zm8.6,60.16.43-.37c-.13-.14-.24-.38-.38-.39s-.28.22-.42.34Zm.31-39.66-.36-.23,0,.38ZM545.71,176.41l-.2.3.33,0Zm31.89.69c.12-.1.34-.19.35-.31s-.17-.25-.27-.38c-.12.1-.34.19-.35.31S577.5,177,577.6,177.1Zm5.23,10.66-.3-.2,0,.3Zm17.05,31.09c.14-.14.38-.29.38-.43s-.24-.29-.38-.43c-.14.14-.39.28-.39.42S599.74,218.7,599.89,218.85Zm8.44,20.82.42-.37c-.12-.14-.24-.39-.38-.39a.52.52,0,0,0-.39.35C608,239.39,608.2,239.53,608.32,239.67ZM527.59,125.12l-.37-.23,0,.38Zm8.3,38.44.42-.37c-.12-.14-.24-.38-.38-.39a.52.52,0,0,0-.39.35C535.53,163.27,535.76,163.41,535.89,163.55Zm95.76,128.91.42-.37c-.12-.14-.24-.38-.38-.39a.52.52,0,0,0-.39.35C631.3,292.18,631.53,292.33,631.65,292.47Zm1.23,6.14.42-.37c-.12-.14-.24-.39-.38-.39a.52.52,0,0,0-.39.35C632.53,298.32,632.75,298.46,632.88,298.61Zm5.33-77.72-.37-.42-.42.37c.12.14.24.38.38.39S638.07,221,638.21,220.89Zm0-7.36c-.11-.13-.21-.35-.33-.36s-.26.19-.38.3c.11.13.21.35.33.36S638,213.63,638.17,213.52Zm9.42,45.83c.14-.13.39-.25.4-.38s-.22-.29-.34-.44c-.14.13-.39.25-.4.38S647.47,259.21,647.59,259.35Zm-36.82-4.94.42-.37c-.12-.14-.24-.39-.38-.39a.52.52,0,0,0-.39.35C610.43,254.12,610.65,254.27,610.78,254.41ZM612.16,185l-.25.34.39.05Zm2.78,15c-.1-.13-.19-.34-.31-.35s-.26.17-.39.27c.1.13.19.34.31.36S614.81,200.13,614.94,200Zm-.46-3.38.37-.3c-.11-.12-.2-.33-.32-.34s-.25.18-.37.28Zm2.43,49.16.42-.37c-.12-.14-.24-.39-.38-.39a.52.52,0,0,0-.39.35C616.56,245.52,616.79,245.67,616.92,245.81Zm6.15-5c.12-.11.34-.22.35-.33s-.19-.25-.29-.38c-.12.11-.34.22-.35.33S623,240.69,623.07,240.82Zm.4-10.07-.37-.42c-.14.13-.38.25-.38.39s.22.28.35.42Zm0-33.13-.37-.42c-.14.13-.37.25-.38.39s.22.28.34.42Z"/></g></g></svg>